<svg width="41" height="40" viewBox="0 0 41 40" fill="none" xmlns="http://www.w3.org/2000/svg">
<path d="M20.5456 0H20.4545C9.43392 0 0.5 8.93392 0.5 19.9545V20.0456C0.5 31.0661 9.43392 40 20.4545 40H20.5456C31.5661 40 40.5 31.0661 40.5 20.0456V19.9545C40.5 8.93392 31.5661 0 20.5456 0Z" fill="url(#paint0_linear_2_106)"/>
<path d="M26.6893 8.13782H14.3122C10.8928 8.13782 8.11099 10.9196 8.11099 14.339V25.6623C8.11099 29.0817 10.8928 31.8634 14.3122 31.8634H26.6893C30.1087 31.8634 32.8904 29.0817 32.8904 25.6623V14.339C32.8904 10.9196 30.1087 8.13782 26.6893 8.13782ZM10.2986 14.339C10.2986 12.1262 12.0994 10.3254 14.3122 10.3254H26.6893C28.9021 10.3254 30.7029 12.1262 30.7029 14.339V25.6623C30.7029 27.8751 28.9021 29.6759 26.6893 29.6759H14.3122C12.0994 29.6759 10.2986 27.8751 10.2986 25.6623V14.339Z" fill="white"/>
<path d="M20.5007 25.768C23.6805 25.768 26.2689 23.181 26.2689 19.9998C26.2689 16.8187 23.6819 14.2317 20.5007 14.2317C17.3196 14.2317 14.7326 16.8187 14.7326 19.9998C14.7326 23.181 17.3196 25.768 20.5007 25.768ZM20.5007 16.4207C22.4753 16.4207 24.0813 18.0267 24.0813 20.0012C24.0813 21.9758 22.4753 23.5818 20.5007 23.5818C18.5262 23.5818 16.9202 21.9758 16.9202 20.0012C16.9202 18.0267 18.5262 16.4207 20.5007 16.4207Z" fill="white"/>
<path d="M26.8028 15.1633C27.659 15.1633 28.3569 14.4669 28.3569 13.6092C28.3569 12.7515 27.6604 12.0551 26.8028 12.0551C25.9451 12.0551 25.2486 12.7515 25.2486 13.6092C25.2486 14.4669 25.9451 15.1633 26.8028 15.1633Z" fill="white"/>
<defs>
<linearGradient id="paint0_linear_2_106" x1="6.34382" y1="34.1562" x2="34.6562" y2="5.84522" gradientUnits="userSpaceOnUse">
<stop stop-color="#FAAD4F"/>
<stop offset="0.35" stop-color="#DD2A7B"/>
<stop offset="0.62" stop-color="#9537B0"/>
<stop offset="1" stop-color="#515BD4"/>
</linearGradient>
</defs>
</svg>
