<svg width="41" height="40" viewBox="0 0 41 40" fill="none" xmlns="http://www.w3.org/2000/svg">
<path d="M40.5 20.0007C40.5 30.102 33.0124 38.4529 23.2853 39.808C22.3758 39.9342 21.4453 40 20.5007 40C19.4104 40 18.3398 39.9131 17.2971 39.745C7.77324 38.2118 0.5 29.9548 0.5 20.0007C0.5 8.95492 9.45492 0 20.4993 0C31.5437 0 40.5 8.95492 40.5 20.0007Z" fill="#1877F2"/>
<path d="M23.2853 16.0584V20.4153H28.675L27.8216 26.2844H23.2853V39.8064C22.3758 39.9325 21.4452 39.9984 20.5007 39.9984C19.4104 39.9984 18.3398 39.9115 17.2971 39.7434V26.2844H12.3264V20.4153H17.2971V15.0844C17.2971 11.7771 19.978 9.09485 23.2867 9.09485V9.09765C23.2965 9.09765 23.3049 9.09485 23.3147 9.09485H28.6764V14.1707H25.173C24.1317 14.1707 23.2867 15.0157 23.2867 16.057L23.2853 16.0584Z" fill="white"/>
</svg>
