<svg width="41" height="40" viewBox="0 0 41 40" fill="none" xmlns="http://www.w3.org/2000/svg">
<path d="M20.5455 0H20.4545C9.43393 0 0.5 8.93392 0.5 19.9545V20.0456C0.5 31.0661 9.43393 40 20.4545 40H20.5455C31.5661 40 40.5 31.0661 40.5 20.0456V19.9545C40.5 8.93392 31.5661 0 20.5455 0Z" fill="#007EBB"/>
<path d="M10.0393 13.2964C9.51236 12.8073 9.25032 12.2019 9.25032 11.4816C9.25032 10.7613 9.51377 10.1292 10.0393 9.63875C10.5662 9.14966 11.2445 8.90442 12.0755 8.90442C12.9065 8.90442 13.5582 9.14966 14.0837 9.63875C14.6107 10.1278 14.8727 10.743 14.8727 11.4816C14.8727 12.2201 14.6092 12.8073 14.0837 13.2964C13.5568 13.7855 12.8883 14.0307 12.0755 14.0307C11.2627 14.0307 10.5662 13.7855 10.0393 13.2964ZM14.4299 16.102V31.0969H9.69175V16.102H14.4299Z" fill="#FEFFFC"/>
<path d="M30.2025 17.5832C31.2354 18.7043 31.7511 20.243 31.7511 22.2022V30.832H27.2512V22.8104C27.2512 21.8224 26.9948 21.0544 26.4833 20.5079C25.9718 19.9613 25.2823 19.6867 24.419 19.6867C23.5558 19.6867 22.8662 19.9599 22.3547 20.5079C21.8432 21.0544 21.5868 21.8224 21.5868 22.8104V30.832H17.0603V16.0598H21.5868V18.019C22.045 17.3659 22.6631 16.8502 23.4394 16.4705C24.2158 16.0907 25.0889 15.9015 26.06 15.9015C27.7894 15.9015 29.1711 16.462 30.2025 17.5832Z" fill="#FEFFFC"/>
</svg>
