<svg width="41" height="40" viewBox="0 0 41 40" fill="none" xmlns="http://www.w3.org/2000/svg">
<path d="M40.4972 20.0007C40.4972 30.102 33.0098 38.4529 23.2831 39.808C22.3736 39.9342 21.4431 40 20.4986 40C19.4084 40 18.3377 39.9131 17.2951 39.745C7.77298 38.2118 0.5 29.9548 0.5 20.0007C0.5 8.95492 9.4546 0 20.5 0C31.5454 0 40.5 8.95492 40.5 20.0007H40.4972Z" fill="#1C1C1B"/>
<path d="M8.61096 8.82019L17.8346 21.1525L8.5535 31.1795H10.6429L18.7693 22.4011L25.3346 31.1795H32.4436L22.7015 18.1535L31.3408 8.82019H29.2514L21.7682 16.9048L15.7214 8.82019H8.61234H8.61096ZM11.6827 10.3589H14.9478L29.3691 29.6407H26.1039L11.6827 10.3589Z" fill="white"/>
</svg>
