<svg width="41" height="40" viewBox="0 0 41 40" fill="none" xmlns="http://www.w3.org/2000/svg">
<path d="M20.5 40C31.5457 40 40.5 31.0457 40.5 20C40.5 8.95431 31.5457 0 20.5 0C9.45431 0 0.5 8.95431 0.5 20C0.5 31.0457 9.45431 40 20.5 40Z" fill="url(#paint0_linear_2_119)"/>
<path d="M20.5 40C31.5457 40 40.5 31.0457 40.5 20C40.5 8.95431 31.5457 0 20.5 0C9.45431 0 0.5 8.95431 0.5 20C0.5 31.0457 9.45431 40 20.5 40Z" fill="#1C1C1B"/>
<path d="M26.9729 18.8197C30.5589 20.329 32.3232 23.9416 31.1531 27.6804C30.3557 30.2323 28.0841 32.2936 25.65 33.2255C22.581 34.4041 18.4597 34.3284 15.4328 33.0728C9.29346 30.5293 7.8613 23.4666 8.47088 17.5907C8.89549 13.4778 10.6079 9.46853 14.3888 7.40715C17.2377 5.84745 20.884 5.62604 24.0034 6.27907C27.2419 6.95732 29.8708 8.87296 31.4642 11.7737C31.956 12.6636 32.354 13.6473 32.6511 14.7418C32.6595 14.7838 32.6427 14.8273 32.6006 14.8357L30.3459 15.4299C30.3039 15.4383 30.2604 15.413 30.252 15.3794C29.9129 14.0902 29.379 12.9453 28.6404 11.9461C26.3338 8.80849 22.1032 7.96909 18.4569 8.62211C14.1575 9.39426 11.7837 12.4128 11.0886 16.5579C10.521 19.924 10.699 23.8239 12.2503 26.9279C13.5564 29.54 15.9218 31.0058 18.7708 31.4136C20.3052 31.6252 21.8061 31.6 23.2733 31.3281C25.3767 30.9385 27.6315 29.547 28.5466 27.5543C29.1407 26.2651 29.1996 24.6297 28.5466 23.3489C28.1738 22.6202 27.6133 22.0344 26.8762 21.5944C26.8425 21.5691 26.7907 21.586 26.7739 21.6196C26.7655 21.628 26.7655 21.6364 26.7655 21.6448C26.68 22.2726 26.5371 22.8906 26.324 23.4932C26.0186 24.3494 25.5785 25.0879 24.9928 25.6891C23.0253 27.7154 19.6004 27.8934 17.2854 26.4346C15.437 25.2645 14.7419 22.8738 15.6234 20.9063C16.5384 18.8716 18.7778 17.9901 20.905 17.8878C22.1088 17.829 23.2201 17.8794 24.2458 18.0237C24.2879 18.0321 24.3215 17.9985 24.3313 17.9565V17.9313C24.2374 17.4646 24.1281 17.0834 23.9922 16.7864C23.2803 15.2182 21.6772 14.8021 20.0754 15.0052C19.0497 15.1328 18.2439 15.6162 17.6413 16.4472C17.6161 16.4809 17.574 16.4893 17.539 16.464L15.6234 15.158C15.5897 15.1328 15.5813 15.0907 15.6066 15.0473C16.6323 13.6053 18.0225 12.7659 19.7867 12.5375C21.2456 12.3427 22.8809 12.5711 24.1534 13.3432C26.0606 14.5134 26.7388 16.6168 26.9084 18.744C26.9252 18.7861 26.942 18.8113 26.9672 18.8197H26.9729ZM17.8235 22.1437C17.4423 23.4245 18.3238 24.4335 19.5191 24.7376C21.1979 25.1622 23.0631 24.788 23.8605 23.0672C24.1744 22.3889 24.3608 21.5916 24.4196 20.6849C24.4196 20.6429 24.3944 20.6092 24.3608 20.6092C23.115 20.364 21.8341 20.3121 20.5281 20.4397C19.4686 20.5504 18.1542 21.0338 17.8235 22.1437Z" fill="white"/>
<defs>
<linearGradient id="paint0_linear_2_119" x1="0.5" y1="20" x2="40.5" y2="20" gradientUnits="userSpaceOnUse">
<stop stop-color="#FAAD4F"/>
<stop offset="0.35" stop-color="#DD2A7B"/>
<stop offset="0.62" stop-color="#9537B0"/>
<stop offset="1" stop-color="#515BD4"/>
</linearGradient>
</defs>
</svg>
