<svg width="496" xmlns:xlink="http://www.w3.org/1999/xlink" height="496" xmlns="http://www.w3.org/2000/svg"><rect height="496" fill="rgba(0, 0, 0, 0)" x="0" y="0" width="496" /><g id="755DCAD4-D75B-4655-8D3B-7C59D180683D"><rect fill="rgba(0, 0, 0, 255)" width="16" y="16" x="16" height="16" /><rect height="16" x="16" fill="rgba(0, 0, 0, 255)" width="16" y="32" /><rect height="16" x="32" fill="rgba(0, 0, 0, 255)" width="16" y="16" /><rect width="16" fill="rgba(0, 0, 0, 255)" x="16" height="16" y="48" /><rect width="16" fill="rgba(0, 0, 0, 255)" x="48" height="16" y="16" /><rect y="64" width="16" x="16" fill="rgba(0, 0, 0, 255)" height="16" /><rect y="16" width="16" x="64" fill="rgba(0, 0, 0, 255)" height="16" /><rect height="16" width="16" fill="rgba(0, 0, 0, 255)" y="80" x="16" /><rect height="16" width="16" fill="rgba(0, 0, 0, 255)" y="16" x="80" /><rect x="16" y="96" fill="rgba(0, 0, 0, 255)" width="16" height="16" /><rect fill="rgba(0, 0, 0, 255)" height="16" y="16" x="96" width="16" /><rect fill="rgba(0, 0, 0, 255)" height="16" y="112" x="16" width="16" /><rect height="16" width="16" fill="rgba(0, 0, 0, 255)" x="112" y="16" /><rect x="32" fill="rgba(0, 0, 0, 255)" height="16" width="16" y="112" /><rect width="16" height="16" fill="rgba(0, 0, 0, 255)" x="112" y="32" /><rect width="16" height="16" fill="rgba(0, 0, 0, 255)" x="48" y="112" /><rect x="112" height="16" y="48" width="16" fill="rgba(0, 0, 0, 255)" /><rect x="64" height="16" y="112" width="16" fill="rgba(0, 0, 0, 255)" /><rect height="16" x="112" fill="rgba(0, 0, 0, 255)" width="16" y="64" /><rect y="112" x="80" width="16" fill="rgba(0, 0, 0, 255)" height="16" /><rect y="80" x="112" width="16" fill="rgba(0, 0, 0, 255)" height="16" /><rect x="96" y="112" fill="rgba(0, 0, 0, 255)" height="16" width="16" /><rect x="112" y="96" width="16" fill="rgba(0, 0, 0, 255)" height="16" /><rect y="112" height="16" fill="rgba(0, 0, 0, 255)" width="16" x="112" /></g><g id="DC9D85D3-7865-4414-899B-69D3545D7368"><rect width="16" x="16" height="16" fill="rgba(0, 0, 0, 255)" y="144" /><rect fill="rgba(0, 0, 0, 255)" y="160" height="16" x="16" width="16" /></g><g id="4010F6D8-6190-4A41-AD0F-6E69CD697D1C"><rect height="16" fill="rgba(0, 0, 0, 255)" y="192" width="16" x="16" /><rect width="16" x="16" y="208" height="16" fill="rgba(0, 0, 0, 255)" /><rect height="16" fill="rgba(0, 0, 0, 255)" y="208" width="16" x="32" /><rect x="32" height="16" y="224" width="16" fill="rgba(0, 0, 0, 255)" /><rect height="16" fill="rgba(0, 0, 0, 255)" x="48" y="208" width="16" /><rect width="16" x="32" y="240" fill="rgba(0, 0, 0, 255)" height="16" /><rect y="192" height="16" fill="rgba(0, 0, 0, 255)" x="48" width="16" /><rect fill="rgba(0, 0, 0, 255)" height="16" y="176" x="48" width="16" /></g><g id="28DE4689-A195-4CE4-B76D-826CFE7B7B21"><rect fill="rgba(0, 0, 0, 255)" height="16" width="16" y="256" x="16" /><rect height="16" x="16" y="272" fill="rgba(0, 0, 0, 255)" width="16" /><rect x="16" width="16" height="16" fill="rgba(0, 0, 0, 255)" y="288" /><rect fill="rgba(0, 0, 0, 255)" height="16" y="272" x="32" width="16" /><rect fill="rgba(0, 0, 0, 255)" height="16" y="304" x="16" width="16" /><rect height="16" width="16" fill="rgba(0, 0, 0, 255)" x="32" y="288" /><rect x="48" fill="rgba(0, 0, 0, 255)" height="16" width="16" y="272" /><rect x="16" fill="rgba(0, 0, 0, 255)" height="16" width="16" y="320" /><rect height="16" x="48" y="288" width="16" fill="rgba(0, 0, 0, 255)" /><rect y="336" height="16" width="16" fill="rgba(0, 0, 0, 255)" x="16" /><rect fill="rgba(0, 0, 0, 255)" width="16" x="48" height="16" y="304" /><rect height="16" x="64" fill="rgba(0, 0, 0, 255)" width="16" y="288" /><rect y="320" x="48" width="16" fill="rgba(0, 0, 0, 255)" height="16" /><rect x="64" y="304" fill="rgba(0, 0, 0, 255)" height="16" width="16" /><rect x="80" y="288" fill="rgba(0, 0, 0, 255)" height="16" width="16" /><rect y="336" x="48" width="16" height="16" fill="rgba(0, 0, 0, 255)" /><rect y="304" x="80" width="16" height="16" fill="rgba(0, 0, 0, 255)" /><rect height="16" y="272" width="16" fill="rgba(0, 0, 0, 255)" x="80" /><rect y="288" height="16" x="96" width="16" fill="rgba(0, 0, 0, 255)" /><rect height="16" fill="rgba(0, 0, 0, 255)" y="304" width="16" x="96" /><rect height="16" fill="rgba(0, 0, 0, 255)" y="304" width="16" x="112" /><rect y="304" width="16" height="16" x="128" fill="rgba(0, 0, 0, 255)" /><rect height="16" fill="rgba(0, 0, 0, 255)" y="288" width="16" x="128" /><rect x="128" y="320" height="16" fill="rgba(0, 0, 0, 255)" width="16" /><rect x="144" y="304" height="16" fill="rgba(0, 0, 0, 255)" width="16" /><rect width="16" height="16" fill="rgba(0, 0, 0, 255)" x="128" y="336" /><rect width="16" height="16" fill="rgba(0, 0, 0, 255)" x="144" y="320" /><rect fill="rgba(0, 0, 0, 255)" x="160" height="16" width="16" y="304" /><rect y="336" width="16" x="112" fill="rgba(0, 0, 0, 255)" height="16" /><rect fill="rgba(0, 0, 0, 255)" x="144" height="16" y="336" width="16" /><rect fill="rgba(0, 0, 0, 255)" x="160" height="16" y="320" width="16" /><rect width="16" height="16" x="176" fill="rgba(0, 0, 0, 255)" y="304" /><rect width="16" height="16" x="96" fill="rgba(0, 0, 0, 255)" y="336" /><rect width="16" height="16" x="144" fill="rgba(0, 0, 0, 255)" y="352" /><rect x="176" height="16" width="16" fill="rgba(0, 0, 0, 255)" y="288" /><rect x="160" height="16" width="16" fill="rgba(0, 0, 0, 255)" y="352" /><rect x="192" y="288" width="16" fill="rgba(0, 0, 0, 255)" height="16" /><rect x="160" y="368" width="16" fill="rgba(0, 0, 0, 255)" height="16" /><rect x="176" y="352" fill="rgba(0, 0, 0, 255)" width="16" height="16" /><rect x="160" y="384" fill="rgba(0, 0, 0, 255)" width="16" height="16" /><rect x="176" width="16" fill="rgba(0, 0, 0, 255)" y="336" height="16" /><rect x="144" width="16" fill="rgba(0, 0, 0, 255)" y="384" height="16" /><rect y="400" width="16" fill="rgba(0, 0, 0, 255)" x="160" height="16" /><rect height="16" y="336" x="192" width="16" fill="rgba(0, 0, 0, 255)" /><rect y="400" x="144" height="16" fill="rgba(0, 0, 0, 255)" width="16" /><rect width="16" fill="rgba(0, 0, 0, 255)" x="160" y="416" height="16" /><rect x="176" width="16" y="400" height="16" fill="rgba(0, 0, 0, 255)" /><rect height="16" x="192" fill="rgba(0, 0, 0, 255)" y="320" width="16" /><rect x="208" height="16" fill="rgba(0, 0, 0, 255)" y="336" width="16" /><rect x="144" height="16" fill="rgba(0, 0, 0, 255)" width="16" y="416" /><rect width="16" y="320" x="208" fill="rgba(0, 0, 0, 255)" height="16" /><rect x="208" fill="rgba(0, 0, 0, 255)" y="352" width="16" height="16" /><rect x="144" fill="rgba(0, 0, 0, 255)" y="432" width="16" height="16" /><rect height="16" fill="rgba(0, 0, 0, 255)" width="16" x="224" y="352" /><rect x="224" y="368" fill="rgba(0, 0, 0, 255)" height="16" width="16" /><rect x="240" y="352" fill="rgba(0, 0, 0, 255)" height="16" width="16" /><rect width="16" y="384" fill="rgba(0, 0, 0, 255)" x="224" height="16" /><rect width="16" y="368" fill="rgba(0, 0, 0, 255)" x="240" height="16" /><rect x="208" width="16" height="16" y="384" fill="rgba(0, 0, 0, 255)" /><rect height="16" fill="rgba(0, 0, 0, 255)" x="256" width="16" y="368" /><rect height="16" fill="rgba(0, 0, 0, 255)" x="192" width="16" y="384" /><rect fill="rgba(0, 0, 0, 255)" y="400" width="16" x="208" height="16" /><rect fill="rgba(0, 0, 0, 255)" y="368" width="16" x="272" height="16" /><rect width="16" y="368" height="16" fill="rgba(0, 0, 0, 255)" x="192" /><rect x="208" y="416" width="16" height="16" fill="rgba(0, 0, 0, 255)" /><rect width="16" x="272" height="16" fill="rgba(0, 0, 0, 255)" y="384" /><rect width="16" x="192" height="16" fill="rgba(0, 0, 0, 255)" y="416" /><rect width="16" x="192" height="16" fill="rgba(0, 0, 0, 255)" y="432" /><rect width="16" height="16" x="176" y="432" fill="rgba(0, 0, 0, 255)" /><rect fill="rgba(0, 0, 0, 255)" y="448" width="16" x="192" height="16" /></g><g id="03EEBF0C-90D1-4622-8040-30844F7B78E2"><rect fill="rgba(0, 0, 0, 255)" width="16" y="368" x="16" height="16" /><rect fill="rgba(0, 0, 0, 255)" height="16" y="384" x="16" width="16" /><rect fill="rgba(0, 0, 0, 255)" height="16" y="368" x="32" width="16" /><rect height="16" width="16" fill="rgba(0, 0, 0, 255)" x="16" y="400" /><rect x="48" fill="rgba(0, 0, 0, 255)" height="16" width="16" y="368" /><rect x="16" fill="rgba(0, 0, 0, 255)" height="16" width="16" y="416" /><rect height="16" x="64" y="368" width="16" fill="rgba(0, 0, 0, 255)" /><rect y="432" height="16" width="16" fill="rgba(0, 0, 0, 255)" x="16" /><rect fill="rgba(0, 0, 0, 255)" width="16" x="80" height="16" y="368" /><rect height="16" x="16" fill="rgba(0, 0, 0, 255)" width="16" y="448" /><rect y="368" x="96" width="16" fill="rgba(0, 0, 0, 255)" height="16" /><rect x="16" y="464" fill="rgba(0, 0, 0, 255)" height="16" width="16" /><rect x="112" y="368" fill="rgba(0, 0, 0, 255)" height="16" width="16" /><rect x="32" width="16" height="16" y="464" fill="rgba(0, 0, 0, 255)" /><rect width="16" fill="rgba(0, 0, 0, 255)" height="16" y="384" x="112" /><rect fill="rgba(0, 0, 0, 255)" x="48" width="16" y="464" height="16" /><rect width="16" x="112" y="400" height="16" fill="rgba(0, 0, 0, 255)" /><rect width="16" x="64" height="16" fill="rgba(0, 0, 0, 255)" y="464" /><rect y="416" fill="rgba(0, 0, 0, 255)" width="16" x="112" height="16" /><rect height="16" fill="rgba(0, 0, 0, 255)" x="80" width="16" y="464" /><rect fill="rgba(0, 0, 0, 255)" x="112" height="16" width="16" y="432" /><rect fill="rgba(0, 0, 0, 255)" y="464" x="96" width="16" height="16" /><rect width="16" x="112" y="448" height="16" fill="rgba(0, 0, 0, 255)" /><rect fill="rgba(0, 0, 0, 255)" y="464" x="112" width="16" height="16" /></g><g id="AC82EF1C-6F9C-479E-A0A0-85A295977FC9"><rect fill="rgba(0, 0, 0, 255)" y="48" x="48" height="16" width="16" /><rect fill="rgba(0, 0, 0, 255)" y="64" height="16" width="16" x="48" /><rect fill="rgba(0, 0, 0, 255)" y="48" height="16" width="16" x="64" /><rect y="80" fill="rgba(0, 0, 0, 255)" x="48" height="16" width="16" /><rect y="64" fill="rgba(0, 0, 0, 255)" x="64" height="16" width="16" /><rect fill="rgba(0, 0, 0, 255)" height="16" y="48" x="80" width="16" /><rect fill="rgba(0, 0, 0, 255)" height="16" y="80" x="64" width="16" /><rect fill="rgba(0, 0, 0, 255)" height="16" y="64" x="80" width="16" /><rect fill="rgba(0, 0, 0, 255)" height="16" y="80" x="80" width="16" /></g><g id="6F0B6FC7-01BA-467A-ABB9-46C8BB552089"><rect width="16" x="48" height="16" fill="rgba(0, 0, 0, 255)" y="144" /><rect height="16" y="144" width="16" x="64" fill="rgba(0, 0, 0, 255)" /><rect y="160" width="16" height="16" fill="rgba(0, 0, 0, 255)" x="64" /><rect height="16" x="80" width="16" fill="rgba(0, 0, 0, 255)" y="144" /><rect y="160" height="16" x="80" fill="rgba(0, 0, 0, 255)" width="16" /><rect width="16" height="16" x="96" fill="rgba(0, 0, 0, 255)" y="144" /><rect height="16" width="16" fill="rgba(0, 0, 0, 255)" x="80" y="176" /><rect width="16" x="112" y="144" fill="rgba(0, 0, 0, 255)" height="16" /><rect x="80" fill="rgba(0, 0, 0, 255)" height="16" y="192" width="16" /><rect x="96" fill="rgba(0, 0, 0, 255)" height="16" y="176" width="16" /><rect width="16" y="208" fill="rgba(0, 0, 0, 255)" height="16" x="80" /><rect width="16" y="176" fill="rgba(0, 0, 0, 255)" height="16" x="112" /><rect y="224" width="16" height="16" fill="rgba(0, 0, 0, 255)" x="80" /><rect x="128" width="16" height="16" fill="rgba(0, 0, 0, 255)" y="176" /><rect fill="rgba(0, 0, 0, 255)" width="16" y="224" height="16" x="64" /><rect y="240" x="80" width="16" fill="rgba(0, 0, 0, 255)" height="16" /><rect fill="rgba(0, 0, 0, 255)" height="16" y="160" width="16" x="128" /><rect x="128" height="16" width="16" y="192" fill="rgba(0, 0, 0, 255)" /><rect x="144" width="16" height="16" fill="rgba(0, 0, 0, 255)" y="176" /><rect fill="rgba(0, 0, 0, 255)" height="16" x="144" y="192" width="16" /></g><g id="66D20C01-8005-44F4-97D1-E2201487C331"><rect fill="rgba(0, 0, 0, 255)" height="16" y="400" x="48" width="16" /><rect width="16" x="48" height="16" y="416" fill="rgba(0, 0, 0, 255)" /><rect height="16" fill="rgba(0, 0, 0, 255)" width="16" x="64" y="400" /><rect x="48" width="16" height="16" fill="rgba(0, 0, 0, 255)" y="432" /><rect fill="rgba(0, 0, 0, 255)" y="416" x="64" width="16" height="16" /><rect y="400" width="16" fill="rgba(0, 0, 0, 255)" x="80" height="16" /><rect x="64" y="432" height="16" width="16" fill="rgba(0, 0, 0, 255)" /><rect x="80" fill="rgba(0, 0, 0, 255)" y="416" width="16" height="16" /><rect width="16" height="16" y="432" fill="rgba(0, 0, 0, 255)" x="80" /></g><g id="11DAE6FD-2AD1-4476-95BE-3765D12D0685"><rect fill="rgba(0, 0, 0, 255)" height="16" y="256" x="64" width="16" /></g><g id="D81A5287-A90B-47E9-9466-1D11CB4216D7"><rect fill="rgba(0, 0, 0, 255)" y="208" height="16" x="112" width="16" /></g><g id="52CB5236-085E-450B-B8BE-03D59D57C5EF"><rect x="112" height="16" y="240" width="16" fill="rgba(0, 0, 0, 255)" /></g><g id="D988D1A9-5D89-4F97-B9EB-2904EC4C6CA9"><rect width="16" y="272" height="16" x="112" fill="rgba(0, 0, 0, 255)" /></g><g id="C1FC4432-E998-401A-BC23-97614D1E0396"><rect x="128" y="224" height="16" fill="rgba(0, 0, 0, 255)" width="16" /></g><g id="1620BEDB-CBEF-4484-9AEA-442F38D819BE"><rect height="16" x="128" y="256" fill="rgba(0, 0, 0, 255)" width="16" /><rect height="16" x="144" y="256" fill="rgba(0, 0, 0, 255)" width="16" /></g><g id="061B08BE-5191-49A0-9986-E6FBDED4E45C"><rect y="48" fill="rgba(0, 0, 0, 255)" x="144" width="16" height="16" /><rect y="64" fill="rgba(0, 0, 0, 255)" x="144" width="16" height="16" /><rect height="16" fill="rgba(0, 0, 0, 255)" x="144" y="80" width="16" /><rect height="16" fill="rgba(0, 0, 0, 255)" x="144" y="96" width="16" /><rect x="144" y="112" width="16" height="16" fill="rgba(0, 0, 0, 255)" /><rect y="96" width="16" fill="rgba(0, 0, 0, 255)" x="160" height="16" /><rect y="128" width="16" fill="rgba(0, 0, 0, 255)" x="144" height="16" /><rect x="176" height="16" y="96" width="16" fill="rgba(0, 0, 0, 255)" /><rect y="80" height="16" fill="rgba(0, 0, 0, 255)" width="16" x="176" /><rect x="176" y="112" width="16" height="16" fill="rgba(0, 0, 0, 255)" /><rect y="64" height="16" width="16" x="176" fill="rgba(0, 0, 0, 255)" /><rect x="192" height="16" y="64" width="16" fill="rgba(0, 0, 0, 255)" /></g><g id="E59358AF-0958-456D-9224-64E5CFC8E8DC"><rect fill="rgba(0, 0, 0, 255)" x="144" y="464" width="16" height="16" /></g><g id="D195539B-93EC-4A82-8B59-502B909D4C85"><rect fill="rgba(0, 0, 0, 255)" y="16" x="160" width="16" height="16" /></g><g id="4C75FE3D-C35F-49F7-8F8B-762AFA37106F"><rect x="160" y="144" fill="rgba(0, 0, 0, 255)" width="16" height="16" /></g><g id="FB3BA86D-2F5F-4839-A774-46692B35C729"><rect height="16" width="16" y="208" fill="rgba(0, 0, 0, 255)" x="160" /><rect height="16" width="16" y="224" fill="rgba(0, 0, 0, 255)" x="160" /></g><g id="00101BAE-9E16-4C72-8124-AA9E5330253C"><rect y="192" height="16" width="16" x="176" fill="rgba(0, 0, 0, 255)" /></g><g id="9994BAB5-4797-4CA7-BE16-1DE649DF892A"><rect x="176" y="240" width="16" height="16" fill="rgba(0, 0, 0, 255)" /><rect x="192" y="240" width="16" height="16" fill="rgba(0, 0, 0, 255)" /><rect fill="rgba(0, 0, 0, 255)" y="224" width="16" x="192" height="16" /><rect x="192" width="16" y="256" height="16" fill="rgba(0, 0, 0, 255)" /><rect x="208" height="16" width="16" fill="rgba(0, 0, 0, 255)" y="240" /><rect width="16" y="224" height="16" fill="rgba(0, 0, 0, 255)" x="208" /><rect x="208" fill="rgba(0, 0, 0, 255)" width="16" y="256" height="16" /><rect x="224" fill="rgba(0, 0, 0, 255)" width="16" y="240" height="16" /><rect height="16" x="208" y="208" fill="rgba(0, 0, 0, 255)" width="16" /><rect x="224" height="16" fill="rgba(0, 0, 0, 255)" y="224" width="16" /><rect width="16" y="256" height="16" x="224" fill="rgba(0, 0, 0, 255)" /><rect x="240" height="16" fill="rgba(0, 0, 0, 255)" y="240" width="16" /><rect y="192" fill="rgba(0, 0, 0, 255)" height="16" width="16" x="208" /><rect y="240" fill="rgba(0, 0, 0, 255)" height="16" width="16" x="256" /><rect height="16" fill="rgba(0, 0, 0, 255)" x="208" y="176" width="16" /><rect x="192" y="176" width="16" height="16" fill="rgba(0, 0, 0, 255)" /><rect y="160" width="16" fill="rgba(0, 0, 0, 255)" x="208" height="16" /></g><g id="13B103D0-4AEF-40D8-8A81-746938B34042"><rect fill="rgba(0, 0, 0, 255)" y="464" x="176" width="16" height="16" /></g><g id="0A18460C-2F51-47C3-B7FA-3B33D2F4FF14"><rect x="192" y="16" width="16" height="16" fill="rgba(0, 0, 0, 255)" /></g><g id="170CC60A-EB76-4D34-BEED-6505F11F5044"><rect height="16" fill="rgba(0, 0, 0, 255)" x="192" y="128" width="16" /><rect height="16" fill="rgba(0, 0, 0, 255)" x="192" y="144" width="16" /></g><g id="0ED2A7A9-0273-491C-8F1C-C4D43DDE09FC"><rect y="32" height="16" fill="rgba(0, 0, 0, 255)" width="16" x="208" /></g><g id="24E0E24F-5EB3-4718-BA7E-EF4C3440CAD1"><rect x="208" fill="rgba(0, 0, 0, 255)" width="16" height="16" y="80" /><rect x="208" fill="rgba(0, 0, 0, 255)" width="16" height="16" y="96" /><rect x="224" fill="rgba(0, 0, 0, 255)" width="16" height="16" y="80" /><rect x="208" y="112" height="16" width="16" fill="rgba(0, 0, 0, 255)" /><rect width="16" height="16" fill="rgba(0, 0, 0, 255)" x="224" y="96" /><rect fill="rgba(0, 0, 0, 255)" x="224" y="64" width="16" height="16" /><rect y="96" fill="rgba(0, 0, 0, 255)" width="16" x="240" height="16" /><rect y="64" fill="rgba(0, 0, 0, 255)" width="16" x="240" height="16" /><rect fill="rgba(0, 0, 0, 255)" x="240" height="16" width="16" y="112" /><rect x="256" y="96" height="16" fill="rgba(0, 0, 0, 255)" width="16" /><rect x="240" y="48" height="16" fill="rgba(0, 0, 0, 255)" width="16" /><rect y="80" width="16" fill="rgba(0, 0, 0, 255)" x="256" height="16" /><rect height="16" y="96" fill="rgba(0, 0, 0, 255)" width="16" x="272" /><rect y="48" fill="rgba(0, 0, 0, 255)" height="16" x="256" width="16" /><rect x="272" width="16" y="80" height="16" fill="rgba(0, 0, 0, 255)" /><rect height="16" x="272" y="112" width="16" fill="rgba(0, 0, 0, 255)" /><rect fill="rgba(0, 0, 0, 255)" x="256" width="16" height="16" y="32" /><rect x="288" y="80" fill="rgba(0, 0, 0, 255)" width="16" height="16" /><rect height="16" width="16" y="128" fill="rgba(0, 0, 0, 255)" x="272" /><rect width="16" height="16" y="64" x="288" fill="rgba(0, 0, 0, 255)" /><rect height="16" x="304" fill="rgba(0, 0, 0, 255)" y="80" width="16" /><rect height="16" fill="rgba(0, 0, 0, 255)" x="272" y="144" width="16" /><rect x="304" y="96" width="16" fill="rgba(0, 0, 0, 255)" height="16" /><rect fill="rgba(0, 0, 0, 255)" height="16" y="80" width="16" x="320" /><rect fill="rgba(0, 0, 0, 255)" height="16" y="160" width="16" x="272" /><rect y="144" width="16" x="288" height="16" fill="rgba(0, 0, 0, 255)" /><rect y="112" x="304" fill="rgba(0, 0, 0, 255)" height="16" width="16" /><rect y="64" x="320" fill="rgba(0, 0, 0, 255)" height="16" width="16" /><rect width="16" height="16" fill="rgba(0, 0, 0, 255)" x="336" y="80" /><rect width="16" height="16" fill="rgba(0, 0, 0, 255)" x="256" y="160" /><rect x="288" width="16" y="160" height="16" fill="rgba(0, 0, 0, 255)" /><rect x="304" width="16" y="128" height="16" fill="rgba(0, 0, 0, 255)" /><rect x="320" width="16" y="48" height="16" fill="rgba(0, 0, 0, 255)" /><rect fill="rgba(0, 0, 0, 255)" x="240" y="160" height="16" width="16" /><rect height="16" fill="rgba(0, 0, 0, 255)" x="256" y="176" width="16" /><rect y="176" fill="rgba(0, 0, 0, 255)" height="16" width="16" x="288" /><rect width="16" x="304" y="160" fill="rgba(0, 0, 0, 255)" height="16" /><rect fill="rgba(0, 0, 0, 255)" x="304" width="16" y="48" height="16" /><rect fill="rgba(0, 0, 0, 255)" x="240" y="144" width="16" height="16" /><rect width="16" fill="rgba(0, 0, 0, 255)" height="16" x="240" y="176" /><rect y="192" width="16" height="16" fill="rgba(0, 0, 0, 255)" x="256" /><rect fill="rgba(0, 0, 0, 255)" height="16" x="304" y="176" width="16" /><rect fill="rgba(0, 0, 0, 255)" height="16" x="320" y="160" width="16" /><rect height="16" fill="rgba(0, 0, 0, 255)" y="144" width="16" x="224" /><rect x="320" height="16" width="16" y="144" fill="rgba(0, 0, 0, 255)" /><rect x="336" height="16" width="16" y="160" fill="rgba(0, 0, 0, 255)" /><rect height="16" fill="rgba(0, 0, 0, 255)" x="336" y="176" width="16" /><rect height="16" fill="rgba(0, 0, 0, 255)" x="336" y="192" width="16" /><rect width="16" fill="rgba(0, 0, 0, 255)" height="16" x="352" y="176" /><rect width="16" x="336" y="208" height="16" fill="rgba(0, 0, 0, 255)" /><rect width="16" x="352" y="192" height="16" fill="rgba(0, 0, 0, 255)" /><rect y="224" width="16" fill="rgba(0, 0, 0, 255)" x="336" height="16" /><rect fill="rgba(0, 0, 0, 255)" width="16" x="352" y="208" height="16" /><rect width="16" x="368" y="192" fill="rgba(0, 0, 0, 255)" height="16" /><rect fill="rgba(0, 0, 0, 255)" y="224" x="320" height="16" width="16" /><rect x="304" width="16" fill="rgba(0, 0, 0, 255)" y="224" height="16" /><rect width="16" x="288" height="16" y="224" fill="rgba(0, 0, 0, 255)" /><rect height="16" fill="rgba(0, 0, 0, 255)" width="16" y="208" x="304" /><rect fill="rgba(0, 0, 0, 255)" width="16" y="224" height="16" x="272" /><rect width="16" y="208" height="16" x="288" fill="rgba(0, 0, 0, 255)" /><rect width="16" y="240" height="16" x="288" fill="rgba(0, 0, 0, 255)" /></g><g id="60835CB3-F3D9-4E7D-B45E-67693C8FA1E1"><rect y="464" height="16" fill="rgba(0, 0, 0, 255)" width="16" x="208" /></g><g id="0AC2ADE6-22CC-4345-9A3A-871E3EF95A39"><rect y="432" height="16" fill="rgba(0, 0, 0, 255)" width="16" x="224" /></g><g id="BEF24BE7-0071-47BE-97A3-2BEF879756B2"><rect y="272" height="16" fill="rgba(0, 0, 0, 255)" width="16" x="240" /></g><g id="E3971D18-10D7-424F-A651-B412B9165BFC"><rect width="16" y="320" x="240" height="16" fill="rgba(0, 0, 0, 255)" /><rect width="16" fill="rgba(0, 0, 0, 255)" y="320" height="16" x="256" /><rect fill="rgba(0, 0, 0, 255)" x="256" height="16" width="16" y="304" /><rect height="16" x="272" fill="rgba(0, 0, 0, 255)" y="320" width="16" /><rect width="16" height="16" fill="rgba(0, 0, 0, 255)" y="304" x="272" /><rect fill="rgba(0, 0, 0, 255)" y="336" x="272" width="16" height="16" /><rect width="16" height="16" y="288" fill="rgba(0, 0, 0, 255)" x="272" /><rect x="288" y="304" width="16" height="16" fill="rgba(0, 0, 0, 255)" /><rect y="336" fill="rgba(0, 0, 0, 255)" x="288" width="16" height="16" /><rect fill="rgba(0, 0, 0, 255)" y="272" x="272" height="16" width="16" /><rect y="288" width="16" fill="rgba(0, 0, 0, 255)" height="16" x="288" /><rect fill="rgba(0, 0, 0, 255)" height="16" y="352" x="288" width="16" /><rect width="16" y="272" height="16" x="288" fill="rgba(0, 0, 0, 255)" /><rect x="304" y="352" fill="rgba(0, 0, 0, 255)" height="16" width="16" /><rect width="16" height="16" fill="rgba(0, 0, 0, 255)" y="272" x="304" /></g><g id="F26AB484-E2BF-4065-A787-3D886D8456D4"><rect width="16" y="400" x="240" height="16" fill="rgba(0, 0, 0, 255)" /><rect x="256" y="400" height="16" fill="rgba(0, 0, 0, 255)" width="16" /></g><g id="0E265039-4BD0-4CE0-AAB2-2E932A9C45BE"><rect y="448" height="16" fill="rgba(0, 0, 0, 255)" width="16" x="240" /></g><g id="2362C3A0-5007-48E0-BBDC-E35CB56842C2"><rect y="432" height="16" fill="rgba(0, 0, 0, 255)" width="16" x="256" /></g><g id="B83E88B6-3A94-4776-B6E5-4EBE434CC83A"><rect height="16" y="16" x="272" fill="rgba(0, 0, 0, 255)" width="16" /><rect width="16" y="16" height="16" x="288" fill="rgba(0, 0, 0, 255)" /><rect x="288" fill="rgba(0, 0, 0, 255)" height="16" y="32" width="16" /><rect fill="rgba(0, 0, 0, 255)" width="16" y="16" x="304" height="16" /><rect fill="rgba(0, 0, 0, 255)" y="16" width="16" height="16" x="320" /></g><g id="D2E7B7C6-10EE-4C23-AB47-89B5FBDBEAF6"><rect y="416" x="272" height="16" width="16" fill="rgba(0, 0, 0, 255)" /></g><g id="69338227-7289-4FF1-A9A0-C22D53ED2830"><rect y="448" height="16" width="16" fill="rgba(0, 0, 0, 255)" x="272" /></g><g id="F154D9BE-5516-4623-88A9-C807527C7975"><rect y="400" height="16" width="16" fill="rgba(0, 0, 0, 255)" x="288" /></g><g id="71FCC40F-D5E9-4A30-B568-1292C098CA7C"><rect y="464" height="16" width="16" fill="rgba(0, 0, 0, 255)" x="288" /></g><g id="2F409514-5214-40F5-AB12-3EC3EC5AD0C5"><rect y="384" height="16" width="16" fill="rgba(0, 0, 0, 255)" x="304" /><rect height="16" fill="rgba(0, 0, 0, 255)" width="16" y="384" x="320" /><rect y="368" x="320" width="16" height="16" fill="rgba(0, 0, 0, 255)" /><rect x="336" y="384" height="16" width="16" fill="rgba(0, 0, 0, 255)" /><rect width="16" fill="rgba(0, 0, 0, 255)" y="368" x="336" height="16" /><rect x="336" width="16" y="400" height="16" fill="rgba(0, 0, 0, 255)" /><rect width="16" x="336" height="16" y="352" fill="rgba(0, 0, 0, 255)" /><rect width="16" y="416" height="16" fill="rgba(0, 0, 0, 255)" x="336" /><rect width="16" x="352" height="16" fill="rgba(0, 0, 0, 255)" y="400" /><rect y="336" width="16" height="16" x="336" fill="rgba(0, 0, 0, 255)" /><rect height="16" width="16" y="432" fill="rgba(0, 0, 0, 255)" x="336" /><rect y="416" width="16" height="16" x="352" fill="rgba(0, 0, 0, 255)" /><rect width="16" fill="rgba(0, 0, 0, 255)" height="16" x="368" y="400" /><rect width="16" height="16" fill="rgba(0, 0, 0, 255)" x="336" y="320" /><rect height="16" width="16" x="352" y="336" fill="rgba(0, 0, 0, 255)" /><rect height="16" y="432" width="16" x="320" fill="rgba(0, 0, 0, 255)" /><rect y="448" x="336" width="16" height="16" fill="rgba(0, 0, 0, 255)" /><rect y="400" x="384" width="16" fill="rgba(0, 0, 0, 255)" height="16" /><rect y="304" x="336" width="16" fill="rgba(0, 0, 0, 255)" height="16" /><rect x="352" y="320" width="16" height="16" fill="rgba(0, 0, 0, 255)" /><rect x="368" width="16" height="16" fill="rgba(0, 0, 0, 255)" y="336" /><rect y="432" width="16" fill="rgba(0, 0, 0, 255)" x="304" height="16" /><rect fill="rgba(0, 0, 0, 255)" height="16" y="400" width="16" x="400" /><rect height="16" y="288" fill="rgba(0, 0, 0, 255)" x="336" width="16" /><rect width="16" height="16" x="352" y="304" fill="rgba(0, 0, 0, 255)" /><rect width="16" y="320" height="16" x="368" fill="rgba(0, 0, 0, 255)" /><rect height="16" width="16" y="336" x="384" fill="rgba(0, 0, 0, 255)" /><rect y="416" width="16" x="304" height="16" fill="rgba(0, 0, 0, 255)" /><rect height="16" x="400" y="384" fill="rgba(0, 0, 0, 255)" width="16" /><rect x="320" y="288" height="16" width="16" fill="rgba(0, 0, 0, 255)" /><rect fill="rgba(0, 0, 0, 255)" height="16" y="336" x="400" width="16" /><rect y="368" x="400" height="16" width="16" fill="rgba(0, 0, 0, 255)" /><rect height="16" fill="rgba(0, 0, 0, 255)" width="16" x="400" y="320" /><rect fill="rgba(0, 0, 0, 255)" y="352" width="16" height="16" x="400" /><rect fill="rgba(0, 0, 0, 255)" y="368" height="16" x="416" width="16" /><rect height="16" fill="rgba(0, 0, 0, 255)" x="416" width="16" y="352" /><rect width="16" fill="rgba(0, 0, 0, 255)" x="432" y="368" height="16" /><rect width="16" x="432" y="352" height="16" fill="rgba(0, 0, 0, 255)" /><rect x="432" y="336" width="16" height="16" fill="rgba(0, 0, 0, 255)" /><rect x="448" y="352" height="16" fill="rgba(0, 0, 0, 255)" width="16" /><rect fill="rgba(0, 0, 0, 255)" height="16" y="336" x="448" width="16" /><rect y="352" fill="rgba(0, 0, 0, 255)" width="16" x="464" height="16" /><rect fill="rgba(0, 0, 0, 255)" height="16" x="448" width="16" y="320" /><rect x="464" y="336" fill="rgba(0, 0, 0, 255)" width="16" height="16" /></g><g id="8FD00086-6703-42B2-8D45-40970CEF9FD0"><rect y="32" height="16" width="16" fill="rgba(0, 0, 0, 255)" x="336" /></g><g id="29AE0442-4090-4D8A-88F0-618A7B3E7074"><rect y="112" height="16" width="16" fill="rgba(0, 0, 0, 255)" x="336" /></g><g id="F006B9B5-686F-460B-8FF4-36826CBFA319"><rect y="256" height="16" width="16" fill="rgba(0, 0, 0, 255)" x="336" /><rect y="256" width="16" x="352" height="16" fill="rgba(0, 0, 0, 255)" /><rect x="352" height="16" width="16" fill="rgba(0, 0, 0, 255)" y="240" /><rect y="272" fill="rgba(0, 0, 0, 255)" width="16" x="352" height="16" /></g><g id="6E6C713B-0A4D-447D-ABA9-97848F87C2C4"><rect height="16" fill="rgba(0, 0, 0, 255)" y="16" x="368" width="16" /><rect width="16" x="368" y="32" height="16" fill="rgba(0, 0, 0, 255)" /><rect width="16" x="384" y="16" height="16" fill="rgba(0, 0, 0, 255)" /><rect y="48" height="16" x="368" width="16" fill="rgba(0, 0, 0, 255)" /><rect width="16" fill="rgba(0, 0, 0, 255)" y="16" height="16" x="400" /><rect width="16" fill="rgba(0, 0, 0, 255)" y="64" height="16" x="368" /><rect y="16" height="16" x="416" width="16" fill="rgba(0, 0, 0, 255)" /><rect width="16" height="16" fill="rgba(0, 0, 0, 255)" x="368" y="80" /><rect width="16" height="16" y="16" x="432" fill="rgba(0, 0, 0, 255)" /><rect y="96" fill="rgba(0, 0, 0, 255)" width="16" x="368" height="16" /><rect width="16" fill="rgba(0, 0, 0, 255)" x="448" height="16" y="16" /><rect x="368" y="112" width="16" height="16" fill="rgba(0, 0, 0, 255)" /><rect fill="rgba(0, 0, 0, 255)" y="16" width="16" height="16" x="464" /><rect x="384" y="112" width="16" height="16" fill="rgba(0, 0, 0, 255)" /><rect x="464" width="16" height="16" y="32" fill="rgba(0, 0, 0, 255)" /><rect y="112" x="400" width="16" fill="rgba(0, 0, 0, 255)" height="16" /><rect x="464" y="48" fill="rgba(0, 0, 0, 255)" width="16" height="16" /><rect fill="rgba(0, 0, 0, 255)" y="112" height="16" x="416" width="16" /><rect height="16" y="64" fill="rgba(0, 0, 0, 255)" x="464" width="16" /><rect height="16" y="112" fill="rgba(0, 0, 0, 255)" x="432" width="16" /><rect height="16" y="80" fill="rgba(0, 0, 0, 255)" x="464" width="16" /><rect width="16" height="16" x="448" y="112" fill="rgba(0, 0, 0, 255)" /><rect width="16" y="96" height="16" x="464" fill="rgba(0, 0, 0, 255)" /><rect height="16" width="16" y="112" x="464" fill="rgba(0, 0, 0, 255)" /></g><g id="5DD34786-BE27-48C7-8917-B00254D78CBE"><rect y="144" width="16" x="368" height="16" fill="rgba(0, 0, 0, 255)" /><rect y="160" x="368" height="16" fill="rgba(0, 0, 0, 255)" width="16" /><rect width="16" height="16" fill="rgba(0, 0, 0, 255)" x="384" y="144" /><rect x="400" width="16" height="16" fill="rgba(0, 0, 0, 255)" y="144" /><rect height="16" fill="rgba(0, 0, 0, 255)" y="160" x="400" width="16" /><rect width="16" x="416" fill="rgba(0, 0, 0, 255)" y="144" height="16" /><rect height="16" fill="rgba(0, 0, 0, 255)" y="144" width="16" x="432" /></g><g id="3FF71177-CD78-4F96-B2F8-81301E23AD4F"><rect width="16" height="16" fill="rgba(0, 0, 0, 255)" x="368" y="224" /><rect width="16" x="384" y="224" height="16" fill="rgba(0, 0, 0, 255)" /><rect y="208" fill="rgba(0, 0, 0, 255)" x="384" width="16" height="16" /><rect y="240" x="384" fill="rgba(0, 0, 0, 255)" width="16" height="16" /><rect fill="rgba(0, 0, 0, 255)" x="400" width="16" height="16" y="224" /><rect fill="rgba(0, 0, 0, 255)" height="16" y="256" x="384" width="16" /></g><g id="A1D37BD6-D670-456F-B85A-1642C684DC7F"><rect x="368" width="16" y="288" height="16" fill="rgba(0, 0, 0, 255)" /><rect height="16" x="384" fill="rgba(0, 0, 0, 255)" width="16" y="288" /><rect x="400" height="16" width="16" fill="rgba(0, 0, 0, 255)" y="288" /></g><g id="B9F5A686-5CE9-4ADB-AEF7-B4F8E8B2142A"><rect width="16" fill="rgba(0, 0, 0, 255)" y="368" height="16" x="368" /></g><g id="040E14C3-A6E7-49BC-A179-22A4F4BB69E2"><rect height="16" y="432" fill="rgba(0, 0, 0, 255)" x="368" width="16" /><rect x="384" height="16" fill="rgba(0, 0, 0, 255)" y="432" width="16" /><rect x="384" y="448" height="16" fill="rgba(0, 0, 0, 255)" width="16" /><rect x="400" fill="rgba(0, 0, 0, 255)" width="16" height="16" y="432" /><rect y="464" width="16" height="16" fill="rgba(0, 0, 0, 255)" x="384" /><rect x="416" width="16" y="432" height="16" fill="rgba(0, 0, 0, 255)" /><rect width="16" height="16" y="416" fill="rgba(0, 0, 0, 255)" x="416" /><rect y="448" fill="rgba(0, 0, 0, 255)" width="16" x="416" height="16" /><rect width="16" y="432" fill="rgba(0, 0, 0, 255)" x="432" height="16" /><rect y="416" width="16" x="432" fill="rgba(0, 0, 0, 255)" height="16" /><rect x="448" y="432" width="16" height="16" fill="rgba(0, 0, 0, 255)" /><rect height="16" y="400" fill="rgba(0, 0, 0, 255)" x="432" width="16" /><rect height="16" y="416" fill="rgba(0, 0, 0, 255)" x="448" width="16" /><rect width="16" height="16" x="448" y="448" fill="rgba(0, 0, 0, 255)" /><rect width="16" y="416" height="16" x="464" fill="rgba(0, 0, 0, 255)" /></g><g id="9FD2FA5E-E170-4922-9A4E-D6635557E1CF"><rect height="16" y="48" x="400" width="16" fill="rgba(0, 0, 0, 255)" /><rect height="16" y="64" fill="rgba(0, 0, 0, 255)" x="400" width="16" /><rect x="416" height="16" fill="rgba(0, 0, 0, 255)" y="48" width="16" /><rect x="400" y="80" height="16" fill="rgba(0, 0, 0, 255)" width="16" /><rect x="416" fill="rgba(0, 0, 0, 255)" width="16" height="16" y="64" /><rect y="48" width="16" height="16" fill="rgba(0, 0, 0, 255)" x="432" /><rect x="416" width="16" y="80" height="16" fill="rgba(0, 0, 0, 255)" /><rect width="16" height="16" y="64" fill="rgba(0, 0, 0, 255)" x="432" /><rect y="80" fill="rgba(0, 0, 0, 255)" width="16" x="432" height="16" /></g><g id="E1A91094-922C-41E2-8DC2-626161E12AF4"><rect width="16" fill="rgba(0, 0, 0, 255)" y="192" height="16" x="400" /><rect height="16" y="192" fill="rgba(0, 0, 0, 255)" x="416" width="16" /><rect x="416" height="16" fill="rgba(0, 0, 0, 255)" y="208" width="16" /><rect x="432" y="208" height="16" fill="rgba(0, 0, 0, 255)" width="16" /></g><g id="3959D918-65EF-485A-B3AC-AFF9D3F4E709"><rect height="16" y="240" fill="rgba(0, 0, 0, 255)" x="416" width="16" /><rect x="432" height="16" fill="rgba(0, 0, 0, 255)" width="16" y="240" /></g><g id="3F5DA45F-DA8D-4BF1-A0A4-822B98282E42"><rect x="416" height="16" y="272" fill="rgba(0, 0, 0, 255)" width="16" /><rect height="16" x="432" y="272" fill="rgba(0, 0, 0, 255)" width="16" /><rect y="288" width="16" fill="rgba(0, 0, 0, 255)" x="432" height="16" /><rect height="16" width="16" fill="rgba(0, 0, 0, 255)" y="304" x="432" /></g><g id="ED42FFD7-E7DE-4EA2-8196-87F080F335B3"><rect height="16" y="464" x="432" fill="rgba(0, 0, 0, 255)" width="16" /></g><g id="4842F60E-E88A-492B-8741-CF971E5F4A4B"><rect height="16" y="192" x="448" fill="rgba(0, 0, 0, 255)" width="16" /></g><g id="A2B90999-0523-4270-9C9E-C12909DEAEB8"><rect height="16" y="256" x="448" fill="rgba(0, 0, 0, 255)" width="16" /></g><g id="63A8F433-1EF1-4FFE-B76F-01EF7DDF40A9"><rect height="16" y="160" x="464" fill="rgba(0, 0, 0, 255)" width="16" /></g><g id="4BA1DD00-FC02-4A13-9A8F-296A8B52D651"><rect height="16" y="224" x="464" fill="rgba(0, 0, 0, 255)" width="16" /></g><g id="11B9CCB8-E190-4B94-BED6-102D2B37249A"><rect width="16" fill="rgba(0, 0, 0, 255)" height="16" x="464" y="288" /></g><g id="FBE70E56-B54B-4BC3-AA5E-FCC59EB1A924"><rect width="16" fill="rgba(0, 0, 0, 255)" height="16" x="464" y="384" /></g></svg>