<?xml version="1.0" encoding="utf-8"?>
<!-- Generator: Adobe Illustrator 15.1.0, SVG Export Plug-In . SVG Version: 6.00 Build 0)  -->
<!DOCTYPE svg PUBLIC "-//W3C//DTD SVG 1.1//EN" "http://www.w3.org/Graphics/SVG/1.1/DTD/svg11.dtd">
<svg version="1.1" id="Ebene_1" xmlns="http://www.w3.org/2000/svg" xmlns:xlink="http://www.w3.org/1999/xlink" x="0px" y="0px"
	 width="807.871px" height="666.141px" viewBox="0 0 807.871 666.141" enable-background="new 0 0 807.871 666.141"
	 xml:space="preserve">
<g>
	<path fill="#004493" d="M171.692,425.062c36.577,93.104,130.059,159.014,236.138,159.014c106.295,0,197.135-66.176,233.562-159.571
		l73.529,0.043c-39.24,132.479-161.885,229.141-307.092,229.141c-144.998,0-268.184-96.438-307.607-228.623h71.47V425.062
		L171.692,425.062z"/>
	<path fill="#004493" d="M171.203,250.712c34.183-97.75,127.216-167.867,236.626-167.867c109.545,0,202.67,70.275,236.744,168.2
		l72.701-0.324C680.792,113.969,556.082,13.232,407.83,13.232c-148.188,0-272.875,100.667-309.396,237.349L171.203,250.712"/>
</g>
<g>
	<g>
		<g>
			<rect x="618.82" y="256.775" fill="#004493" width="179.18" height="9.84"/>
			<rect x="618.82" y="272.238" fill="#004493" width="179.18" height="9.845"/>
			<rect x="618.82" y="287.706" fill="#004493" width="179.18" height="9.84"/>
			<rect x="618.82" y="303.175" fill="#004493" width="179.18" height="9.837"/>
			<rect x="618.82" y="318.639" fill="#004493" width="179.18" height="9.84"/>
			<rect x="618.82" y="334.102" fill="#004493" width="179.18" height="9.842"/>
			<rect x="618.82" y="349.569" fill="#004493" width="179.18" height="9.841"/>
			<rect x="618.82" y="365.035" fill="#004493" width="179.18" height="9.841"/>
			<rect x="618.82" y="380.504" fill="#004493" width="179.18" height="9.838"/>
			<rect x="618.82" y="395.963" fill="#004493" width="179.18" height="9.846"/>
			<rect x="618.82" y="411.431" fill="#004493" width="179.18" height="9.836"/>
		</g>
		<g>
			<rect x="17.838" y="256.775" fill="#004493" width="179.188" height="9.84"/>
			<rect x="17.838" y="272.238" fill="#004493" width="179.188" height="9.845"/>
			<rect x="17.838" y="287.706" fill="#004493" width="179.188" height="9.84"/>
			<rect x="17.838" y="303.175" fill="#004493" width="179.188" height="9.837"/>
			<rect x="17.838" y="318.639" fill="#004493" width="179.188" height="9.84"/>
			<rect x="17.838" y="334.102" fill="#004493" width="179.188" height="9.842"/>
			<rect x="17.838" y="349.569" fill="#004493" width="179.188" height="9.841"/>
			<rect x="17.838" y="365.035" fill="#004493" width="179.188" height="9.841"/>
			<rect x="17.838" y="380.504" fill="#004493" width="179.188" height="9.838"/>
			<rect x="17.838" y="395.963" fill="#004493" width="179.188" height="9.846"/>
			<rect x="17.838" y="411.431" fill="#004493" width="179.188" height="9.836"/>
		</g>
	</g>
</g>
<polygon fill="#004493" points="524.212,517.785 524.212,506.994 398.66,418.289 398.66,429.072 "/>
<path fill="#004493" d="M456.841,475.689l-12.891-8.848l-81.343,0.092c-17.671,0-32.076-14.51-32.076-32.504v-58.722
	c0-17.979,14.406-32.484,32.076-32.484h89.46c17.635,0,32.061,14.506,32.061,32.484l-0.08,64.914l8.853,6.322l0.041-71.236
	c0-22.758-18.275-41.31-40.873-41.31h-89.46c-22.632,0-40.887,18.552-40.887,41.31v58.722c0,22.771,18.255,41.312,40.887,41.312
	L456.841,475.689z"/>
<polygon fill="#004493" points="524.212,501.402 524.212,490.611 398.66,401.938 398.66,412.713 "/>
<path fill="#004493" d="M469.363,385.916l0.041-9.797c0-10.155-8.131-18.293-18.029-18.293h-88.096
	c-9.909,0-18.029,8.138-18.029,18.293v57.925c0,10.145,8.12,18.286,18.029,18.286l60.012-0.014l12.678,8.734l-72.689,0.088
	c-14.874,0-26.831-12.185-26.831-27.099v-57.922c0-14.924,11.958-27.105,26.831-27.105h88.095c14.877,0,26.84,12.184,26.84,27.105
	l-0.174,60.017l-8.744-5.9l0.014-7.391h-18.1l73.002,51.537v10.793L398.66,396.521v-1.781v-8.824v-0.01h0.236l0.021,0.01H469.363
	 M469.335,408.973h-37.764l7.213,5.089v-0.027h30.539L469.335,408.973 M469.351,394.74H411.4l7.695,5.424h50.255V394.74
	L469.351,394.74z"/>
<path fill="#004493" d="M589.166,371.689c0,13.777-5.371,26.703-15.16,36.393c-9.6,9.544-22.367,14.806-35.883,14.806h-31.082
	L507,456.783l-8.744-6.11l0.027-76.852c0-24.62-19.701-44.488-43.918-44.488h-94.083c-24.203,0-43.926,19.868-43.926,44.488v62.52
	c0,24.608,19.723,44.481,43.926,44.481l103.331-0.104l12.901,8.848l-116.232,0.062c-29.179,0-52.729-23.904-52.729-53.287v-13.332
	l-76.482-0.054l-4.4-0.016v-4.406l0.021-118.601h8.815l-0.026,114.209l72.072-0.054v-5.255l-62.17,0.091h-4.408v-4.396v-104.72
	h8.811v100.318l57.768,0.062V394.4l-47.415,0.014h-4.402v-4.395l-0.035-90.214l8.797-0.011l0.032,85.812l43.022-0.025V373.82
	c0-29.386,23.55-53.301,52.729-53.301h8.646v-8.015c0-4.936-1.902-9.563-5.37-13.025c-3.396-3.397-7.878-5.266-12.659-5.266H226.672
	v-8.812H350.9c7.128,0,13.831,2.79,18.89,7.843c5.123,5.13,7.953,11.979,7.953,19.261v8.015h5.908v-8.123
	c0-8.767-3.396-16.974-9.544-23.136c-6.037-6.034-14.041-9.359-22.519-9.359H226.672v-8.811h124.915
	c10.832,0,21.04,4.241,28.743,11.941c7.826,7.818,12.129,18.252,12.129,29.363v8.123h5.365v-10.434
	c0-11.998-4.652-23.255-13.068-31.673c-8.265-8.271-19.229-12.826-30.862-12.826H226.672v-8.812h127.222
	c13.976,0,27.151,5.469,37.084,15.414c10.097,10.084,15.657,23.539,15.657,37.897v10.434h5.814
	c-0.947-3.959-1.443-8.015-1.443-12.141c0-28.452,22.896-51.604,51.029-51.604h126.764v8.812H462.035
	c-11.162,0-21.701,4.375-29.654,12.336c-8.117,8.103-12.584,18.917-12.584,30.456c0,4.149,0.617,8.206,1.77,12.141h5.574
	c-1.227-3.801-1.873-7.784-1.873-11.799c0-20.75,16.711-37.629,37.23-37.629h126.301v8.811H462.496
	c-7.519,0-14.604,2.951-19.959,8.302c-5.467,5.462-8.457,12.74-8.457,20.517c0,4.063,0.854,8.11,2.488,11.799h6.159
	c-2.219-3.58-3.44-7.773-3.44-12.127c0-12.665,10.197-22.964,22.731-22.964h126.777v8.794H462.021c-3.687,0-7.166,1.45-9.775,4.065
	c-2.693,2.693-4.16,6.271-4.16,10.104c0,4.967,2.598,9.547,6.771,12.105h83.268c13.516,0,26.283,5.255,35.883,14.797
	C583.794,344.984,589.166,357.91,589.166,371.689 M501.003,348.942h37.094c6.037,0,11.72,2.347,16.019,6.597
	c4.322,4.302,6.715,10.06,6.715,16.175c0,6.127-2.393,11.873-6.715,16.182c-4.299,4.255-9.98,6.6-16.019,6.6h-31.028v5.892h30.512
	c15.689,0,28.416-12.82,28.416-28.594c0-7.693-2.99-14.933-8.441-20.346c-5.371-5.312-12.44-8.234-19.975-8.234h-40.057
	C498.8,345.042,499.955,346.949,501.003,348.942 M507.093,373.821l-0.014,11.938h31.018c7.683,0,13.937-6.312,13.937-14.047
	c0-3.802-1.467-7.334-4.16-10c-2.623-2.605-6.105-4.029-9.775-4.029h-33.475C506.226,362.777,507.093,368.199,507.093,373.821
	 M580.369,371.689c0-11.443-4.475-22.171-12.564-30.21c-7.953-7.899-18.506-12.248-29.682-12.248h-54.891
	c2.379,1.578,4.623,3.313,6.717,5.244h47.629c9.873,0,19.186,3.837,26.188,10.784c7.125,7.065,11.043,16.504,11.043,26.528
	c0,10.048-3.918,19.468-11.043,26.529c-7.004,6.961-16.313,10.799-26.188,10.799h-30.525l-0.012,5.023h31.082
	C561.429,414.142,580.369,395.097,580.369,371.689z"/>
<g>
	<path fill-rule="evenodd" clip-rule="evenodd" fill="#FFFFFF" d="M374.169,23.815c6.565-1.3,8.083,8.545,2.636,10.105
		C370.186,35.816,367.625,25.11,374.169,23.815z"/>
	<path fill-rule="evenodd" clip-rule="evenodd" fill="#FFFFFF" d="M362.965,38.533c8.141-1.925,8.853,8.244,1.318,8.128
		c-0.069,5.222,3.054,12.772,2.855,18.454c-0.101,2.869-2.358,5.801-5.931,4.393c-0.987-0.389-2.255-2.479-2.637-3.735
		c-1.636-5.398-1.271-12.556-3.075-17.573c-6.564,1.663-7.381-7.873-1.318-8.129c-1.449-5.179-0.976-13.377,5.272-10.764
		C362.287,30.493,361.822,35.213,362.965,38.533z"/>
	<path fill-rule="evenodd" clip-rule="evenodd" fill="#FFFFFF" d="M484.228,33.92c4.646-0.457,16.631,1.905,14.938,9.227
		c-0.276,1.191-1.583,2.402-2.636,2.635c-4.385,0.969-7.406-4.879-11.864-3.294c-1.156,0.41-2.281,1.365-2.195,3.294
		c0.089,2.043,2.853,3.278,4.833,4.614c3.948,2.661,8.951,6.315,8.786,12.741c-0.214,8.27-7.04,13.849-15.816,12.961
		c-5.617-0.569-13.736-4.396-13.621-9.446c0.051-2.072,1.327-3.312,2.856-3.735c5.092-1.409,8.098,5.394,13.399,4.614
		c1.693-0.25,3.511-1.332,3.517-4.173c0.008-4.972-8.203-7.001-11.205-10.545C469.047,45.523,475.296,34.799,484.228,33.92z"/>
	<path fill-rule="evenodd" clip-rule="evenodd" fill="#FFFFFF" d="M398.773,34.579c5.503-0.734,10.173,1.038,12.961,3.955
		c3.83,4.009,5.995,14.474,1.977,21.309c-4.209,7.158-15.329,9.432-22.188,3.295C382.174,54.772,386.304,36.241,398.773,34.579z
		 M402.508,58.085c6.449-1.211,6.307-16.894-2.417-15.158C392.817,44.374,394.412,59.605,402.508,58.085z"/>
	<path fill-rule="evenodd" clip-rule="evenodd" fill="#FFFFFF" d="M429.747,38.094c6.821-4.64,17.346-1.635,17.573,8.567
		c0.084,3.688-0.557,7.363-0.878,11.423c-0.329,4.167-0.204,9.927-4.613,10.105c-10.777,0.436,3.303-25.595-8.347-24.824
		c-6.611,0.438-4.232,14.763-5.713,19.771c-0.734,2.491-2.689,4.054-6.37,3.075c-2.903-1.56-1.808-7.544-1.317-12.96
		c0.473-5.246,0.301-10.639,1.099-14.06C422.167,34.958,427.718,33.698,429.747,38.094z"/>
	<path fill-rule="evenodd" clip-rule="evenodd" fill="#FFFFFF" d="M376.585,36.556c4.959-0.113,4.52,7.77,5.053,13.181
		c0.507,5.14,1.83,9.93,1.538,13.401c-0.278,3.293-3.771,6.643-7.03,3.734c-2.147-1.916-2.085-8.854-2.636-13.62
		C372.775,46.892,369.917,36.709,376.585,36.556z"/>
	<path fill-rule="evenodd" clip-rule="evenodd" fill="#FFFFFF" d="M344.073,70.826c-1.319,3.271-6.31,5.627-10.325,5.272
		c-14.916-1.314-18.545-27.951-3.734-31.634c2.415-0.601,5.127-0.206,7.25,1.318c1.201-2.256,3.814-5.816,7.25-3.075
		c1.756,1.401,2.873,6.826,4.173,11.643c1.476,5.47,2.748,9.179,3.077,12.742C352.281,72.723,347.018,74.003,344.073,70.826z
		 M334.187,66.872c8.989,2.467,7.483-11.46,2.856-13.84c-0.828-0.425-1.629-0.541-2.856-0.439
		C326.336,53.244,329.324,65.537,334.187,66.872z"/>
	<path fill-rule="evenodd" clip-rule="evenodd" fill="#FFFFFF" d="M283.441,70.826c-0.174,4.53,1.692,7.591,3.515,11.863
		c1.207,2.827,3.459,6.542,2.417,9.227c-0.56,1.441-2.491,2.588-4.395,2.417c-4.148-0.374-5.837-8.171-7.469-12.082
		c-0.89-2.135-2.048-4.398-3.074-6.811c-0.884-2.076-2.553-5.233-2.198-7.469c0.472-2.974,4.665-4.19,7.25-2.197
		c1.221-0.93,1.358-2.384,2.637-3.515c3.033-2.686,8.32-3.536,12.301-1.318c2.08-4.503,6.647-9.447,12.961-7.909
		c5.545,1.351,7.746,8.377,10.105,14.06c1.22,2.936,3.859,7.958,3.515,10.544c-0.304,2.287-2.907,3.804-5.272,3.295
		c-3.064-0.658-4.4-6.21-5.931-9.885c-1.314-3.154-2.999-9.065-6.371-9.446c-1.874-0.212-3.949,0.941-4.393,3.075
		c-0.796,3.828,1.829,6.842,3.294,10.325c1.607,3.82,5.904,12.909-1.318,12.742c-4.018-0.093-5.283-6.049-6.81-9.666
		C292.493,74.017,288.481,63.438,283.441,70.826z"/>
	<path fill-rule="evenodd" clip-rule="evenodd" fill="#FFFFFF" d="M506.636,69.947c-1.789,4.475,2.969,7.889,7.688,8.128
		c3.305,0.167,8.058-1.464,8.346,2.636c0.265,3.754-4.372,5.025-6.37,5.272c-6.458,0.797-12.462-2.408-14.938-5.272
		c-7.671-8.877-1.904-26.292,10.765-27.241c9.868-0.737,16.828,7.808,15.156,17.135c-0.308,1.73-1.376,5.126-3.075,5.492
		c-1.434,0.31-4.081-1.121-4.613-1.318C515.099,73.111,511.263,71.506,506.636,69.947z M508.832,64.236
		c3.418,1.413,6.682,2.984,10.544,3.954C521.748,61.047,510.721,58.397,508.832,64.236z"/>
	<path fill-rule="evenodd" clip-rule="evenodd" fill="#FFFFFF" d="M540.245,67.092c6.927-1.063,16.956,3.869,15.598,10.325
		c-0.304,1.434-1.94,2.716-3.076,2.856c-4.922,0.603-4.736-5.792-10.764-4.833c-4.803,0.764-9.389,11.209-3.076,14.499
		c3.466,1.806,9.394-0.055,7.47,5.932c-0.853,2.649-4.59,3.52-8.567,2.635c-6.245-1.387-11.844-7.06-11.203-15.158
		C527.279,75.073,533.455,68.133,540.245,67.092z"/>
	<path fill-rule="evenodd" clip-rule="evenodd" fill="#FFFFFF" d="M272.238,101.581c-1.089,2.351-4.391,3.791-7.029,1.538
		c-2.271-1.938-3.831-6.188-6.151-10.105c-2.366-3.993-4.72-7.254-5.931-10.105c-2.021-4.759,1.681-8.577,6.151-6.15
		c1.308-2.382,2.367-5.429,4.833-5.932c3.321-0.677,5.591,1.42,5.711,3.735c0.214,4.099-5.13,5.827-5.272,9.446
		c-0.1,2.561,2.993,6.499,4.175,8.567C270.485,95.657,272.436,97.647,272.238,101.581z"/>
	<path fill-rule="evenodd" clip-rule="evenodd" fill="#FFFFFF" d="M562.434,77.856c5.583-1.664,5.9,4.455,3.735,8.128
		c-1.971,3.337-7.877,9.903-7.689,13.62c0.122,2.422,2.753,4.19,4.611,4.174c3.562-0.033,6.035-5.765,7.691-8.348
		c1.602-2.504,3.756-8.237,7.687-8.348c1.598-0.045,3.831,1.352,4.176,3.076c0.392,1.967-1.293,4.837-1.979,5.931
		c-1.161,1.856-2.199,3.499-3.075,4.833c-3.413,5.196-7.481,13.142-16.256,11.424c-6.178-1.211-12.882-7.294-11.644-14.939
		c0.558-3.438,2.934-6.518,5.272-10.105C557.085,84.049,559.4,78.76,562.434,77.856z"/>
	<path fill-rule="evenodd" clip-rule="evenodd" fill="#FFFFFF" d="M240.385,87.302c8.635-0.92,17.676,6.896,18.013,16.916
		c0.495,14.675-17.083,18.797-25.702,9.886c-2.758-2.851-6.012-8.118-5.272-14.499C228.131,93.499,233.188,88.07,240.385,87.302z
		 M244.119,110.368c9.574,0.465,4.126-17.455-4.393-14.279C232.257,99.018,238.341,110.088,244.119,110.368z"/>
	<path fill-rule="evenodd" clip-rule="evenodd" fill="#FFFFFF" d="M215.341,105.316c2.51-2.294,7.621-3.605,8.787,0
		c0.869,2.682-1.61,4.606-3.295,6.151c1.654,2.816,3.933,5.254,6.371,8.128c2.402,2.832,6.256,5.528,6.15,10.545
		c-1.303,2.708-4.502,3.409-7.249,1.318c-4.289-3.265-8.367-10.96-12.082-14.06c-4.45,4.873-10.872-2.484-5.272-5.932
		c-2.288-3.224-5.643-6.809-5.053-11.423c0.405-3.162,4.019-7.777,8.349-6.81c1.112,0.249,2.607,1.58,2.854,2.855
		c0.599,3.081-2.065,3.113-2.196,5.272C212.588,103.27,214.557,103.823,215.341,105.316z"/>
	<path fill-rule="evenodd" clip-rule="evenodd" fill="#FFFFFF" d="M594.507,101.581c5.657-1.306,11.401,4.749,6.151,8.787
		c-4.827,1.171-6.745-1.977-10.327-1.317c-2.604,0.479-5.276,5.09-6.809,7.03c-2.05,2.591-3.831,6.55-7.248,6.589
		c-1.779,0.021-3.913-1.405-4.176-3.294c-0.516-3.693,4.236-8.109,6.811-11.423c1.431-1.843,2.785-3.548,3.954-5.053
		c1.745-2.244,4.002-6.404,7.029-6.81C593.216,95.643,595.122,98.582,594.507,101.581z"/>
	<path fill-rule="evenodd" clip-rule="evenodd" fill="#FFFFFF" d="M614.936,100.702c1.712-0.401,3.219-0.164,4.175,0.44
		c3.059,1.931,2.33,8.635-1.978,9.446c-2.398,0.451-5.592-0.735-6.15-3.515C610.211,103.24,612.409,101.295,614.936,100.702z"/>
	<path fill-rule="evenodd" clip-rule="evenodd" fill="#FFFFFF" d="M608.125,110.368c1.435-0.095,3.823,1.139,4.176,2.856
		c0.673,3.293-2.216,5.36-3.734,7.03c-3.937,4.322-5.986,7.129-9.888,11.423c-1.569,1.729-3.674,4.354-6.37,4.174
		c-1.382-0.093-3.629-1.358-3.734-3.735c-0.165-3.75,6.318-9.075,8.567-11.643c1.868-2.132,2.843-3.482,4.613-5.492
		C603.347,113.177,605.436,110.548,608.125,110.368z"/>
	<path fill-rule="evenodd" clip-rule="evenodd" fill="#FFFFFF" d="M626.359,126.624c0.444,1.628,2.29,2.484,2.417,4.393
		c0.336,5.049-6.303,4.82-8.349,1.539c-2.24,1.917-4.411,4.41-6.809,6.81c-2.245,2.243-4.625,5.318-7.029,6.59
		c-2.762,1.459-6.937,0.223-6.373-3.955c0.447-3.307,4.082-5.619,6.592-8.128c2.812-2.813,5.326-5.475,7.249-7.469
		c-2.604-2.503-2.225-7.538,1.759-7.689c1.699-0.064,2.632,0.867,3.952,1.757c3.099-1.279,4.316-6.557,9.008-5.492
		c1.351,0.307,2.677,2.161,2.855,3.076C632.436,122.163,627.623,124.299,626.359,126.624z"/>
	<path fill-rule="evenodd" clip-rule="evenodd" fill="#FFFFFF" d="M190.298,131.017c0.771-9.035,9.059-13.52,16.256-9.226
		c2.876,1.715,5.433,5.101,8.347,7.908c2.694,2.595,7.106,5.948,6.811,9.227c-0.159,1.754-2.064,3.364-3.515,3.514
		c-4.193,0.436-6.646-4.209-9.227-6.589c-2.522-2.328-5.526-6.667-9.227-6.371c-2.372,0.19-3.703,1.878-3.954,3.735
		c-0.562,4.154,4.391,7.246,6.59,9.446c2.577,2.577,6.991,5.437,6.59,9.226c-0.153,1.439-1.808,3.344-3.515,3.515
		c-2.746,0.276-4.994-2.487-6.59-3.954c-3.717-3.416-7.173-6.809-10.765-10.325c-1.678-1.643-4.117-4.217-3.954-6.59
		C184.333,131.823,186.98,130.36,190.298,131.017z"/>
	<path fill-rule="evenodd" clip-rule="evenodd" fill="#FFFFFF" d="M628.116,154.304c3.903-0.989,8.677-3.152,12.962-4.614
		c3.267-1.114,8.138-1.286,7.468,3.735c-0.474,3.563-5.882,4.381-9.225,5.492c-7.839,2.604-13.958,4.634-21.748,7.25
		c-3.837,1.288-13.767,6.277-13.621-1.098c0.074-3.712,4.129-4.501,7.468-5.492c1.737-0.515,4.083-0.749,5.272-1.538
		c1.008-0.668,2.212-3.41,3.298-5.492c2.038-3.916,3.702-7.429,5.71-11.423c1.458-2.9,2.588-6.354,5.712-6.81
		c5.533-0.807,5.222,4.592,3.516,7.688C632.592,146.237,630.242,149.557,628.116,154.304z"/>
	<path fill-rule="evenodd" clip-rule="evenodd" fill="#FFFFFF" d="M168.331,136.949c3.918-1.053,7.435,3.286,10.104,5.492
		c4.927,4.074,9.461,7.89,15.158,12.522c2.469,2.007,6.184,4.442,6.151,7.469c-0.021,1.944-1.699,4.021-3.735,4.173
		c-3.363,0.252-6.618-3.663-8.786-5.492c-4.744-4.001-10.669-8.864-15.378-12.741c-2.298-1.891-6.477-3.963-6.371-7.689
		C165.527,138.784,166.477,137.447,168.331,136.949z"/>
	<path fill-rule="evenodd" clip-rule="evenodd" fill="#FFFFFF" d="M576.931,537.643c3.645-0.707,6.055,3.199,8.349,6.15
		c3.586,4.609,7.719,10.252,11.425,14.937c2.116,2.678,7.796,7.653,6.37,12.084c-0.628,1.949-3.362,3.386-5.712,2.854
		c-2.422-0.546-4.452-3.784-5.932-5.711c-4.384-5.707-7.832-9.849-12.521-16.036c-0.522-0.687-1.873-3.224-2.416-3.295
		c-0.682-0.09-1.691,1.522-2.638,1.978c-5.192,2.495-9.009-2.871-5.491-7.029C569.963,541.682,574.991,538.018,576.931,537.643z"/>
	<path fill-rule="evenodd" clip-rule="evenodd" fill="#FFFFFF" d="M241.043,537.863c2.414-0.391,4.847,1.194,5.272,3.074
		c0.891,3.932-3.09,7.585-4.833,9.886c-4.556,6.011-8.173,10.717-12.74,16.696c-1.764,2.306-4.659,6.676-7.47,7.029
		c-2.646,0.333-4.867-1.355-5.271-3.076c-0.893-3.771,2.528-6.94,4.612-9.665c4.421-5.777,8.329-10.559,12.521-16.038
		C235.242,543.018,237.572,538.424,241.043,537.863z"/>
	<path fill-rule="evenodd" clip-rule="evenodd" fill="#FFFFFF" d="M254.664,550.385c1.709-0.223,5.548-0.227,8.568,1.098
		c4.344,1.905,10.937,6.972,9.666,12.303c-0.318,1.332-2.135,2.707-3.296,2.854c-5.743,0.737-6.526-7.592-12.082-7.248
		c-1.733,0.106-3.146,1.107-3.295,3.074c-0.22,2.883,2.665,5.004,4.394,7.249c2.25,2.925,4.252,5.392,4.833,8.789
		c1.45,8.472-6.262,14.926-13.401,14.936c-6.475,0.012-12.762-4.124-16.036-8.126c-2.42-2.959-4.809-10.254,1.098-10.544
		c5.947-0.294,7.839,9.735,13.841,9.444c1.749-0.085,4.02-2.099,4.173-4.174c0.237-3.188-3.106-5.996-4.833-8.127
		c-1.872-2.312-4.141-4.839-4.613-8.128C242.582,556.146,248.499,551.18,254.664,550.385z"/>
	<path fill-rule="evenodd" clip-rule="evenodd" fill="#FFFFFF" d="M555.183,552.582c6.379-1.002,11.231,1.265,14.719,4.172
		c3.944,3.287,10.239,12.335,10.985,19.333c0.808,7.588-1.93,12.803-5.493,15.815c-2.049,1.735-5.008,3.703-9.225,4.175
		c-11.786,1.319-23.771-12.338-24.824-24.823C540.512,561.414,546.105,554.006,555.183,552.582z M555.623,579.601
		c2.565,3.756,6.562,7.975,10.765,7.028c7.745-1.742,4.57-11.471,1.317-16.695c-2.729-4.383-6.419-9.148-11.862-8.127
		C546.979,563.469,552.803,575.469,555.623,579.601z"/>
	<path fill-rule="evenodd" clip-rule="evenodd" fill="#FFFFFF" d="M287.396,568.616c11.173-1.57,20.234,5.588,23.065,12.962
		c4.025,10.484-2.318,24.266-10.104,29.218c-11.381,7.236-30.42,0.057-32.074-14.719c-0.989-8.852,3.542-17.636,7.91-21.968
		C278.853,571.469,282.653,569.284,287.396,568.616z M278.608,594.76c0.286,5.196,4.218,9.991,10.765,9.446
		c7.523-0.628,12.583-11.046,11.861-17.576c-0.642-5.818-5.588-9.224-10.983-8.566C283.674,578.865,278.196,587.225,278.608,594.76z
		"/>
	<path fill-rule="evenodd" clip-rule="evenodd" fill="#FFFFFF" d="M519.815,571.034c7.048-0.896,11.646,1.952,14.938,5.272
		c3.33,3.356,7.403,11.336,8.348,16.476c2.138,11.643-3.75,20.788-13.84,22.408c-11.976,1.922-21.794-10.584-23.724-22.408
		c-1.132-6.919,0.282-12.471,3.514-16.257C511.1,574.127,515.103,571.632,519.815,571.034z M514.981,587.07
		c-0.073,6.114,3.54,13.229,6.811,16.476c4.323,4.288,11.352,2.55,11.863-3.954c0.57-7.247-4.437-15.993-9.007-18.672
		c-1.356-0.797-2.789-1.008-3.954-0.88C516.938,580.452,515.024,583.544,514.981,587.07z"/>
	<path fill-rule="evenodd" clip-rule="evenodd" fill="#FFFFFF" d="M490.378,592.782c-2.402-0.258-4.879,1.147-7.688,1.978
		c-4,1.181-10.901,3.112-10.765-3.077c0.101-4.464,6.122-4.965,10.105-6.15c5.231-1.557,8.534-3.007,12.302-3.294
		c8.731-0.671,5.642,8.411,4.614,15.377c-1.075,7.284-1.914,13.902-3.076,21.747c-0.588,3.965-1.205,7.97-3.294,9.006
		c-2.718,1.352-6.809-0.257-7.251-3.515c-0.365-2.701,0.699-5.87,1.1-8.346C487.654,608.921,489.151,600.235,490.378,592.782z"/>
	<path fill-rule="evenodd" clip-rule="evenodd" fill="#FFFFFF" d="M337.043,585.093c2.311-0.55,4.686,1.007,4.833,3.296
		c0.25,3.895-5.453,7.43-7.689,9.665c-6.066,6.068-10.907,11.128-17.135,17.354c-2.376,2.377-5.825,7.703-9.666,7.469
		c-1.605-0.097-3.327-1.397-3.515-3.295c-0.332-3.335,4.623-6.818,7.25-9.445c5.586-5.588,11.193-11.192,16.696-16.697
		C330.244,591.014,333.685,585.894,337.043,585.093z"/>
	<path fill-rule="evenodd" clip-rule="evenodd" fill="#FFFFFF" d="M347.368,587.947c3.623-0.52,5.951,2.331,5.272,6.812
		c-0.898,5.937-2.67,11.271-4.393,19.331c-1.244,5.813-2.283,16.166-6.591,16.915c-1.811,0.315-4.534-0.744-5.272-2.197
		c-1.391-2.739,0.397-7.774,1.099-10.764c1.697-7.227,2.949-13.812,4.613-20.87C343.048,593.139,343.5,588.506,347.368,587.947z"/>
	<path fill-rule="evenodd" clip-rule="evenodd" fill="#FFFFFF" d="M461.382,624.417c4.404,0.495,9.591-2.444,13.4-1.101
		c1.787,0.632,3.347,3.106,2.416,5.713c-1.113,3.124-8.718,3.709-12.742,4.394c-2.578,0.438-4.781,0.899-7.249,1.317
		c-4.574,0.776-9.291,1.291-9.665-3.074c-0.202-2.331,1.698-4.98,3.295-7.469c3.173-4.949,5.451-8.257,8.127-13.401
		c0.968-1.857,2.899-5.219,2.637-7.91c-0.135-1.38-1.139-4.002-3.954-3.953c-6.715,0.12-1.889,13.203-10.764,10.983
		c-5.214-2.139-2.798-11.209,0-14.716c6.561-8.235,23.422-6.735,24.823,5.491C472.903,611.131,464.671,617.113,461.382,624.417z"/>
	<path fill-rule="evenodd" clip-rule="evenodd" fill="#FFFFFF" d="M369.335,601.348c-0.27,2.515-0.832,4.734-0.878,7.47
		c4.529,1.423,12.154,0.194,12.961,4.832c1.222,7.027-8.528,5.299-13.84,4.175c-1.321,1.755-0.933,5.218-1.537,7.689
		c4.326,2.248,12.645,0.051,14.279,4.612c0.672,1.877-0.03,4.312-1.538,5.273c-2.808,1.79-9.317-0.065-12.083-0.44
		c-4.008-0.544-10.001-0.523-10.764-3.734c-0.56-2.355,0.378-5.936,0.878-9.446c0.928-6.518,1.587-12.718,2.637-19.771
		c0.809-5.448,0.458-10.065,5.712-10.326c1.967-0.097,4.779,0.504,7.468,0.88c3.597,0.502,10.319,0.956,11.644,3.295
		c0.659,1.166,0.65,3.843-0.22,5.052C381.325,604.704,374.161,601.033,369.335,601.348z"/>
	<path fill-rule="evenodd" clip-rule="evenodd" fill="#FFFFFF" d="M405.803,594.099c4.8-0.466,15.513,0.437,15.378,7.03
		c-0.156,7.56-8.718,1.869-13.621,2.197c-13.793,0.922-13.846,29.003,3.075,26.36c2.143-0.333,4.534-2.237,7.031-1.977
		c1.8,0.188,3.311,2.047,3.515,3.515c0.911,6.588-9.861,9.009-17.575,7.689c-10.024-1.715-17.57-10.397-16.476-24.824
		c0.443-5.827,2.446-10.172,5.493-13.62C395.341,597.392,400.155,594.648,405.803,594.099z"/>
</g>
</svg>
