<?xml version="1.0" encoding="UTF-8"?>
<svg id="Layer_1" xmlns="http://www.w3.org/2000/svg" version="1.1" viewBox="0 0 102.4 26">
  <!-- Generator: Adobe Illustrator 29.4.0, SVG Export Plug-In . SVG Version: 2.1.0 Build 152)  -->
  <defs>
    <style>
      .st0 {
        fill: none;
      }
    </style>
  </defs>
  <path class="st0" d="M68.8,3.8v7.1h0c-.9-1.2-2.4-1.6-4-1.6-3.5,0-5.7,3.2-5.7,6.6s2.4,6.4,6.1,6.4,3.2-1,3.8-2h0v1.7h3.5V3.8h-3.8,0ZM66,19c-1.9,0-3.1-1.3-3.1-3.2s1.2-3.2,3.1-3.2,3.1,1.3,3.1,3.2-1.2,3.2-3.1,3.2ZM58,15.9c0-4-2.2-6.5-5.9-6.5s-6.9,2.6-6.9,6.5,3.1,6.5,6.9,6.5,4-.9,5.3-2.5l-2.7-2c-.6.9-1.5,1.5-2.8,1.5s-2.6-1-2.9-2.4h8.9v-1.2h.1ZM49.1,14.5c0-1.2,1-2.4,2.7-2.4s2.4,1.1,2.4,2.4h-5.1ZM26.5,9.4c-1.9,0-3.1,1-3.6,2h0v-1.7h-3.7v12.4h3.8v-6.1c0-1.6.3-3.2,2.3-3.2s2,1.8,2,3.3v6h3.9v-6.8c0-3.3-.7-5.9-4.6-5.9h0ZM46,9.7h-4.7l-4.4,5.1V3.8h-3.8v18.3h3.8v-6.1h0l4.1,6.1h4.8l-4.9-6.7,5-5.7s0,0,.1,0ZM15.1,3.6c-1.2,0-2.2,1-2.2,2.2s1,2.2,2.2,2.2,2.2-1,2.2-2.2-1-2.2-2.2-2.2ZM13.2,9.7v12.4h3.8v-12.4s-3.8,0-3.8,0ZM4,18.4V3.8H0v18.3h11.4v-3.7s-7.4,0-7.4,0Z"/>
  <path class="st0" d="M100.5,0h-22.1c-1.1,0-1.9.8-1.9,1.9v22.2c0,1,.9,1.9,1.9,1.9h22.1c1.1,0,1.9-.8,1.9-1.9V1.9C102.4.9,101.5,0,100.5,0ZM84.2,22.1h-3.9v-12.4h3.9v12.4ZM82.3,8c-1.2,0-2.2-1-2.2-2.2s1-2.2,2.2-2.2,2.2,1,2.2,2.2-1,2.2-2.2,2.2ZM98.6,22.1h-3.8v-6c0-1.4,0-3.3-2-3.3s-2.3,1.6-2.3,3.2v6.1h-3.8v-12.4h3.7v1.7h0c.5-1,1.8-2,3.6-2,3.9,0,4.6,2.6,4.6,5.9v6.8h0Z"/>
</svg>