<svg width="379" height="100" viewBox="0 0 379 100" fill="none" xmlns="http://www.w3.org/2000/svg">
<g clip-path="url(#clip0_1331_66448)">
<g clip-path="url(#clip1_1331_66448)">
<path d="M377.244 69.8571H376.029V95.1643H377.244V69.8571Z" fill="#3B56C4"/>
<path d="M376.028 95.1643H374.821V96.3714H376.028V95.1643Z" fill="#3B56C4"/>
<path d="M376.028 68.65H374.821V69.8571H376.028V68.65Z" fill="#3B56C4"/>
<path d="M374.821 96.3714H227.593V97.5786H374.821V96.3714Z" fill="#3B56C4"/>
<path d="M227.593 97.5786H226.386V98.7929H227.593V97.5786Z" fill="#3B56C4"/>
<path d="M226.386 98.7929V100H223.964V97.5786H221.55V96.3714H225.178V98.7929H226.386Z" fill="#3B56C4"/>
<path d="M374.821 67.4357H221.55V68.65H374.821V67.4357Z" fill="#3B56C4"/>
<path d="M221.55 95.1643H220.336V96.3714H221.55V95.1643Z" fill="#3B56C4"/>
<path d="M221.55 68.65H220.336V69.8571H221.55V68.65Z" fill="#3B56C4"/>
<path d="M376.029 69.8571V95.1643H374.822V96.3714H227.593V97.5786H226.386V98.7929H225.179V96.3714H221.55V95.1643H220.336V69.8571H221.55V68.65H374.822V69.8571H376.029Z" fill="#3B56C4"/>
<path d="M220.336 69.8571H219.129V95.1643H220.336V69.8571Z" fill="#3B56C4"/>
<path d="M170.164 23.4428C168.993 22.8214 168.093 21.9428 167.457 20.8071C166.821 19.6714 166.5 18.35 166.5 16.8428C166.5 15.3357 166.821 14.0143 167.457 12.8786C168.093 11.7428 169 10.8643 170.164 10.2428C171.336 9.62141 172.693 9.30713 174.243 9.30713C175.793 9.30713 177.15 9.62141 178.321 10.2428C179.493 10.8643 180.393 11.7428 181.029 12.8786C181.664 14.0143 181.986 15.3357 181.986 16.8428C181.986 18.35 181.664 19.6714 181.029 20.8071C180.393 21.9428 179.486 22.8214 178.321 23.4428C177.15 24.0643 175.793 24.3786 174.243 24.3786C172.693 24.3786 171.336 24.0643 170.164 23.4428ZM176.529 20.8143C177.193 20.4357 177.707 19.9071 178.071 19.2214C178.436 18.5357 178.614 17.7428 178.614 16.8428C178.614 15.9428 178.436 15.1428 178.071 14.4643C177.707 13.7786 177.193 13.25 176.529 12.8714C175.864 12.4928 175.1 12.3071 174.236 12.3071C173.371 12.3071 172.614 12.4928 171.957 12.8714C171.3 13.25 170.793 13.7786 170.429 14.4643C170.064 15.15 169.886 15.9428 169.886 16.8428C169.886 17.7428 170.064 18.5428 170.429 19.2214C170.793 19.9071 171.3 20.4357 171.957 20.8143C172.614 21.1928 173.371 21.3786 174.236 21.3786C175.1 21.3786 175.864 21.1928 176.529 20.8143Z" fill="#D42346"/>
<path d="M193.764 9.65714H197.107V24.0286H194.093L187.585 15.1357L187.628 19.0143V24.0214H184.278V9.65714H187.3L193.807 18.5857L193.764 14.7429V9.64999V9.65714Z" fill="#D42346"/>
<path d="M200.229 9.6571H203.593V20.9928H210.821V24.0285H200.229V9.6571Z" fill="#D42346"/>
<path d="M212.736 9.6571H216.101V24.0285H212.736V9.6571Z" fill="#D42346"/>
<path d="M228.729 9.65714H232.079V24.0286H229.057L222.55 15.1357L222.593 19.0143V24.0214H219.243V9.65714H222.265L228.772 18.5857L228.729 14.7429V9.64999V9.65714Z" fill="#D42346"/>
<path d="M238.457 21.1928H246.378V24.0286H235.186V9.65714H246.15V12.4714H238.45V15.3857H245.736V18.0928H238.45V21.1928H238.457Z" fill="#D42346"/>
<path d="M178.765 39.3714C179.972 39.9786 180.907 40.8572 181.572 42C182.229 43.1429 182.565 44.4714 182.565 45.9929C182.565 47.5143 182.236 48.8429 181.572 49.9857C180.915 51.1286 179.979 52 178.765 52.6072C177.557 53.2143 176.143 53.5214 174.522 53.5214H169.393V59.4643H164.472V38.4643H174.522C176.143 38.4643 177.557 38.7714 178.765 39.3786V39.3714ZM176.75 48.3572C177.357 47.7786 177.665 47 177.665 46.0143C177.665 45.0286 177.357 44.2572 176.75 43.6714C176.143 43.0929 175.315 42.8 174.272 42.8H169.35V49.2214H174.272C175.315 49.2214 176.136 48.9286 176.75 48.35V48.3572Z" fill="#EE8215"/>
<path d="M187.507 38.4572H192.428V55.0143H202.985V59.4572H187.507V38.4572Z" fill="#EE8215"/>
<path d="M224.108 59.4572L222.551 55.6786H212.201L210.644 59.4572H205.394L214.815 38.4572H220.065L229.422 59.4572H224.115H224.108ZM217.415 43.1643L213.965 51.4429H220.808L217.415 43.1643Z" fill="#EE8215"/>
<path d="M247.593 38.4572V42.75H241.172V59.4572H236.25V42.75H229.857V38.4572H247.586H247.593Z" fill="#EE8215"/>
<path d="M267.936 42.7429H257.343V47.75H267.336V51.9214H257.343V59.45H252.422V38.45H267.929V42.7429H267.936Z" fill="#EE8215"/>
<path d="M277.764 58.6C276.057 57.6929 274.735 56.4072 273.807 54.7429C272.878 53.0857 272.414 51.15 272.414 48.95C272.414 46.75 272.878 44.8214 273.807 43.1572C274.735 41.5 276.057 40.2143 277.764 39.3C279.471 38.3929 281.457 37.9357 283.721 37.9357C285.985 37.9357 287.964 38.3929 289.678 39.3C291.385 40.2072 292.707 41.4929 293.635 43.1572C294.564 44.8143 295.028 46.75 295.028 48.95C295.028 51.15 294.564 53.0786 293.635 54.7429C292.707 56.4 291.385 57.6857 289.678 58.6C287.971 59.5072 285.985 59.9643 283.721 59.9643C281.457 59.9643 279.478 59.5072 277.764 58.6ZM287.064 54.7643C288.035 54.2143 288.785 53.4429 289.314 52.4429C289.843 51.4429 290.107 50.2857 290.107 48.9643C290.107 47.6429 289.843 46.4857 289.314 45.4857C288.785 44.4857 288.035 43.7143 287.064 43.1572C286.093 42.6072 284.978 42.3357 283.721 42.3357C282.464 42.3357 281.35 42.6143 280.393 43.1572C279.435 43.7072 278.685 44.4857 278.157 45.4857C277.628 46.4857 277.364 47.6429 277.364 48.9643C277.364 50.2857 277.628 51.4429 278.157 52.4429C278.685 53.4429 279.435 54.2214 280.393 54.7643C281.35 55.3143 282.464 55.5929 283.721 55.5929C284.978 55.5929 286.1 55.3214 287.064 54.7643Z" fill="#EE8215"/>
<path d="M308.257 52.5286H305.407V59.4572H300.485V38.4572H310.714C312.235 38.4572 313.564 38.75 314.707 39.3429C315.85 39.9357 316.728 40.7714 317.35 41.85C317.971 42.9286 318.278 44.1714 318.278 45.5714C318.278 47.1714 317.864 48.5429 317.035 49.6786C316.207 50.8214 315.028 51.6286 313.507 52.1072L319.45 59.4572H313.6L308.257 52.5286ZM312.557 43.4357C311.985 42.9143 311.185 42.6572 310.143 42.6572H305.371V48.5643H310.143C311.2 48.5643 312.014 48.3072 312.571 47.8C313.128 47.2929 313.414 46.5643 313.414 45.6286C313.414 44.6929 313.128 43.9572 312.557 43.4357Z" fill="#EE8215"/>
<path d="M343.057 38.4572H347.464V59.4572H342.571V46.3143L336.393 53.8714H335.436L329.193 46.2786V59.45H324.3V38.45H328.707L335.878 47.3929L343.05 38.45L343.057 38.4572Z" fill="#EE8215"/>
<path d="M262.271 19.2857H260.321V24.0286H256.957V9.65717H263.957C265 9.65717 265.907 9.85717 266.686 10.2643C267.464 10.6715 268.064 11.2429 268.493 11.9786C268.914 12.7143 269.128 13.5643 269.128 14.5215C269.128 15.6143 268.843 16.5572 268.278 17.3357C267.707 18.1143 266.907 18.6715 265.864 19L269.928 24.0286H265.928L262.271 19.2857ZM265.221 13.0643C264.828 12.7072 264.278 12.5286 263.571 12.5286H260.307V16.5715H263.571C264.293 16.5715 264.85 16.4 265.236 16.05C265.621 15.7 265.807 15.2072 265.807 14.5643C265.807 13.9215 265.614 13.4215 265.221 13.0643Z" fill="#3B56C4"/>
<path d="M275.086 21.1929H283.007V24.0286H271.814V9.65717H282.779V12.4715H275.079V15.3857H282.364V18.0929H275.079V21.1929H275.086Z" fill="#3B56C4"/>
<path d="M287.414 23.8214C286.328 23.4643 285.386 22.9643 284.593 22.3214L286.336 19.8786C287.607 20.8786 289.093 21.3786 290.793 21.3786C291.643 21.3786 292.314 21.2357 292.814 20.95C293.314 20.6643 293.564 20.2714 293.564 19.7786C293.564 19.3143 293.328 18.95 292.864 18.6929C292.4 18.4357 291.657 18.25 290.65 18.1357C288.693 17.9143 287.257 17.4572 286.35 16.7572C285.443 16.0572 284.986 15.0572 284.986 13.7572C284.986 12.8786 285.228 12.1072 285.728 11.4357C286.221 10.7643 286.914 10.2429 287.8 9.87858C288.693 9.50716 289.714 9.32144 290.879 9.32144C291.879 9.32144 292.85 9.4643 293.807 9.75001C294.764 10.0357 295.593 10.4429 296.321 10.9643L294.743 13.3286C293.621 12.55 292.378 12.1572 291.028 12.1572C290.193 12.1572 289.529 12.2929 289.029 12.5643C288.529 12.8357 288.278 13.2072 288.278 13.6714C288.278 14.1357 288.493 14.4714 288.928 14.7214C289.364 14.9714 290.078 15.15 291.093 15.2786C293.036 15.5 294.486 15.9786 295.443 16.7286C296.4 17.4714 296.878 18.5 296.878 19.8C296.878 20.7 296.628 21.5 296.121 22.1929C295.614 22.8857 294.9 23.4214 293.986 23.7929C293.071 24.1643 292.014 24.3572 290.821 24.3572C289.628 24.3572 288.514 24.1786 287.421 23.8214H287.414Z" fill="#3B56C4"/>
<path d="M301.864 23.4429C300.693 22.8214 299.793 21.9429 299.157 20.8072C298.522 19.6714 298.2 18.35 298.2 16.8429C298.2 15.3357 298.522 14.0143 299.157 12.8786C299.793 11.7429 300.7 10.8643 301.864 10.2429C303.036 9.62145 304.393 9.30716 305.943 9.30716C307.493 9.30716 308.85 9.62145 310.022 10.2429C311.193 10.8643 312.093 11.7429 312.729 12.8786C313.364 14.0143 313.686 15.3357 313.686 16.8429C313.686 18.35 313.364 19.6714 312.729 20.8072C312.093 21.9429 311.186 22.8214 310.022 23.4429C308.85 24.0643 307.493 24.3786 305.943 24.3786C304.393 24.3786 303.036 24.0643 301.864 23.4429ZM308.229 20.8143C308.893 20.4357 309.407 19.9072 309.772 19.2214C310.136 18.5357 310.314 17.7429 310.314 16.8429C310.314 15.9429 310.136 15.1429 309.772 14.4643C309.407 13.7786 308.893 13.25 308.229 12.8714C307.564 12.4929 306.8 12.3072 305.936 12.3072C305.072 12.3072 304.314 12.4929 303.657 12.8714C303 13.25 302.493 13.7786 302.129 14.4643C301.764 15.15 301.586 15.9429 301.586 16.8429C301.586 17.7429 301.764 18.5429 302.129 19.2214C302.493 19.9072 303 20.4357 303.657 20.8143C304.314 21.1929 305.072 21.3786 305.936 21.3786C306.8 21.3786 307.564 21.1929 308.229 20.8143Z" fill="#3B56C4"/>
<path d="M317.471 22.6215C316.328 21.4786 315.757 19.8786 315.757 17.8286V9.65717H319.121V17.8286C319.121 18.9215 319.4 19.7857 319.95 20.4143C320.507 21.0429 321.278 21.3572 322.278 21.3572C323.278 21.3572 324.014 21.0429 324.578 20.4143C325.143 19.7857 325.421 18.9215 325.421 17.8286V9.65717H328.785V17.8286C328.785 19.8786 328.214 21.4786 327.078 22.6215C325.943 23.7643 324.343 24.3357 322.271 24.3357C320.2 24.3357 318.6 23.7643 317.457 22.6215H317.471Z" fill="#3B56C4"/>
<path d="M337.028 19.2857H335.078V24.0286H331.714V9.65717H338.714C339.757 9.65717 340.664 9.85717 341.442 10.2643C342.221 10.6715 342.821 11.2429 343.25 11.9786C343.671 12.7143 343.885 13.5643 343.885 14.5215C343.885 15.6143 343.6 16.5572 343.035 17.3357C342.464 18.1143 341.664 18.6715 340.621 19L344.685 24.0286H340.685L337.028 19.2857ZM339.971 13.0643C339.578 12.7072 339.028 12.5286 338.321 12.5286H335.057V16.5715H338.321C339.042 16.5715 339.6 16.4 339.985 16.05C340.371 15.7 340.557 15.2072 340.557 14.5643C340.557 13.9215 340.364 13.4215 339.971 13.0643Z" fill="#3B56C4"/>
<path d="M349.335 23.4072C348.164 22.7786 347.264 21.8929 346.628 20.7572C345.992 19.6214 345.671 18.3143 345.671 16.8357C345.671 15.3572 345.992 14.05 346.649 12.9072C347.299 11.7643 348.207 10.8786 349.371 10.2572C350.535 9.63573 351.864 9.32144 353.357 9.32144C355.478 9.32144 357.299 10.0643 358.821 11.5572L356.749 13.6286C355.835 12.75 354.728 12.3143 353.442 12.3143C352.578 12.3143 351.814 12.5 351.149 12.8786C350.485 13.2572 349.971 13.7857 349.607 14.4714C349.242 15.1572 349.064 15.9429 349.064 16.8357C349.064 17.7286 349.242 18.5143 349.607 19.2C349.971 19.8857 350.485 20.4143 351.149 20.7929C351.814 21.1714 352.578 21.3572 353.442 21.3572C354.128 21.3572 354.785 21.2357 355.414 20.9857C356.042 20.7357 356.592 20.3857 357.057 19.9143L359.028 22.1143C357.478 23.6072 355.614 24.35 353.421 24.35C351.871 24.35 350.514 24.0357 349.342 23.4072H349.335Z" fill="#3B56C4"/>
<path d="M364.207 21.1929H372.128V24.0286H360.936V9.65717H371.9V12.4715H364.2V15.3857H371.486V18.0929H364.2V21.1929H364.207Z" fill="#3B56C4"/>
<path d="M28.8295 0H35.1438L62.9296 65.9714H56.0224L48.8153 48.4357H13.8938L6.46526 65.9714H0.000976562L28.8295 0ZM31.7224 6.68571L16.3438 42.8643H46.6581L31.7224 6.68571Z" fill="#D42346"/>
<path d="M65.1582 18.35H70.7296V25.9286H70.8796C71.7725 24.4428 72.8082 23.1786 74.1511 22.0643C75.4939 20.95 76.9011 20.0571 78.3868 19.3928C79.9439 18.65 81.5082 18.1286 83.2153 17.8357C84.9225 17.5428 86.5582 17.3143 88.1939 17.3143C91.4653 17.3143 94.5082 17.9071 97.2582 19.0214C100.008 20.1357 102.387 21.6928 104.465 23.7C106.472 25.7071 108.03 28.0857 109.144 30.9071C110.258 33.6571 110.851 36.7 110.851 39.9714C110.851 43.2428 110.258 46.2857 109.144 49.0357C108.03 51.7857 106.472 54.1643 104.465 56.2428C102.458 58.3214 100.08 59.8071 97.2582 60.9214C94.5082 62.0357 91.4653 62.6286 88.1939 62.6286C86.5582 62.6286 84.9225 62.4786 83.2153 62.1071C81.5082 61.7357 79.9439 61.2143 78.3868 60.55C76.8296 59.8857 75.4868 58.9143 74.1511 57.8786C72.8153 56.8428 71.7725 55.5 70.8796 54.0143H70.7296V100H65.1582V18.35ZM70.1368 39.8928C70.1368 42.3428 70.5796 44.5714 71.5511 46.7286C72.5225 48.8857 73.7796 50.7428 75.4153 52.3C77.0511 53.8571 78.9082 55.1214 81.1368 56.0857C83.2939 56.9786 85.6653 57.5 88.1939 57.5C90.7225 57.5 93.1725 57.0571 95.2511 56.0857C97.3296 55.1143 99.1868 53.9286 100.672 52.3C102.158 50.7428 103.272 48.8857 104.087 46.7286C104.83 44.5714 105.272 42.2714 105.272 39.8928C105.272 37.5143 104.901 35.2143 104.087 33.0571C103.344 30.9 102.158 29.0428 100.672 27.4857C99.1868 25.9286 97.4011 24.6643 95.2511 23.7C93.1725 22.7357 90.7939 22.2857 88.1939 22.2857C85.5939 22.2857 83.2939 22.7286 81.1368 23.7C78.9796 24.5928 77.0511 25.8571 75.4153 27.4857C73.7796 29.1143 72.5153 30.9 71.5511 33.0571C70.6582 35.2143 70.1368 37.4428 70.1368 39.8928Z" fill="#0291A1"/>
<path d="M119.395 0H125.559V60.4H156.316V65.9714H119.395V0Z" fill="#EE8215"/>
<path d="M28.8286 0H35.1429L62.9286 65.9714H56.0214L48.8143 48.4357H13.8929L6.46429 65.9714H0L28.8286 0ZM31.7214 6.68571L16.3429 42.8643H46.6571L31.7214 6.68571Z" fill="#D42346"/>
<path d="M65.1572 18.35H70.7287V25.9286H70.8787C71.7715 24.4428 72.8072 23.1786 74.1501 22.0643C75.4929 20.95 76.9001 20.0571 78.3858 19.3928C79.9429 18.65 81.5072 18.1286 83.2144 17.8357C84.9215 17.5428 86.5572 17.3143 88.1929 17.3143C91.4644 17.3143 94.5072 17.9071 97.2572 19.0214C100.007 20.1357 102.386 21.6928 104.464 23.7C106.472 25.7071 108.029 28.0857 109.143 30.9071C110.257 33.6571 110.85 36.7 110.85 39.9714C110.85 43.2428 110.257 46.2857 109.143 49.0357C108.029 51.7857 106.472 54.1643 104.464 56.2428C102.457 58.3214 100.079 59.8071 97.2572 60.9214C94.5072 62.0357 91.4644 62.6286 88.1929 62.6286C86.5572 62.6286 84.9215 62.4786 83.2144 62.1071C81.5072 61.7357 79.9429 61.2143 78.3858 60.55C76.8287 59.8857 75.4858 58.9143 74.1501 57.8786C72.8144 56.8428 71.7715 55.5 70.8787 54.0143H70.7287V100H65.1572V18.35ZM70.1358 39.8928C70.1358 42.3428 70.5787 44.5714 71.5501 46.7286C72.5215 48.8857 73.7787 50.7428 75.4144 52.3C77.0501 53.8571 78.9072 55.1214 81.1358 56.0857C83.2929 56.9786 85.6644 57.5 88.1929 57.5C90.7215 57.5 93.1715 57.0571 95.2501 56.0857C97.3287 55.1143 99.1858 53.9286 100.672 52.3C102.157 50.7428 103.272 48.8857 104.086 46.7286C104.829 44.5714 105.272 42.2714 105.272 39.8928C105.272 37.5143 104.9 35.2143 104.086 33.0571C103.343 30.9 102.157 29.0428 100.672 27.4857C99.1858 25.9286 97.4001 24.6643 95.2501 23.7C93.1715 22.7357 90.7929 22.2857 88.1929 22.2857C85.5929 22.2857 83.2929 22.7286 81.1358 23.7C78.9787 24.5928 77.0501 25.8571 75.4144 27.4857C73.7787 29.1143 72.5144 30.9 71.5501 33.0571C70.6572 35.2143 70.1358 37.4428 70.1358 39.8928Z" fill="#EE8215"/>
<path d="M119.394 0H125.558V60.4H156.315V65.9714H119.394V0Z" fill="#3B56C4"/>
<path d="M228.979 86.1786L230.55 86.4286C230.45 87.3357 230.3 88.2429 230.122 89.1643C229.936 90.0857 229.743 90.8714 229.536 91.5286C229.358 91.4286 229.115 91.3286 228.808 91.2286C228.5 91.1214 228.243 91.0429 228.036 90.9857C228.286 90.3571 228.486 89.6143 228.636 88.75C228.786 87.8857 228.9 87.0286 228.993 86.1786H228.979ZM228.672 80.6C228.643 80.4857 228.593 80.3286 228.529 80.1286C228.465 79.9286 228.386 79.7214 228.308 79.5143C228.229 79.3071 228.15 79.1214 228.072 78.9714C228.265 78.9143 228.458 78.7929 228.658 78.5929C228.858 78.4 229.058 78.1429 229.265 77.8214C229.429 77.6286 229.665 77.2572 229.986 76.7143C230.3 76.1714 230.643 75.5357 231.015 74.8143C231.379 74.0929 231.708 73.35 231.986 72.6L233.686 73.2857C233.158 74.4429 232.55 75.5857 231.865 76.7143C231.179 77.8429 230.486 78.8214 229.779 79.6571V79.7C229.558 79.8143 229.372 79.9143 229.229 80.0143C229.079 80.1143 228.95 80.2143 228.843 80.3143C228.736 80.4143 228.679 80.5143 228.679 80.5929L228.672 80.6ZM228.8 85.3857C228.786 85.2572 228.743 85.1 228.679 84.8929C228.615 84.6929 228.536 84.4857 228.458 84.2643C228.379 84.05 228.308 83.8714 228.25 83.7286C228.486 83.6714 228.729 83.5214 228.979 83.2714C229.229 83.0214 229.522 82.7 229.865 82.3072C230.043 82.1143 230.293 81.7929 230.629 81.3429C230.958 80.9 231.329 80.3643 231.743 79.7429C232.158 79.1214 232.572 78.4572 232.993 77.7357C233.415 77.0214 233.793 76.3072 234.129 75.5929L235.7 76.5143C235.186 77.4786 234.608 78.4286 233.979 79.3786C233.343 80.3286 232.686 81.2286 232 82.0857C231.315 82.9429 230.629 83.7286 229.936 84.4357V84.4786C229.715 84.5929 229.529 84.6929 229.386 84.7786C229.236 84.8714 229.108 84.9643 228.986 85.0714C228.865 85.1786 228.808 85.2786 228.808 85.3714L228.8 85.3857ZM228.672 80.6L228.629 79.2857L229.472 78.7643L233.229 78.4929C233.186 78.7143 233.143 78.9714 233.108 79.2571C233.072 79.5429 233.05 79.7786 233.05 79.9572C232.208 80.0429 231.522 80.1143 230.986 80.1786C230.45 80.2429 230.029 80.3 229.729 80.3429C229.429 80.3929 229.2 80.4357 229.058 80.4786C228.908 80.5214 228.786 80.5643 228.679 80.6071L228.672 80.6ZM228.8 85.3857L228.736 84.05L229.579 83.4857L235.365 82.7357C235.322 82.9572 235.293 83.2071 235.286 83.4857C235.279 83.7643 235.286 83.9929 235.3 84.1786C233.972 84.3714 232.908 84.5357 232.108 84.6714C231.308 84.8071 230.686 84.9143 230.243 84.9929C229.8 85.0786 229.479 85.1429 229.279 85.2C229.079 85.2571 228.922 85.3214 228.808 85.3857H228.8ZM231.322 86.3714L232.758 86.0572C232.893 86.7643 233.015 87.5286 233.136 88.3429C233.25 89.1572 233.329 89.8714 233.358 90.4857L231.858 90.8429C231.843 90.2286 231.786 89.5072 231.679 88.6786C231.579 87.85 231.458 87.0786 231.322 86.3714ZM233.508 81.1643L234.922 80.7071C235.115 81.1214 235.308 81.5786 235.493 82.0643C235.686 82.55 235.865 83.0214 236.022 83.4714C236.186 83.9214 236.308 84.3143 236.4 84.65L234.9 85.2357C234.829 84.8857 234.715 84.4786 234.572 84.0143C234.422 83.55 234.258 83.0643 234.072 82.5643C233.886 82.0643 233.7 81.5929 233.508 81.1643ZM233.708 85.9286L235.036 85.4929C235.3 86.1357 235.55 86.8286 235.786 87.5714C236.022 88.3143 236.2 88.9571 236.315 89.4857L234.9 89.9857C234.815 89.4286 234.643 88.7714 234.4 88.0143C234.158 87.2572 233.922 86.5643 233.708 85.9357V85.9286ZM236.536 73.5214H246.808V75.2571H238.415V91.9929H236.536V73.5214ZM238.9 79.1429H245.75V80.6643H238.9V79.1429ZM239.079 82.6714H245.55V84.1929H239.079V82.6714ZM239.493 76.15L240.729 75.7714C240.979 76.2 241.208 76.6929 241.4 77.2357C241.6 77.7786 241.736 78.2429 241.808 78.6357L240.508 79.0929C240.465 78.6857 240.343 78.2143 240.143 77.6643C239.943 77.1143 239.729 76.6072 239.493 76.15ZM239.829 83.4643H241.529V85.9071C241.529 86.1571 241.558 86.3357 241.608 86.4429C241.658 86.55 241.786 86.6 241.993 86.6H244.222C244.4 86.6 244.622 86.6 244.886 86.5786C245.15 86.5643 245.365 86.5286 245.529 86.4714C245.543 86.6929 245.565 86.9357 245.586 87.2C245.608 87.4643 245.636 87.6857 245.665 87.8714C245.515 87.9286 245.315 87.9643 245.043 87.9786C244.779 87.9929 244.522 88 244.272 88H241.843C241.3 88 240.879 87.9286 240.586 87.7929C240.293 87.6572 240.093 87.4286 239.986 87.1143C239.886 86.8 239.829 86.3929 239.829 85.8929V83.4714V83.4643ZM241.022 81.0429L242.479 80.5643C242.643 80.8429 242.808 81.15 242.979 81.4929C243.15 81.8357 243.279 82.1214 243.365 82.3572L241.865 82.9214C241.779 82.6571 241.658 82.35 241.5 82C241.343 81.65 241.186 81.3286 241.022 81.0357V81.0429ZM243.736 75.8214L245.215 76.2C245.008 76.8 244.793 77.4286 244.572 78.0786C244.35 78.7357 244.136 79.2857 243.929 79.7286L242.736 79.3714C242.85 79.05 242.972 78.6786 243.1 78.2571C243.222 77.8286 243.343 77.4072 243.465 76.9714C243.586 76.5429 243.672 76.1572 243.729 75.8214H243.736ZM246.215 73.5214H248.093V89.9C248.093 90.3857 248.036 90.7643 247.929 91.0286C247.822 91.2929 247.608 91.5 247.3 91.6572C246.993 91.7929 246.6 91.8857 246.122 91.9214C245.643 91.9572 245.058 91.9714 244.365 91.9714C244.336 91.7357 244.272 91.45 244.165 91.1143C244.065 90.7786 243.943 90.4929 243.808 90.2572C244.25 90.2714 244.665 90.2786 245.058 90.2857C245.45 90.2857 245.708 90.2929 245.843 90.2929C245.993 90.2786 246.086 90.2429 246.143 90.1857C246.2 90.1286 246.222 90.0357 246.222 89.8929V73.5143L246.215 73.5214Z" fill="#F0F0F0"/>
<path d="M252.665 88.9786H272.658V90.9643H252.665V88.9786ZM260.815 72.8714H263.044V90.0429H260.815V72.8714ZM262.008 79.1214H271.129V81.1071H262.008V79.1214Z" fill="#F0F0F0"/>
<path d="M276.814 78.3429C277.622 78.15 278.579 77.9 279.686 77.6C280.793 77.3 281.922 77 283.086 76.6929L283.329 78.2357C282.343 78.5572 281.357 78.8786 280.372 79.2C279.386 79.5214 278.472 79.8072 277.629 80.0572L276.814 78.3429ZM283.464 88.5214L285.386 89.3357C284.779 89.6857 284.086 90.0286 283.307 90.3572C282.529 90.6857 281.722 90.9929 280.886 91.2643C280.05 91.5357 279.264 91.7714 278.514 91.9643C278.414 91.8357 278.264 91.6857 278.086 91.4929C277.9 91.3072 277.707 91.1214 277.514 90.9429C277.314 90.7643 277.136 90.6143 276.972 90.5072C277.736 90.3714 278.522 90.1929 279.322 89.9857C280.122 89.7786 280.886 89.55 281.607 89.3072C282.329 89.0643 282.95 88.8 283.464 88.5214ZM277.872 74.3143L278.8 72.9786C279.3 73.0929 279.843 73.2357 280.422 73.4143C281 73.5929 281.564 73.7857 282.1 73.9786C282.636 74.1714 283.093 74.3643 283.457 74.5429L282.507 76.05C282.172 75.8714 281.729 75.6714 281.193 75.4643C280.657 75.2572 280.093 75.05 279.514 74.85C278.936 74.65 278.386 74.4714 277.872 74.3143ZM279.814 80.0572H294.393V88.5429H279.814V80.0572ZM281.829 81.3143V82.4857H292.3V81.3143H281.829ZM281.829 83.6929V84.8857H292.3V83.6929H281.829ZM281.829 86.0786V87.2929H292.3V86.0786H281.829ZM286.6 72.5786L288.479 72.85C288.079 73.6429 287.593 74.4143 287.007 75.1714C286.429 75.9214 285.714 76.6143 284.872 77.2429C284.679 77.0643 284.429 76.8786 284.122 76.7C283.814 76.5214 283.536 76.3786 283.279 76.2786C284.1 75.75 284.793 75.1572 285.343 74.4929C285.893 73.8286 286.314 73.1929 286.593 72.5786H286.6ZM289.072 75.5286L290.95 75.8C290.479 76.9429 289.65 77.8786 288.464 78.6072C287.279 79.3357 285.9 79.8572 284.322 80.1643C284.236 79.9857 284.1 79.7572 283.914 79.4786C283.729 79.2 283.564 78.9786 283.414 78.8072C284.314 78.6572 285.15 78.4286 285.936 78.1286C286.714 77.8286 287.386 77.4643 287.936 77.0286C288.486 76.6 288.864 76.0929 289.072 75.5214V75.5286ZM286.443 74.0429H295.15V75.4857H285.25L286.443 74.0429ZM290.286 76.0929C290.686 76.55 291.207 76.9714 291.864 77.3572C292.522 77.7429 293.25 78.0643 294.064 78.3286C294.872 78.5929 295.722 78.7857 296.607 78.9143C296.429 79.0786 296.229 79.3072 296 79.5929C295.772 79.8786 295.593 80.1286 295.457 80.3357C294.529 80.1429 293.65 79.8643 292.814 79.5072C291.979 79.15 291.229 78.7214 290.55 78.2214C289.872 77.7214 289.307 77.1714 288.85 76.5714L290.286 76.0929ZM288.9 89.5214L290.293 88.4786C291.086 88.7143 291.886 88.9714 292.679 89.25C293.472 89.5286 294.229 89.8 294.943 90.0786C295.657 90.35 296.272 90.6072 296.786 90.8429L294.907 91.9286C294.45 91.6929 293.9 91.4357 293.264 91.1643C292.622 90.8929 291.929 90.6143 291.179 90.3286C290.429 90.0429 289.672 89.7786 288.9 89.5214ZM294.622 74.0429H294.95L295.279 73.9786L296.65 74.3357C296.357 74.8929 296.014 75.45 295.636 76.0072C295.25 76.5643 294.872 77.0286 294.486 77.4072L292.85 76.9072C293.172 76.5714 293.5 76.1643 293.836 75.6857C294.164 75.2072 294.429 74.7429 294.622 74.2929V74.0429Z" fill="#F0F0F0"/>
<path d="M300.936 79.8072L302.15 78.4072C302.536 78.5857 302.957 78.8 303.428 79.0429C303.9 79.2857 304.35 79.5286 304.786 79.7643C305.221 80 305.578 80.2143 305.857 80.4143L304.621 82C304.357 81.8072 304.007 81.5786 303.586 81.3214C303.157 81.0643 302.714 80.8 302.25 80.5286C301.786 80.2572 301.35 80.0143 300.936 79.8072ZM301.336 90.6072C301.643 90.05 301.993 89.4 302.371 88.6572C302.757 87.9143 303.136 87.1214 303.521 86.2929C303.907 85.4643 304.257 84.6429 304.578 83.8357L306.278 84.9214C305.986 85.6572 305.664 86.4286 305.314 87.2214C304.971 88.0143 304.621 88.7929 304.264 89.55C303.914 90.3072 303.557 91.0214 303.207 91.6929L301.328 90.6072H301.336ZM302.021 74.1643L303.236 72.7857C303.621 72.9786 304.043 73.2143 304.514 73.4786C304.986 73.7429 305.436 74 305.864 74.25C306.293 74.5 306.643 74.7214 306.928 74.9214L305.671 76.5072C305.407 76.3 305.057 76.0572 304.636 75.7857C304.207 75.5143 303.764 75.2286 303.307 74.9429C302.85 74.65 302.421 74.3929 302.028 74.1714L302.021 74.1643ZM307.607 73.6214H309.643V79.3857C309.643 80.3072 309.607 81.3072 309.536 82.3929C309.464 83.4786 309.321 84.5929 309.114 85.7286C308.907 86.8643 308.607 87.9643 308.207 89.0286C307.807 90.0929 307.286 91.0572 306.636 91.9215C306.5 91.8072 306.328 91.6857 306.114 91.5572C305.9 91.4214 305.686 91.2929 305.464 91.1572C305.243 91.0215 305.043 90.9286 304.864 90.8786C305.5 90.0572 305.993 89.1572 306.357 88.1857C306.721 87.2143 306.986 86.2072 307.164 85.1786C307.343 84.15 307.457 83.1357 307.514 82.15C307.571 81.1643 307.6 80.2429 307.6 79.3929V73.6286L307.607 73.6214ZM308.25 73.6214H321.286V75.4214H308.25V73.6214ZM311.3 85.95L313.157 86.45C312.936 86.95 312.671 87.4643 312.364 87.9929C312.057 88.5215 311.736 89.0286 311.414 89.5072C311.093 89.9857 310.771 90.4072 310.464 90.7715C310.343 90.6572 310.186 90.5429 309.986 90.4286C309.786 90.3072 309.578 90.1929 309.364 90.0714C309.15 89.95 308.971 89.8572 308.821 89.7929C309.278 89.2929 309.728 88.6929 310.178 88.0072C310.628 87.3214 311 86.6286 311.293 85.95H311.3ZM310.707 77.55H320.536V84.9429H310.707V77.55ZM314.478 84.2572H316.464V90.0214C316.464 90.4643 316.407 90.8215 316.3 91.0786C316.193 91.3357 315.964 91.5357 315.628 91.6714C315.293 91.8072 314.864 91.8929 314.357 91.9215C313.85 91.95 313.243 91.9572 312.536 91.9429C312.493 91.7072 312.414 91.4286 312.314 91.1072C312.214 90.7857 312.1 90.5 311.986 90.25C312.443 90.2643 312.878 90.2714 313.293 90.2714H314.107C314.357 90.2714 314.486 90.1643 314.486 89.9572V84.2572H314.478ZM312.557 79.0143V80.5429H318.586V79.0143H312.557ZM312.557 81.9215V83.4643H318.586V81.9215H312.557ZM314.507 75.5429L316.828 75.9572C316.593 76.4286 316.343 76.8929 316.078 77.35C315.814 77.8 315.578 78.1857 315.371 78.5072L313.693 78.05C313.843 77.6857 313.993 77.2714 314.143 76.8C314.293 76.3286 314.421 75.9072 314.507 75.5429ZM317.578 86.4286L319.393 85.7572C319.671 86.1714 319.957 86.6286 320.257 87.1286C320.55 87.6215 320.828 88.1 321.1 88.5572C321.364 89.0143 321.586 89.4214 321.764 89.7715L319.821 90.5857C319.686 90.2214 319.493 89.8 319.236 89.3215C318.978 88.8429 318.707 88.35 318.421 87.8357C318.136 87.3286 317.857 86.8572 317.593 86.4286H317.578Z" fill="#F0F0F0"/>
<path d="M325.594 82.7929H345.565V84.7786H325.594V82.7929ZM326.765 73.9357H344.287V75.9H326.765V73.9357ZM328.222 77.2786L330.122 76.7572C330.401 77.2286 330.672 77.7429 330.929 78.2929C331.187 78.8429 331.422 79.3786 331.637 79.9C331.851 80.4214 332.001 80.8857 332.087 81.2929L330.079 81.9214C329.979 81.5143 329.829 81.05 329.651 80.5214C329.465 79.9929 329.251 79.4429 329.001 78.8714C328.751 78.3 328.494 77.7714 328.229 77.2857L328.222 77.2786ZM334.458 74.7286H336.622V91.9429H334.458V74.7286ZM340.951 76.6714L343.179 77.2357C342.915 77.7786 342.629 78.3357 342.315 78.9072C342.008 79.4786 341.701 80.0214 341.408 80.55C341.115 81.0714 340.837 81.5357 340.565 81.9357L338.729 81.3929C338.994 80.9714 339.265 80.4929 339.544 79.9429C339.822 79.3929 340.087 78.8286 340.329 78.25C340.572 77.6714 340.772 77.1429 340.937 76.6714H340.951Z" fill="#F0F0F0"/>
<path d="M351.621 81.3786C351.593 81.2429 351.536 81.05 351.457 80.8143C351.378 80.5786 351.293 80.3357 351.2 80.0857C351.114 79.8357 351.021 79.6286 350.936 79.4571C351.214 79.4 351.493 79.2643 351.778 79.05C352.057 78.8357 352.386 78.5571 352.75 78.2214C352.957 78.0571 353.25 77.7786 353.636 77.3857C354.021 76.9929 354.443 76.5357 354.914 76.0071C355.386 75.4786 355.864 74.9 356.35 74.2714C356.836 73.6429 357.286 73.0214 357.7 72.3929L359.8 73.25C359.121 74.1571 358.4 75.0357 357.621 75.8929C356.85 76.75 356.064 77.5571 355.278 78.3071C354.493 79.0571 353.707 79.7357 352.928 80.3357V80.4C352.664 80.5286 352.443 80.6429 352.264 80.7429C352.086 80.85 351.936 80.9571 351.814 81.0643C351.686 81.1786 351.628 81.2786 351.628 81.3786H351.621ZM351.621 81.3786L351.6 79.8357L353.078 79.1071L366.95 78.5857C366.964 78.85 366.993 79.1571 367.036 79.5071C367.078 79.8571 367.121 80.1357 367.171 80.3429C364.993 80.4571 363.114 80.55 361.536 80.6214C359.957 80.7 358.628 80.7643 357.55 80.8214C356.471 80.8786 355.578 80.9286 354.878 80.9786C354.178 81.0286 353.621 81.0714 353.2 81.1071C352.778 81.1429 352.457 81.1786 352.228 81.2214C352 81.2643 351.8 81.3214 351.621 81.3857V81.3786ZM352.593 82.9643H367.128V91.9286H364.9V84.8643H354.736V91.95H352.593V82.9643ZM353.628 88.9357H365.957V90.8357H353.628V88.9357ZM361.893 75.7786L363.528 74.7571C364.221 75.3429 364.95 76 365.714 76.7286C366.478 77.4571 367.193 78.1857 367.843 78.9143C368.5 79.6357 369.014 80.2929 369.4 80.8786L367.607 82.1143C367.25 81.5143 366.757 80.85 366.128 80.1071C365.493 79.3714 364.807 78.6214 364.064 77.8714C363.321 77.1214 362.593 76.4214 361.886 75.7786H361.893Z" fill="#F0F0F0"/>
<path d="M121.136 74.1286H123.057V80.3786C123.057 81.2143 123.029 82.1286 122.979 83.1286C122.929 84.1214 122.829 85.15 122.693 86.2C122.55 87.25 122.35 88.2786 122.071 89.2714C121.8 90.2643 121.443 91.1786 121 92C120.9 91.8857 120.743 91.7572 120.55 91.6C120.35 91.45 120.143 91.3 119.929 91.15C119.714 91 119.536 90.9 119.386 90.85C119.8 90.1 120.121 89.2786 120.357 88.3857C120.593 87.4929 120.764 86.5786 120.879 85.6357C120.986 84.6929 121.057 83.7786 121.086 82.8786C121.114 81.9786 121.129 81.15 121.129 80.3786V74.1286H121.136ZM122.286 74.1286H139.936V75.7786H122.286V74.1286ZM126.657 75.7786L128.379 76.2786C127.821 77.35 127.136 78.3857 126.336 79.3929C125.536 80.3929 124.721 81.2429 123.893 81.9429C123.807 81.8286 123.679 81.6929 123.514 81.5357C123.35 81.3786 123.186 81.2143 123.014 81.0572C122.843 80.9 122.693 80.7714 122.564 80.6714C123.371 80.0714 124.143 79.3357 124.871 78.4643C125.6 77.5929 126.193 76.7 126.65 75.7786H126.657ZM125.157 86.9143L126.857 87.4786C126.607 88.2143 126.286 88.95 125.886 89.6857C125.486 90.4143 124.971 91.0429 124.336 91.5572L122.743 90.5786C123.314 90.15 123.807 89.6 124.214 88.9286C124.621 88.2572 124.936 87.5929 125.15 86.9214L125.157 86.9143ZM125.264 79.3286L127.029 77.7L127.05 77.7214V85.8714H125.257V79.3286H125.264ZM130.236 75.7357L131.957 76.1929C131.5 77.1929 130.936 78.1714 130.257 79.1286C129.579 80.0857 128.893 80.8929 128.2 81.5643C128.1 81.45 127.957 81.3286 127.779 81.1857C127.6 81.0429 127.429 80.9072 127.25 80.7786C127.071 80.65 126.914 80.5357 126.764 80.4572C127.457 79.8714 128.114 79.1572 128.729 78.3143C129.35 77.4714 129.85 76.6143 130.229 75.7357H130.236ZM127.921 87.0357H129.821V89.6857C129.821 89.9214 129.886 90.0714 130.007 90.1357C130.129 90.2 130.407 90.2286 130.836 90.2286H133.643C133.879 90.2286 134.057 90.1929 134.171 90.1214C134.286 90.05 134.371 89.8929 134.429 89.65C134.479 89.4072 134.521 89.0357 134.55 88.5357C134.743 88.6714 135.007 88.8072 135.343 88.9214C135.679 89.0429 135.979 89.1286 136.229 89.1857C136.171 89.8929 136.057 90.4429 135.9 90.8286C135.736 91.2143 135.493 91.4786 135.157 91.6214C134.829 91.7714 134.393 91.8429 133.864 91.8429H130.593C129.871 91.8429 129.321 91.7786 128.936 91.6572C128.55 91.5286 128.286 91.3143 128.143 91C127.993 90.6857 127.921 90.2572 127.921 89.7143V87.0429V87.0357ZM128.979 72.7286L130.814 72.1857C131.121 72.5786 131.421 73.0072 131.707 73.4786C131.993 73.95 132.2 74.3714 132.314 74.7286L130.393 75.3786C130.271 75 130.079 74.5643 129.807 74.0714C129.536 73.5786 129.257 73.1286 128.979 72.7214V72.7286ZM129.043 79.1L130.786 77.7429V85.85H129.043V79.1ZM129.486 83.9643H139.586V85.2357H129.486V83.9643ZM130.593 77.6572H139.279V78.8929H129.664L130.593 77.6572ZM129.864 86.45L131.079 85.3857C131.493 85.5643 131.929 85.7786 132.386 86.0143C132.843 86.25 133.271 86.4929 133.679 86.7357C134.086 86.9786 134.421 87.2214 134.686 87.4572L133.429 88.65C133.179 88.4143 132.857 88.1643 132.464 87.9C132.071 87.6357 131.65 87.3786 131.193 87.1286C130.736 86.8786 130.293 86.6572 129.864 86.4572V86.45ZM130.129 79.8286H138.657V80.8714H130.129V79.8286ZM130.129 81.8786H138.721V82.9214H130.129V81.8786ZM133.136 76.2572L134.614 75.6929C134.879 75.9572 135.129 76.25 135.364 76.5714C135.6 76.8929 135.786 77.1786 135.914 77.4286L134.364 78.1C134.243 77.8357 134.071 77.5286 133.843 77.1786C133.614 76.8286 133.379 76.5214 133.121 76.2572H133.136ZM133.886 78.2H135.65V84.45H133.886V78.2ZM135.407 87.3929L136.929 86.6857C137.357 87.0786 137.771 87.5072 138.179 87.9786C138.586 88.45 138.95 88.9214 139.286 89.3857C139.614 89.85 139.864 90.2786 140.029 90.6714L138.371 91.4857C138.207 91.0929 137.971 90.6643 137.657 90.1929C137.343 89.7214 136.986 89.2357 136.6 88.7429C136.207 88.25 135.814 87.8 135.421 87.3929H135.407Z" fill="#D42346"/>
<path d="M146.414 74.0215H148.493V81.5643C148.493 82.3715 148.45 83.2429 148.371 84.1786C148.293 85.1143 148.15 86.0572 147.943 87.0072C147.736 87.9643 147.429 88.8715 147.029 89.7429C146.621 90.6143 146.079 91.4 145.407 92.0929C145.307 91.9572 145.15 91.8 144.957 91.6357C144.757 91.4715 144.55 91.3072 144.336 91.1572C144.121 91.0072 143.936 90.8857 143.771 90.8C144.393 90.1429 144.879 89.4357 145.229 88.6786C145.579 87.9215 145.843 87.1357 146.014 86.3143C146.186 85.5 146.293 84.6857 146.343 83.8715C146.393 83.0572 146.421 82.2786 146.421 81.5429V74.0215H146.414ZM147.514 83.8215H161.657V85.7H147.514V83.8215ZM147.607 74.0215H161.593V75.9H147.607V74.0215ZM147.607 78.8643H161.593V80.7H147.607V78.8643ZM153.307 74.75H155.407V91.7572H153.307V74.75ZM160.793 74.0215H162.871V89.4786C162.871 90.05 162.793 90.4929 162.629 90.8072C162.464 91.1215 162.186 91.3572 161.786 91.5286C161.386 91.6786 160.85 91.7786 160.171 91.8072C159.493 91.8429 158.636 91.85 157.586 91.8358C157.557 91.5858 157.471 91.2715 157.329 90.8929C157.186 90.5143 157.043 90.1929 156.9 89.9286C157.371 89.9572 157.836 89.9715 158.293 89.9786C158.75 89.9786 159.15 89.9786 159.5 89.9786C159.843 89.9715 160.086 89.9643 160.221 89.9643C160.443 89.9643 160.593 89.9286 160.671 89.85C160.75 89.7715 160.793 89.6357 160.793 89.4429V74V74.0215Z" fill="#D42346"/>
<path d="M168.55 86.3714H188.436V87.9786H168.55V86.3714ZM168.993 80.0786H188.078V84.1143H186V81.5429H170.978V84.1143H168.993V80.0786ZM174.671 72.7286L175.557 73.9C174.893 74.15 174.136 74.3571 173.293 74.5286C172.443 74.6929 171.693 74.8286 171.028 74.9286L170.3 73.8214C170.728 73.7357 171.207 73.6357 171.75 73.5214C172.286 73.4 172.814 73.2714 173.328 73.1214C173.843 72.9714 174.293 72.8429 174.678 72.7357L174.671 72.7286ZM170.293 73.8143L172.278 74.2929L172.7 80.7714H170.736L170.293 73.8143ZM171.336 75.5643H175.421V76.8571H171.336V75.5643ZM171.421 77.8214H175.486V79.0929H171.421V77.8214ZM172.75 82.7357H182.871V84.1786H172.75V82.7357ZM177.7 85.5929H179.757V90C179.757 90.4714 179.686 90.8357 179.55 91.0857C179.407 91.3357 179.143 91.5286 178.743 91.6714C178.343 91.8 177.85 91.8714 177.25 91.8929C176.65 91.9143 175.921 91.9214 175.05 91.9214C175.007 91.6714 174.914 91.3929 174.786 91.0857C174.65 90.7786 174.514 90.5 174.364 90.25C174.793 90.2643 175.2 90.2714 175.593 90.2786C175.986 90.2786 176.328 90.2857 176.628 90.2857H177.236C177.414 90.2857 177.536 90.2643 177.6 90.2143C177.664 90.1643 177.7 90.0714 177.7 89.9357V85.5929ZM179.507 76.2571L180.9 76.6714C180.371 77.3571 179.707 78 178.914 78.6072C178.121 79.2143 177.314 79.7214 176.507 80.1214C176.407 79.9857 176.236 79.8072 176 79.6C175.764 79.3929 175.571 79.2214 175.428 79.1C176.207 78.7643 176.971 78.35 177.714 77.8571C178.457 77.3643 179.057 76.8286 179.514 76.2571H179.507ZM179.464 72.7429L180.857 73.1214C180.371 73.7643 179.743 74.3714 178.978 74.9357C178.214 75.5 177.464 75.9786 176.721 76.3571C176.6 76.2286 176.428 76.0786 176.193 75.8857C175.957 75.7 175.75 75.55 175.571 75.4357C176.336 75.1 177.071 74.7 177.771 74.2357C178.471 73.7714 179.036 73.2714 179.464 72.7429ZM175.928 77.3L176.921 76.4857C177.421 76.7071 177.936 76.9643 178.464 77.2572C178.993 77.55 179.5 77.85 179.978 78.1571C180.457 78.4643 180.85 78.7571 181.157 79.0357L180.071 79.9572C179.793 79.6786 179.421 79.3857 178.957 79.0714C178.493 78.7571 177.993 78.4429 177.464 78.1286C176.936 77.8143 176.421 77.5429 175.914 77.3H175.928ZM176.014 73.7714L177.007 72.9571C177.478 73.15 177.971 73.3857 178.478 73.6572C178.986 73.9286 179.471 74.2071 179.928 74.4929C180.386 74.7786 180.757 75.0429 181.057 75.2786L180.021 76.2C179.743 75.95 179.378 75.6786 178.936 75.3857C178.493 75.0929 178.021 74.8071 177.514 74.5214C177.007 74.2357 176.507 73.9857 176.021 73.7786L176.014 73.7714ZM182.336 82.7357H182.843L183.286 82.6286L184.478 83.65C183.95 84.0286 183.357 84.3929 182.714 84.7572C182.064 85.1214 181.4 85.4571 180.714 85.7786C180.028 86.1 179.35 86.3857 178.671 86.6357C178.55 86.4714 178.393 86.2857 178.2 86.0857C178 85.8857 177.836 85.7214 177.7 85.5929C178.257 85.4 178.836 85.1571 179.421 84.8643C180.007 84.5714 180.564 84.2714 181.078 83.9571C181.593 83.6429 182.014 83.3572 182.336 83.0929V82.7357ZM181.521 73.3071H185.7V74.6H181.521V73.3071ZM181.543 77.8214H185.364V79.0929H181.543V77.8214ZM181.65 75.5643H185.514V76.8571H181.65V75.5643ZM184.878 73.3071H186.864C186.821 74.1286 186.771 75 186.707 75.9214C186.65 76.8429 186.578 77.7357 186.507 78.5929C186.436 79.4571 186.357 80.2 186.286 80.8286H184.278C184.364 80.1714 184.45 79.4143 184.536 78.55C184.614 77.6857 184.686 76.7929 184.743 75.8786C184.8 74.9572 184.843 74.1 184.878 73.3071Z" fill="#D42346"/>
<path d="M192.678 80.1429C193.428 79.9214 194.328 79.6357 195.371 79.2857C196.414 78.9357 197.478 78.5786 198.549 78.2L198.878 79.6429C197.935 80.0072 196.992 80.3714 196.049 80.75C195.107 81.1286 194.235 81.4643 193.442 81.7714L192.671 80.1429H192.678ZM193.249 73.5786H200.492V75.1429H193.249V73.5786ZM194.021 76.3214L195.057 75.1929C195.571 75.4286 196.107 75.7214 196.671 76.0714C197.228 76.4214 197.657 76.75 197.949 77.05L196.864 78.3214C196.571 78.0143 196.149 77.6714 195.607 77.3C195.064 76.9214 194.528 76.6 194.014 76.3214H194.021ZM195.699 83.2572H210.149V92.0357H207.985V84.8072H197.778V92.0357H195.699V83.2572ZM196.764 86.45H208.585V87.9786H196.764V86.45ZM196.849 89.7143H208.649V91.2357H196.849V89.7143ZM199.985 73.5786H201.885V80.5143C201.885 80.9214 201.828 81.2286 201.721 81.4572C201.614 81.6786 201.399 81.8572 201.092 81.9786C200.785 82.1 200.392 82.1714 199.914 82.1857C199.435 82.2 198.857 82.2072 198.178 82.2072C198.135 82 198.057 81.7572 197.957 81.4857C197.857 81.2143 197.742 80.9786 197.628 80.7857C198.071 80.8 198.485 80.8072 198.864 80.8072C199.242 80.8072 199.507 80.8072 199.635 80.7857C199.785 80.7857 199.878 80.7643 199.921 80.7143C199.964 80.6643 199.985 80.5929 199.985 80.4929V73.5786ZM201.671 81.3143L203.899 81.6714C203.635 82.1572 203.357 82.6357 203.071 83.1C202.785 83.5643 202.528 83.9572 202.307 84.2786L200.607 83.9C200.799 83.5214 200.999 83.0929 201.214 82.6072C201.428 82.1214 201.578 81.6857 201.664 81.3143H201.671ZM202.642 79.7429C203.435 79.5214 204.378 79.2286 205.471 78.8786C206.564 78.5214 207.678 78.1572 208.828 77.7786L209.135 79.2214C208.149 79.5714 207.149 79.9214 206.128 80.2786C205.114 80.6357 204.192 80.9572 203.364 81.25L202.635 79.7429H202.642ZM203.192 73.5786H210.878V75.1429H203.192V73.5786ZM203.721 76.3214L204.735 75.15C205.249 75.3857 205.799 75.6786 206.378 76.0143C206.957 76.3572 207.407 76.6786 207.714 76.9857L206.628 78.2786C206.335 77.9714 205.899 77.6357 205.335 77.2643C204.771 76.8929 204.228 76.5786 203.714 76.3143L203.721 76.3214ZM209.907 73.5786H211.849V80.4929C211.849 80.9214 211.792 81.25 211.671 81.4714C211.549 81.6929 211.335 81.8857 211.007 82.0357C210.685 82.1643 210.264 82.2357 209.749 82.2572C209.235 82.2786 208.614 82.2857 207.892 82.2857C207.849 82.05 207.771 81.7857 207.664 81.5C207.557 81.2143 207.442 80.9572 207.321 80.7357C207.792 80.75 208.242 80.7572 208.671 80.7643C209.099 80.7643 209.385 80.7714 209.535 80.7714C209.685 80.7572 209.785 80.7286 209.835 80.6857C209.885 80.6429 209.914 80.5643 209.914 80.4572V73.5643L209.907 73.5786Z" fill="#D42346"/>
<path d="M377.171 30.85H162V2.34286H377.171V30.8429V30.85ZM163.143 29.7072H376.036V3.48572H163.143V29.7072Z" fill="#D42346"/>
<path d="M162.572 0.635712H160.293V2.91428V5.19285H162.572H164.85V2.91428V0.635712H162.572Z" fill="#D42346"/>
<path d="M376.6 0.635712H374.321V2.91428V5.19285H376.6H378.878V2.91428V0.635712H376.6Z" fill="#D42346"/>
<path d="M162.572 28H160.293V30.2786V32.5571H162.572H164.85V30.2786V28H162.572Z" fill="#D42346"/>
<path d="M376.6 28H374.321V30.2786V32.5571H376.6H378.878V30.2786V28H376.6Z" fill="#D42346"/>
<path d="M377.186 49.6143H373.436V53.3643H377.186V49.6143Z" fill="#F0F0F0"/>
<path d="M377.186 48.3714H373.436V52.1143H377.186V48.3714Z" fill="#F0F0F0"/>
<path d="M377.186 47.1286H373.436V50.8714H377.186V47.1286Z" fill="#F0F0F0"/>
<path d="M377.186 45.8929H373.436V49.6357H377.186V45.8929Z" fill="#F0F0F0"/>
<path d="M377.186 44.65H373.436V48.3929H377.186V44.65Z" fill="#F0F0F0"/>
<path d="M377.186 43.4071H373.436V47.1571H377.186V43.4071Z" fill="#F0F0F0"/>
<path d="M377.186 42.1643H373.436V45.9071H377.186V42.1643Z" fill="#F0F0F0"/>
<path d="M375.943 53.3357H372.2V57.0786H375.943V53.3357Z" fill="#F0F0F0"/>
<path d="M375.943 52.0929H372.2V55.8357H375.943V52.0929Z" fill="#F0F0F0"/>
<path d="M375.943 50.8571H372.2V54.6H375.943V50.8571Z" fill="#F0F0F0"/>
<path d="M375.943 40.9214H372.2V44.6643H375.943V40.9214Z" fill="#F0F0F0"/>
<path d="M374.7 57.0571H370.957V60.8H374.7V57.0571Z" fill="#F0F0F0"/>
<path d="M374.7 55.8143H370.957V59.5643H374.7V55.8143Z" fill="#F0F0F0"/>
<path d="M374.7 54.5786H370.957V58.3214H374.7V54.5786Z" fill="#F0F0F0"/>
<path d="M374.7 39.6857H370.957V43.4286H374.7V39.6857Z" fill="#F0F0F0"/>
<path d="M373.457 57.0643H369.714V60.8071H373.457V57.0643Z" fill="#F0F0F0"/>
<path d="M373.457 43.4071H369.714V47.1571H373.457V43.4071Z" fill="#F0F0F0"/>
<path d="M373.457 42.1643H369.714V45.9071H373.457V42.1643Z" fill="#F0F0F0"/>
<path d="M373.457 40.9214H369.714V44.6643H373.457V40.9214Z" fill="#F0F0F0"/>
<path d="M373.457 39.6857H369.714V43.4286H373.457V39.6857Z" fill="#F0F0F0"/>
<path d="M372.221 57.0643H368.479V60.8071H372.221V57.0643Z" fill="#F0F0F0"/>
<path d="M372.221 38.4428H368.479V42.1857H372.221V38.4428Z" fill="#F0F0F0"/>
<path d="M370.985 57.0643H367.235V60.8071H370.985V57.0643Z" fill="#F0F0F0"/>
<path d="M370.985 38.4428H367.235V42.1857H370.985V38.4428Z" fill="#F0F0F0"/>
<path d="M369.735 57.0643H365.992V60.8071H369.735V57.0643Z" fill="#F0F0F0"/>
<path d="M369.735 43.4071H365.992V47.1571H369.735V43.4071Z" fill="#F0F0F0"/>
<path d="M369.735 42.1643H365.992V45.9071H369.735V42.1643Z" fill="#F0F0F0"/>
<path d="M369.735 40.9214H365.992V44.6643H369.735V40.9214Z" fill="#F0F0F0"/>
<path d="M369.735 39.6857H365.992V43.4286H369.735V39.6857Z" fill="#F0F0F0"/>
<path d="M369.735 38.4428H365.992V42.1857H369.735V38.4428Z" fill="#F0F0F0"/>
<path d="M369.735 28.5143H365.992V32.2571H369.735V28.5143Z" fill="#F0F0F0"/>
<path d="M368.492 57.0643H364.749V60.8071H368.492V57.0643Z" fill="#F0F0F0"/>
<path d="M368.492 37.2H364.749V40.9428H368.492V37.2Z" fill="#F0F0F0"/>
<path d="M368.492 28.5143H364.749V32.2571H368.492V28.5143Z" fill="#F0F0F0"/>
<path d="M367.257 57.0643H363.514V60.8071H367.257V57.0643Z" fill="#F0F0F0"/>
<path d="M367.257 37.2H363.514V40.9428H367.257V37.2Z" fill="#F0F0F0"/>
<path d="M367.257 24.7857H363.514V28.5286H367.257V24.7857Z" fill="#F0F0F0"/>
<path d="M366.013 57.0643H362.271V60.8071H366.013V57.0643Z" fill="#F0F0F0"/>
<path d="M366.013 43.4071H362.271V47.1571H366.013V43.4071Z" fill="#F0F0F0"/>
<path d="M366.013 42.1643H362.271V45.9071H366.013V42.1643Z" fill="#F0F0F0"/>
<path d="M366.013 40.9214H362.271V44.6643H366.013V40.9214Z" fill="#F0F0F0"/>
<path d="M366.013 39.6857H362.271V43.4286H366.013V39.6857Z" fill="#F0F0F0"/>
<path d="M366.013 38.4428H362.271V42.1857H366.013V38.4428Z" fill="#F0F0F0"/>
<path d="M366.013 37.2H362.271V40.9428H366.013V37.2Z" fill="#F0F0F0"/>
<path d="M366.013 35.9571H362.271V39.7071H366.013V35.9571Z" fill="#F0F0F0"/>
<path d="M366.013 34.7143H362.271V38.4571H366.013V34.7143Z" fill="#F0F0F0"/>
<path d="M366.013 33.4786H362.271V37.2214H366.013V33.4786Z" fill="#F0F0F0"/>
<path d="M366.013 32.2357H362.271V35.9786H366.013V32.2357Z" fill="#F0F0F0"/>
<path d="M366.013 30.9929H362.271V34.7357H366.013V30.9929Z" fill="#F0F0F0"/>
<path d="M366.013 29.75H362.271V33.5H366.013V29.75Z" fill="#F0F0F0"/>
<path d="M366.013 26.0286H362.271V29.7714H366.013V26.0286Z" fill="#F0F0F0"/>
<path d="M364.778 57.0643H361.028V60.8071H364.778V57.0643Z" fill="#F0F0F0"/>
<path d="M364.778 28.5143H361.028V32.2571H364.778V28.5143Z" fill="#F0F0F0"/>
<path d="M363.528 57.0643H359.785V60.8071H363.528V57.0643Z" fill="#F0F0F0"/>
<path d="M363.528 28.5143H359.785V32.2571H363.528V28.5143Z" fill="#F0F0F0"/>
<path d="M363.528 26.0286H359.785V29.7714H363.528V26.0286Z" fill="#F0F0F0"/>
<path d="M363.528 24.7857H359.785V28.5286H363.528V24.7857Z" fill="#F0F0F0"/>
<path d="M362.285 57.0571H358.542V60.8H362.285V57.0571Z" fill="#F0F0F0"/>
<path d="M362.285 55.8143H358.542V59.5643H362.285V55.8143Z" fill="#F0F0F0"/>
<path d="M362.285 54.5786H358.542V58.3214H362.285V54.5786Z" fill="#F0F0F0"/>
<path d="M362.285 45.8929H358.542V49.6357H362.285V45.8929Z" fill="#F0F0F0"/>
<path d="M362.285 44.65H358.542V48.3929H362.285V44.65Z" fill="#F0F0F0"/>
<path d="M362.285 43.4071H358.542V47.1571H362.285V43.4071Z" fill="#F0F0F0"/>
<path d="M362.285 42.1643H358.542V45.9071H362.285V42.1643Z" fill="#F0F0F0"/>
<path d="M362.285 40.9214H358.542V44.6643H362.285V40.9214Z" fill="#F0F0F0"/>
<path d="M362.285 39.6857H358.542V43.4286H362.285V39.6857Z" fill="#F0F0F0"/>
<path d="M362.285 38.4428H358.542V42.1857H362.285V38.4428Z" fill="#F0F0F0"/>
<path d="M362.285 37.2H358.542V40.9428H362.285V37.2Z" fill="#F0F0F0"/>
<path d="M362.285 35.9571H358.542V39.7071H362.285V35.9571Z" fill="#F0F0F0"/>
<path d="M362.285 34.7143H358.542V38.4571H362.285V34.7143Z" fill="#F0F0F0"/>
<path d="M362.285 33.4786H358.542V37.2214H362.285V33.4786Z" fill="#F0F0F0"/>
<path d="M362.285 32.2357H358.542V35.9786H362.285V32.2357Z" fill="#F0F0F0"/>
<path d="M362.285 30.9929H358.542V34.7357H362.285V30.9929Z" fill="#F0F0F0"/>
<path d="M362.285 29.75H358.542V33.5H362.285V29.75Z" fill="#F0F0F0"/>
<path d="M361.049 53.3357H357.307V57.0786H361.049V53.3357Z" fill="#F0F0F0"/>
<path d="M361.049 52.0929H357.307V55.8357H361.049V52.0929Z" fill="#F0F0F0"/>
<path d="M361.049 44.65H357.307V48.3929H361.049V44.65Z" fill="#F0F0F0"/>
<path d="M361.049 26.0286H357.307V29.7714H361.049V26.0286Z" fill="#F0F0F0"/>
<path d="M359.807 50.8571H356.064V54.6H359.807V50.8571Z" fill="#F0F0F0"/>
<path d="M359.807 49.6143H356.064V53.3643H359.807V49.6143Z" fill="#F0F0F0"/>
<path d="M359.807 43.4071H356.064V47.1571H359.807V43.4071Z" fill="#F0F0F0"/>
<path d="M359.807 28.5143H356.064V32.2571H359.807V28.5143Z" fill="#F0F0F0"/>
<path d="M359.807 24.7857H356.064V28.5286H359.807V24.7857Z" fill="#F0F0F0"/>
<path d="M358.571 48.3714H354.821V52.1143H358.571V48.3714Z" fill="#F0F0F0"/>
<path d="M358.571 47.1286H354.821V50.8714H358.571V47.1286Z" fill="#F0F0F0"/>
<path d="M358.571 43.4071H354.821V47.1571H358.571V43.4071Z" fill="#F0F0F0"/>
<path d="M358.564 28.5143H354.821V32.2571H358.564V28.5143Z" fill="#F0F0F0"/>
<path d="M357.321 45.8929H353.578V49.6357H357.321V45.8929Z" fill="#F0F0F0"/>
<path d="M373.464 59.5643H359.786V57.0786H358.543V54.6H357.3V52.1143H356.057V49.6357H354.814V44.65H359.779V29.75H364.764V38.4429H368.486V39.6857H372.207V40.9286H374.686V42.1714H375.929V53.3643H374.686V57.0857H373.443V59.5714L373.464 59.5643ZM362.286 57.0643H370.957V54.5786H372.2V50.8571H373.443V47.1571H362.293V49.6357H359.814V52.1H361.057V54.5786H362.3V57.0643H362.286Z" fill="#F0F0F0"/>
<path d="M357.321 44.65H353.578V48.3929H357.321V44.65Z" fill="#F0F0F0"/>
<path d="M357.321 43.4071H353.578V47.15H357.321V43.4071Z" fill="#F0F0F0"/>
<path d="M375.935 50.8643H374.692V52.1071H375.935V50.8643Z" fill="#D42346"/>
<path d="M375.935 49.6214H374.692V50.8643H375.935V49.6214Z" fill="#D42346"/>
<path d="M375.935 48.3786H374.692V49.6214H375.935V48.3786Z" fill="#D42346"/>
<path d="M375.935 47.1429H374.692V48.3857H375.935V47.1429Z" fill="#D42346"/>
<path d="M375.935 45.9H374.692V47.1428H375.935V45.9Z" fill="#D42346"/>
<path d="M375.935 44.6571H374.692V45.9H375.935V44.6571Z" fill="#D42346"/>
<path d="M375.935 43.4143H374.692V44.6571H375.935V43.4143Z" fill="#D42346"/>
<path d="M374.693 54.5857H373.45V55.8286H374.693V54.5857Z" fill="#D42346"/>
<path d="M374.693 53.35H373.45V54.5929H374.693V53.35Z" fill="#D42346"/>
<path d="M374.693 52.1071H373.45V53.35H374.693V52.1071Z" fill="#D42346"/>
<path d="M374.693 42.1786H373.45V43.4214H374.693V42.1786Z" fill="#D42346"/>
<path d="M373.45 58.3143H372.207V59.5571H373.45V58.3143Z" fill="#D42346"/>
<path d="M373.45 57.0714H372.207V58.3143H373.45V57.0714Z" fill="#D42346"/>
<path d="M373.45 55.8286H372.207V57.0714H373.45V55.8286Z" fill="#D42346"/>
<path d="M373.45 40.9357H372.207V42.1786H373.45V40.9357Z" fill="#D42346"/>
<path d="M372.214 58.3143H370.971V59.5571H372.214V58.3143Z" fill="#D42346"/>
<path d="M372.214 44.6571H370.971V45.9H372.214V44.6571Z" fill="#D42346"/>
<path d="M372.214 43.4143H370.971V44.6571H372.214V43.4143Z" fill="#D42346"/>
<path d="M372.214 42.1786H370.971V43.4214H372.214V42.1786Z" fill="#D42346"/>
<path d="M372.214 40.9357H370.971V42.1786H372.214V40.9357Z" fill="#D42346"/>
<path d="M370.971 58.3143H369.729V59.5571H370.971V58.3143Z" fill="#D42346"/>
<path d="M370.971 39.6928H369.729V40.9357H370.971V39.6928Z" fill="#D42346"/>
<path d="M369.728 58.3143H368.485V59.5571H369.728V58.3143Z" fill="#D42346"/>
<path d="M369.728 39.6928H368.485V40.9357H369.728V39.6928Z" fill="#D42346"/>
<path d="M368.485 58.3143H367.242V59.5571H368.485V58.3143Z" fill="#D42346"/>
<path d="M368.485 44.6571H367.242V45.9H368.485V44.6571Z" fill="#D42346"/>
<path d="M368.485 43.4143H367.242V44.6571H368.485V43.4143Z" fill="#D42346"/>
<path d="M368.485 42.1786H367.242V43.4214H368.485V42.1786Z" fill="#D42346"/>
<path d="M368.485 40.9357H367.242V42.1786H368.485V40.9357Z" fill="#D42346"/>
<path d="M368.485 39.6928H367.242V40.9357H368.485V39.6928Z" fill="#D42346"/>
<path d="M368.485 29.7643H367.242V31.0071H368.485V29.7643Z" fill="#D42346"/>
<path d="M367.242 58.3143H365.999V59.5571H367.242V58.3143Z" fill="#D42346"/>
<path d="M367.242 38.4572H365.999V39.7H367.242V38.4572Z" fill="#D42346"/>
<path d="M367.242 29.7643H365.999V31.0071H367.242V29.7643Z" fill="#D42346"/>
<path d="M366.007 58.3143H364.764V59.5571H366.007V58.3143Z" fill="#D42346"/>
<path d="M366.007 38.4571H364.764V39.7H366.007V38.4571Z" fill="#D42346"/>
<path d="M366.007 26.0428H364.764V27.2857H366.007V26.0428Z" fill="#D42346"/>
<path d="M364.763 58.3143H363.521V59.5571H364.763V58.3143Z" fill="#D42346"/>
<path d="M364.763 44.6571H363.521V45.9H364.763V44.6571Z" fill="#D42346"/>
<path d="M364.763 43.4143H363.521V44.6571H364.763V43.4143Z" fill="#D42346"/>
<path d="M364.763 42.1786H363.521V43.4214H364.763V42.1786Z" fill="#D42346"/>
<path d="M364.763 40.9357H363.521V42.1786H364.763V40.9357Z" fill="#D42346"/>
<path d="M364.763 39.6928H363.521V40.9357H364.763V39.6928Z" fill="#D42346"/>
<path d="M364.763 38.4571H363.521V39.7H364.763V38.4571Z" fill="#D42346"/>
<path d="M364.763 37.2071H363.521V38.45H364.763V37.2071Z" fill="#D42346"/>
<path d="M364.763 35.9714H363.521V37.2143H364.763V35.9714Z" fill="#D42346"/>
<path d="M364.763 34.7286H363.521V35.9714H364.763V34.7286Z" fill="#D42346"/>
<path d="M364.763 33.4857H363.521V34.7286H364.763V33.4857Z" fill="#D42346"/>
<path d="M364.763 32.25H363.521V33.4929H364.763V32.25Z" fill="#D42346"/>
<path d="M364.763 31H363.521V32.2429H364.763V31Z" fill="#D42346"/>
<path d="M364.763 27.2786H363.521V28.5214H364.763V27.2786Z" fill="#D42346"/>
<path d="M363.521 58.3143H362.278V59.5571H363.521V58.3143Z" fill="#D42346"/>
<path d="M363.521 29.7643H362.278V31.0071H363.521V29.7643Z" fill="#D42346"/>
<path d="M362.278 58.3143H361.035V59.5571H362.278V58.3143Z" fill="#D42346"/>
<path d="M362.278 29.7643H361.035V31.0071H362.278V29.7643Z" fill="#D42346"/>
<path d="M362.278 27.2786H361.035V28.5214H362.278V27.2786Z" fill="#D42346"/>
<path d="M362.278 26.0428H361.035V27.2857H362.278V26.0428Z" fill="#D42346"/>
<path d="M361.043 58.3143H359.8V59.5571H361.043V58.3143Z" fill="#D42346"/>
<path d="M361.043 57.0714H359.8V58.3143H361.043V57.0714Z" fill="#D42346"/>
<path d="M361.043 55.8286H359.8V57.0714H361.043V55.8286Z" fill="#D42346"/>
<path d="M361.043 47.1429H359.8V48.3857H361.043V47.1429Z" fill="#D42346"/>
<path d="M361.043 45.9H359.8V47.1428H361.043V45.9Z" fill="#D42346"/>
<path d="M361.043 44.6571H359.8V45.9H361.043V44.6571Z" fill="#D42346"/>
<path d="M361.043 43.4143H359.8V44.6571H361.043V43.4143Z" fill="#D42346"/>
<path d="M361.043 42.1786H359.8V43.4214H361.043V42.1786Z" fill="#D42346"/>
<path d="M361.043 40.9357H359.8V42.1786H361.043V40.9357Z" fill="#D42346"/>
<path d="M361.043 39.6928H359.8V40.9357H361.043V39.6928Z" fill="#D42346"/>
<path d="M361.043 38.4571H359.8V39.7H361.043V38.4571Z" fill="#D42346"/>
<path d="M361.043 37.2071H359.8V38.45H361.043V37.2071Z" fill="#D42346"/>
<path d="M361.043 35.9714H359.8V37.2143H361.043V35.9714Z" fill="#D42346"/>
<path d="M361.043 34.7286H359.8V35.9714H361.043V34.7286Z" fill="#D42346"/>
<path d="M361.043 33.4857H359.8V34.7286H361.043V33.4857Z" fill="#D42346"/>
<path d="M361.043 32.25H359.8V33.4929H361.043V32.25Z" fill="#D42346"/>
<path d="M361.043 31H359.8V32.2429H361.043V31Z" fill="#D42346"/>
<path d="M359.799 54.5857H358.557V55.8286H359.799V54.5857Z" fill="#D42346"/>
<path d="M359.799 53.35H358.557V54.5929H359.799V53.35Z" fill="#D42346"/>
<path d="M359.799 45.9H358.557V47.1428H359.799V45.9Z" fill="#D42346"/>
<path d="M359.799 27.2786H358.557V28.5214H359.799V27.2786Z" fill="#D42346"/>
<path d="M358.557 52.1071H357.314V53.35H358.557V52.1071Z" fill="#D42346"/>
<path d="M358.557 50.8643H357.314V52.1071H358.557V50.8643Z" fill="#D42346"/>
<path d="M358.557 44.6571H357.314V45.9H358.557V44.6571Z" fill="#D42346"/>
<path d="M358.557 29.7643H357.314V31.0071H358.557V29.7643Z" fill="#D42346"/>
<path d="M358.557 26.0428H357.314V27.2857H358.557V26.0428Z" fill="#D42346"/>
<path d="M357.314 49.6214H356.071V50.8643H357.314V49.6214Z" fill="#D42346"/>
<path d="M357.314 48.3786H356.071V49.6214H357.314V48.3786Z" fill="#D42346"/>
<path d="M357.314 44.6571H356.071V45.9H357.314V44.6571Z" fill="#D42346"/>
<path d="M357.314 29.7643H356.071V31.0071H357.314V29.7643Z" fill="#D42346"/>
<path d="M356.071 47.1429H354.828V48.3857H356.071V47.1429Z" fill="#D42346"/>
<path d="M374.693 43.4143V52.1071H373.45V55.8286H372.207V58.3143H361.036V55.8286H359.8V53.35H358.557V50.8643H357.314V48.3786H356.071V45.9H358.557V47.1429H359.8V48.3786H361.036V31H363.521V45.9H364.764V39.6929H367.243V45.9H368.486V40.9357H370.971V45.9H372.207V42.1786H373.45V43.4143H374.693Z" fill="#F0F0F0"/>
<path d="M356.071 45.9H354.828V47.1428H356.071V45.9Z" fill="#D42346"/>
<path d="M356.078 44.6571H354.835V45.9H356.078V44.6571Z" fill="#D42346"/>
</g>
</g>
<defs>
<clipPath id="clip0_1331_66448">
<rect width="379" height="100" fill="white"/>
</clipPath>
<clipPath id="clip1_1331_66448">
<rect width="378.879" height="100" fill="white"/>
</clipPath>
</defs>
</svg>
