<svg width="24" height="24" viewBox="0 0 24 24" fill="none" xmlns="http://www.w3.org/2000/svg">
<path d="M6.6 0C2.964 0 0 2.952 0 6.6V7.2H2.4V6.6C2.4 5.48609 2.8425 4.4178 3.63015 3.63015C4.4178 2.8425 5.48609 2.4 6.6 2.4C8.4 2.4 9.912 3.516 10.512 5.088C10.044 4.896 9.54 4.8 9 4.8C7.332 4.8 5.88 5.784 5.208 7.2L7.296 8.4C7.548 7.704 8.22 7.2 9 7.2C9.47739 7.2 9.93523 7.38964 10.2728 7.72721C10.6104 8.06477 10.8 8.52261 10.8 9V10.8H13.2V9C13.2 8.52261 13.3896 8.06477 13.7272 7.72721C14.0648 7.38964 14.5226 7.2 15 7.2C15.792 7.2 16.452 7.704 16.704 8.4L18.792 7.2C18.12 5.784 16.68 4.8 15 4.8C14.46 4.8 13.956 4.896 13.488 5.088C14.088 3.516 15.6 2.4 17.4 2.4C18.5139 2.4 19.5822 2.8425 20.3699 3.63015C21.1575 4.4178 21.6 5.48609 21.6 6.6V7.2H24V6.6C24 4.84957 23.3046 3.17084 22.0669 1.9331C20.8292 0.695355 19.1504 0 17.4 0C15.168 0 13.2 1.116 12 2.808C10.8 1.116 8.832 0 6.6 0ZM4.8 12V14.4H6.504C7.104 15.78 8.22 16.884 9.6 17.484V20.4H0C0 20.4 0.984 21.876 1.692 22.932C2.136 23.604 2.88 24 3.684 24H20.316C21.12 24 21.864 23.604 22.308 22.932L24 20.4H14.4V17.484C15.78 16.884 16.896 15.78 17.496 14.4H19.2V12H4.8Z" fill="white"/>
</svg>
