<svg width="24" height="24" viewBox="0 0 24 24" fill="none" xmlns="http://www.w3.org/2000/svg">
<path d="M8 20.8C8.35833 20.8 8.67083 20.8375 8.9375 20.9125C9.20417 20.9875 9.45417 21.0958 9.6875 21.2375C9.92083 21.3791 10.1417 21.55 10.35 21.75C10.5583 21.95 10.7833 22.1666 11.025 22.4H0V3.19998H1.6V20.8H8ZM8 1.59998C8.55833 1.59998 9.10833 1.66664 9.65 1.79998C10.1917 1.93331 10.7083 2.14164 11.2 2.42498V20.3625C10.75 19.9875 10.25 19.7 9.7 19.5C9.15 19.3 8.58333 19.2 8 19.2H3.2V1.59998H8ZM24 3.19998V22.4H12.975C13.2083 22.1666 13.4292 21.95 13.6375 21.75C13.8458 21.55 14.0667 21.3833 14.3 21.25C14.5333 21.1166 14.7833 21.0083 15.05 20.925C15.3167 20.8416 15.6333 20.8 16 20.8H22.4V3.19998H24ZM16 19.2C15.4167 19.2 14.85 19.3 14.3 19.5C13.75 19.7 13.25 19.9875 12.8 20.3625V2.42498C13.2917 2.14998 13.8083 1.94581 14.35 1.81248C14.8917 1.67914 15.4417 1.60831 16 1.59998H20.8V19.2H16Z" fill="#3C3C3C"/>
</svg>
