<svg width="222" height="80" viewBox="0 0 222 80" fill="none" xmlns="http://www.w3.org/2000/svg">
<g filter="url(#filter0_bd_3486_100797)">
<rect x="8" y="7" width="206" height="64" rx="12" fill="black" fill-opacity="0.6" shape-rendering="crispEdges"/>
<rect x="8.5" y="7.5" width="205" height="63" rx="11.5" stroke="white" stroke-opacity="0.32" shape-rendering="crispEdges"/>
<path d="M42.853 44.7348C42.5281 44.7348 42.2559 44.6247 42.0364 44.4045C41.8162 44.185 41.7061 43.9128 41.7061 43.5878V36.8208L32.5018 41.8387C32.3298 41.9343 32.1527 42.0058 31.9708 42.0532C31.7895 42.1014 31.5938 42.1255 31.3835 42.1255C31.1732 42.1255 30.9775 42.1014 30.7963 42.0532C30.6143 42.0058 30.4373 41.9343 30.2652 41.8387L20.6022 36.5628C20.411 36.4672 20.263 36.3284 20.1583 36.1464C20.0528 35.9652 20 35.7694 20 35.5592C20 35.3489 20.0528 35.1531 20.1583 34.9719C20.263 34.7899 20.411 34.6512 20.6022 34.5556L30.2939 29.2796C30.466 29.184 30.6426 29.1121 30.8238 29.064C31.0058 29.0166 31.1924 28.9929 31.3835 28.9929C31.5747 28.9929 31.7612 29.0166 31.9432 29.064C32.1244 29.1121 32.3011 29.184 32.4731 29.2796L43.3979 35.2438C43.589 35.3393 43.7373 35.4777 43.8429 35.659C43.9476 35.8409 44 36.0371 44 36.2473V43.5878C44 43.9128 43.8899 44.185 43.6697 44.4045C43.4502 44.6247 43.178 44.7348 42.853 44.7348ZM31.3835 49.0072C31.1924 49.0072 31.0058 48.9835 30.8238 48.9361C30.6426 48.8879 30.466 48.816 30.2939 48.7205L24.5591 45.6237C24.1768 45.4134 23.8805 45.1316 23.6703 44.7784C23.46 44.4244 23.3548 44.0275 23.3548 43.5878V39.2294L29.8638 42.7563C30.1123 42.8901 30.3608 43.0094 30.6093 43.1142C30.8578 43.2197 31.1159 43.2724 31.3835 43.2724C31.6511 43.2724 31.9142 43.2151 32.1726 43.1004C32.4303 42.9857 32.6834 42.8614 32.9319 42.7276L39.4122 39.2294V43.5878C39.4122 44.0275 39.3071 44.4244 39.0968 44.7784C38.8865 45.1316 38.5902 45.4134 38.2079 45.6237L32.4731 48.7205C32.3011 48.816 32.1244 48.8879 31.9432 48.9361C31.7612 48.9835 31.5747 49.0072 31.3835 49.0072Z" fill="white"/>
<path d="M55.76 34.848L54.848 34.272C55.728 33.6 56.336 32.448 56.672 31.424L57.632 31.776C57.248 32.88 56.672 34.096 55.76 34.848ZM60.464 34.128H62.816C63.344 34.128 63.456 33.968 63.504 32.752C63.744 32.928 64.192 33.072 64.48 33.136C64.368 34.72 64.016 35.104 62.928 35.104H60.368C58.944 35.104 58.592 34.816 58.592 33.728V31.488H59.68V33.712C59.68 34.064 59.792 34.128 60.464 34.128ZM63.312 31.92L62.576 32.656C62.032 32.16 60.912 31.456 59.984 30.992L60.656 30.336C61.6 30.768 62.736 31.424 63.312 31.92ZM63.984 31.696L64.88 31.264C65.776 32.176 66.768 33.424 67.184 34.304L66.224 34.8C65.84 33.936 64.88 32.64 63.984 31.696ZM62.88 26.064V25.2H60.416V26.064H62.88ZM62.88 27.632V26.752H60.416V27.632H62.88ZM62.88 29.264V28.336H60.416V29.264H62.88ZM59.392 30.544V26.336C59.104 26.688 58.816 27.024 58.528 27.296C58.352 27.136 57.936 26.8 57.696 26.64C58.72 25.712 59.68 24.32 60.256 22.96L61.264 23.232C61.088 23.632 60.88 24.032 60.672 24.416H63.056C62.848 24.048 62.528 23.6 62.224 23.264L63.056 22.896C63.456 23.296 63.872 23.856 64.08 24.224L63.696 24.416H66.64V25.2H63.888V26.064H66.224V26.752H63.888V27.632H66.272V28.336H63.888V29.264H66.912V30.064H60.416V30.544H59.392ZM61.424 21.872H67.184V22.864H54.896V26.64V26.72C56 25.744 57.056 24.368 57.712 22.992L58.72 23.28C58.416 23.872 58.08 24.448 57.696 25.008V30.544H56.672V26.384C56.288 26.848 55.872 27.264 55.488 27.632C55.36 27.488 55.104 27.216 54.896 27.04C54.88 29.488 54.64 32.896 53.44 35.232C53.264 35.024 52.784 34.656 52.544 34.528C53.696 32.224 53.792 28.96 53.792 26.64V21.872H60.192C59.968 21.472 59.712 21.024 59.44 20.672L60.464 20.32C60.816 20.784 61.2 21.392 61.424 21.872ZM76.672 29.216H80.976V26.56H76.672V29.216ZM71.6 29.216H75.488V26.56H71.664V27.504C71.664 28.032 71.648 28.624 71.6 29.216ZM75.488 22.88H71.664V25.44H75.488V22.88ZM80.976 25.44V22.88H76.672V25.44H80.976ZM82.144 21.744V33.616C82.144 34.384 81.936 34.736 81.424 34.944C80.88 35.136 79.952 35.152 78.448 35.136C78.4 34.816 78.208 34.304 78.048 33.984C79.168 34.032 80.256 34.016 80.544 34.016C80.864 34 80.976 33.904 80.976 33.6V30.352H76.672V35.072H75.488V30.352H71.488C71.248 32.128 70.704 33.952 69.488 35.312C69.312 35.072 68.832 34.672 68.576 34.528C70.336 32.544 70.496 29.728 70.496 27.504V21.744H82.144ZM93.872 25.6L93.232 26.176C92.96 25.888 92.544 25.584 92.08 25.248C91.552 25.664 91.008 26 90.48 26.288C90.368 26.128 90.032 25.824 89.824 25.664C90.352 25.424 90.864 25.12 91.344 24.784C90.96 24.544 90.56 24.336 90.192 24.16L90.784 23.632C91.184 23.808 91.6 24.048 92.016 24.272C92.304 24.016 92.592 23.728 92.816 23.424L93.648 23.696C93.376 24.048 93.072 24.384 92.72 24.72C93.168 25.008 93.584 25.312 93.872 25.6ZM93.824 22.736L93.2 23.328C92.944 23.088 92.528 22.784 92.096 22.512C91.6 22.88 91.104 23.216 90.608 23.472C90.48 23.328 90.144 23.04 89.936 22.896C90.432 22.672 90.912 22.384 91.36 22.08C90.992 21.856 90.592 21.664 90.24 21.504L90.816 20.976C91.2 21.136 91.6 21.344 92.016 21.568C92.304 21.312 92.56 21.04 92.768 20.784L93.6 21.008C93.344 21.344 93.056 21.664 92.72 21.984C93.152 22.256 93.536 22.512 93.824 22.736ZM86.384 27.216V29.2H85.248V26.304H86.528L86.208 21.552C87.136 21.392 88.512 21.008 89.296 20.768L89.84 21.504C89.136 21.76 88.192 21.968 87.36 22.128L87.424 22.912H89.744V23.728H87.472L87.536 24.592H89.808V25.408H87.584L87.648 26.304H96.416C96.448 26.016 96.48 25.728 96.512 25.408H94.192V24.592H96.576L96.656 23.728H94.288V22.912H96.704L96.752 22.048H94.208V21.232H97.904C97.824 22.816 97.68 24.88 97.552 26.304H98.8V29.2H97.632V27.216H86.384ZM99.12 31.104V32.112H92.72V33.952C92.72 34.576 92.592 34.848 92.096 35.024C91.584 35.2 90.784 35.184 89.52 35.184C89.456 34.88 89.264 34.48 89.104 34.176C90.096 34.208 90.992 34.208 91.232 34.208C91.504 34.192 91.568 34.144 91.568 33.92V32.112H84.896V31.104H91.568V30.416C92.416 30.112 93.344 29.664 94.112 29.2H87.856V28.304H95.376L95.616 28.24L96.336 28.832C95.344 29.6 93.984 30.304 92.72 30.816V31.104H99.12ZM108.496 27.248L108.032 26.288C109.184 25.856 110.896 25.12 112.56 24.384L112.784 25.232C111.296 25.952 109.728 26.688 108.496 27.248ZM108.656 23.376L109.2 22.624C110.08 22.928 111.28 23.424 111.936 23.76L111.392 24.608C110.768 24.256 109.584 23.712 108.656 23.376ZM106.352 26.464V22.336H101.456V21.328H107.456V26.48C107.456 27.072 107.36 27.328 106.96 27.504C106.56 27.68 105.888 27.664 104.96 27.664C104.928 27.36 104.816 26.992 104.688 26.688C105.344 26.704 105.952 26.704 106.112 26.688C106.304 26.688 106.352 26.64 106.352 26.464ZM105.264 23.776L104.72 24.624C104.096 24.272 102.896 23.728 101.968 23.392L102.512 22.64C103.408 22.944 104.608 23.44 105.264 23.776ZM105.872 24.48L106.096 25.328C104.608 26.032 103.04 26.768 101.808 27.328L101.36 26.368C102.496 25.936 104.208 25.2 105.872 24.48ZM111.936 31.152V29.6H104.176V31.152H111.936ZM104.176 33.712H111.936V32.096H104.176V33.712ZM107.376 27.152L108.608 27.392C108.4 27.84 108.144 28.272 107.92 28.656H113.136V35.28H111.936V34.656H104.176V35.28H103.008V28.656H106.768C106.992 28.16 107.232 27.568 107.376 27.152ZM114.128 21.312V26.464C114.128 27.056 114.016 27.312 113.616 27.488C113.232 27.664 112.56 27.648 111.632 27.648C111.6 27.344 111.488 26.976 111.36 26.672C112.016 26.688 112.608 26.688 112.784 26.672C112.976 26.672 113.024 26.624 113.024 26.448V22.32H108.208V21.312H114.128ZM125.568 22.624H123.92C123.568 23.232 123.152 23.792 122.72 24.224C122.528 24.048 122.08 23.744 121.824 23.616C122.656 22.864 123.312 21.744 123.664 20.576L124.736 20.816C124.64 21.12 124.512 21.408 124.4 21.696H129.76L129.952 21.648L130.752 21.92C130.352 22.736 129.84 23.664 129.408 24.224L128.464 23.888C128.704 23.552 128.992 23.088 129.216 22.624H126.672V22.832C126.672 22.992 126.656 23.168 126.624 23.36C127.472 24.32 129.216 24.944 131.312 25.12C131.088 25.344 130.784 25.776 130.64 26.064C128.816 25.808 127.28 25.168 126.288 24.192C125.76 24.976 124.496 25.712 121.68 26.144C121.552 25.888 121.248 25.456 121.04 25.264C125.184 24.704 125.568 23.616 125.568 22.784V22.624ZM120.08 30.768V31.888H128.096V30.768H120.08ZM120.08 28.912V30H128.096V28.912H120.08ZM120.08 27.056V28.144H128.096V27.056H120.08ZM118.928 32.672V26.256H129.28V32.672H118.928ZM121.008 21.568V22.496H117.184V21.568H121.008ZM121.408 24.048V25.008H116.832V24.048H121.408ZM121.6 32.784L122.672 33.264C121.392 34.032 119.376 34.784 117.792 35.216C117.584 34.976 117.184 34.528 116.912 34.32C118.544 33.984 120.464 33.408 121.6 32.784ZM125.504 33.408L126.32 32.768C128.032 33.296 129.904 33.984 131.024 34.496L129.984 35.184C128.96 34.672 127.232 33.984 125.504 33.408ZM136.8 22.496L136.096 23.44C135.488 22.96 134.304 22.176 133.44 21.616L134.128 20.8C134.992 21.296 136.192 22.032 136.8 22.496ZM136.048 26.656L135.344 27.616C134.736 27.152 133.552 26.4 132.656 25.904L133.344 25.072C134.208 25.552 135.424 26.224 136.048 26.656ZM135.424 29.216L136.352 29.872C135.696 31.552 134.8 33.52 134.048 34.992L132.992 34.336C133.696 33.104 134.688 31.008 135.424 29.216ZM138.592 22.48V25.76C138.592 28.544 138.32 32.496 136.432 35.168C136.24 34.96 135.728 34.656 135.456 34.544C137.264 31.984 137.424 28.384 137.424 25.76V21.392H147.152V22.48H138.592ZM140.064 30.704L141.136 30.992C140.608 32.16 139.808 33.44 139.12 34.272C138.896 34.096 138.448 33.824 138.16 33.664C138.896 32.896 139.6 31.76 140.064 30.704ZM140.576 27.488V28.896H145.44V27.488H140.576ZM140.576 25.232V26.624H145.44V25.232H140.576ZM146.544 29.808H143.504V33.984C143.504 34.576 143.408 34.88 142.96 35.056C142.528 35.232 141.856 35.232 140.784 35.216C140.736 34.912 140.592 34.496 140.448 34.192C141.216 34.224 141.92 34.208 142.096 34.208C142.304 34.192 142.368 34.144 142.368 33.968V29.808H139.504V24.32H141.92C142.096 23.808 142.288 23.152 142.384 22.704L143.712 22.976C143.488 23.44 143.264 23.904 143.056 24.32H146.544V29.808ZM144.576 30.976L145.6 30.576C146.224 31.552 147.024 32.864 147.424 33.632L146.336 34.112C145.984 33.312 145.2 31.984 144.576 30.976ZM156.576 28.864H161.168V24.624H156.576V28.864ZM150.768 28.864H155.344V24.624H150.768V28.864ZM156.576 23.456H162.384V30.944H161.168V30.032H156.576V35.216H155.344V30.032H150.768V31.024H149.6V23.456H155.344V20.608H156.576V23.456ZM169.504 21.952L170.288 21.168C171.776 22.192 173.68 23.696 174.592 24.704L173.744 25.584C172.864 24.592 171.008 23.024 169.504 21.952ZM176.144 26.256L177.248 25.824C178.176 27.728 179.056 30.176 179.392 31.824L178.224 32.288C177.904 30.64 177.04 28.128 176.144 26.256ZM166.208 26.24L167.36 26.464C167.104 28.336 166.608 31.04 165.952 32.736L164.768 32.24C165.456 30.608 165.984 28.112 166.208 26.24ZM168.752 25.04H169.952V32.928C169.952 33.664 170.144 33.808 171.056 33.808H174.112C175.104 33.808 175.248 33.248 175.376 30.496C175.664 30.72 176.16 30.928 176.496 31.024C176.32 34.048 175.952 34.928 174.176 34.928H170.96C169.232 34.928 168.752 34.496 168.752 32.912V25.04Z" fill="white"/>
<path d="M57.5312 45.6328L53.7656 56H52.2266L56.5625 44.625H57.5547L57.5312 45.6328ZM60.6875 56L56.9141 45.6328L56.8906 44.625H57.8828L62.2344 56H60.6875ZM60.4922 51.7891V53.0234H54.1016V51.7891H60.4922ZM64.9844 49.1719V59.25H63.5312V47.5469H64.8594L64.9844 49.1719ZM70.6797 51.7031V51.8672C70.6797 52.4818 70.6068 53.0521 70.4609 53.5781C70.3151 54.099 70.1016 54.5521 69.8203 54.9375C69.5443 55.3229 69.2031 55.6224 68.7969 55.8359C68.3906 56.0495 67.9245 56.1562 67.3984 56.1562C66.862 56.1562 66.388 56.0677 65.9766 55.8906C65.5651 55.7135 65.2161 55.4557 64.9297 55.1172C64.6432 54.7786 64.4141 54.3724 64.2422 53.8984C64.0755 53.4245 63.9609 52.8906 63.8984 52.2969V51.4219C63.9609 50.7969 64.0781 50.237 64.25 49.7422C64.4219 49.2474 64.6484 48.8255 64.9297 48.4766C65.2161 48.1224 65.5625 47.8542 65.9688 47.6719C66.375 47.4844 66.8438 47.3906 67.375 47.3906C67.9062 47.3906 68.3776 47.4948 68.7891 47.7031C69.2005 47.9062 69.5469 48.1979 69.8281 48.5781C70.1094 48.9583 70.3203 49.4141 70.4609 49.9453C70.6068 50.4714 70.6797 51.0573 70.6797 51.7031ZM69.2266 51.8672V51.7031C69.2266 51.2812 69.1823 50.8854 69.0938 50.5156C69.0052 50.1406 68.8672 49.8125 68.6797 49.5312C68.4974 49.2448 68.263 49.0208 67.9766 48.8594C67.6901 48.6927 67.349 48.6094 66.9531 48.6094C66.5885 48.6094 66.2708 48.6719 66 48.7969C65.7344 48.9219 65.5078 49.0911 65.3203 49.3047C65.1328 49.513 64.9792 49.7526 64.8594 50.0234C64.7448 50.2891 64.6589 50.5651 64.6016 50.8516V52.875C64.7057 53.2396 64.8516 53.5833 65.0391 53.9062C65.2266 54.224 65.4766 54.4818 65.7891 54.6797C66.1016 54.8724 66.4948 54.9688 66.9688 54.9688C67.3594 54.9688 67.6953 54.888 67.9766 54.7266C68.263 54.5599 68.4974 54.3333 68.6797 54.0469C68.8672 53.7604 69.0052 53.4323 69.0938 53.0625C69.1823 52.6875 69.2266 52.2891 69.2266 51.8672ZM79.6406 54.7734V56H73.9531V54.7734H79.6406ZM74.25 44.625V56H72.7422V44.625H74.25ZM85.3359 44.625H89.1016C89.9557 44.625 90.6771 44.7552 91.2656 45.0156C91.8594 45.276 92.3099 45.6615 92.6172 46.1719C92.9297 46.6771 93.0859 47.2995 93.0859 48.0391C93.0859 48.5599 92.9792 49.0365 92.7656 49.4688C92.5573 49.8958 92.2552 50.2604 91.8594 50.5625C91.4688 50.8594 91 51.0807 90.4531 51.2266L90.0312 51.3906H86.4922L86.4766 50.1641H89.1484C89.6901 50.1641 90.1406 50.0703 90.5 49.8828C90.8594 49.6901 91.1302 49.4323 91.3125 49.1094C91.4948 48.7865 91.5859 48.4297 91.5859 48.0391C91.5859 47.6016 91.5 47.2188 91.3281 46.8906C91.1562 46.5625 90.8854 46.3099 90.5156 46.1328C90.151 45.9505 89.6797 45.8594 89.1016 45.8594H86.8438V56H85.3359V44.625ZM91.9844 56L89.2188 50.8438L90.7891 50.8359L93.5938 55.9062V56H91.9844ZM98.4844 56.1562C97.8958 56.1562 97.362 56.0573 96.8828 55.8594C96.4089 55.6562 96 55.3724 95.6562 55.0078C95.3177 54.6432 95.0573 54.2109 94.875 53.7109C94.6927 53.2109 94.6016 52.6641 94.6016 52.0703V51.7422C94.6016 51.0547 94.7031 50.4427 94.9062 49.9062C95.1094 49.3646 95.3854 48.9062 95.7344 48.5312C96.0833 48.1562 96.4792 47.8724 96.9219 47.6797C97.3646 47.487 97.8229 47.3906 98.2969 47.3906C98.901 47.3906 99.4219 47.4948 99.8594 47.7031C100.302 47.9115 100.664 48.2031 100.945 48.5781C101.227 48.9479 101.435 49.3854 101.57 49.8906C101.706 50.3906 101.773 50.9375 101.773 51.5312V52.1797H95.4609V51H100.328V50.8906C100.307 50.5156 100.229 50.151 100.094 49.7969C99.9635 49.4427 99.7552 49.151 99.4688 48.9219C99.1823 48.6927 98.7917 48.5781 98.2969 48.5781C97.9688 48.5781 97.6667 48.6484 97.3906 48.7891C97.1146 48.9245 96.8776 49.1276 96.6797 49.3984C96.4818 49.6693 96.3281 50 96.2188 50.3906C96.1094 50.7812 96.0547 51.2318 96.0547 51.7422V52.0703C96.0547 52.4714 96.1094 52.849 96.2188 53.2031C96.3333 53.5521 96.4974 53.8594 96.7109 54.125C96.9297 54.3906 97.1927 54.599 97.5 54.75C97.8125 54.901 98.1667 54.9766 98.5625 54.9766C99.0729 54.9766 99.5052 54.8724 99.8594 54.6641C100.214 54.4557 100.523 54.1771 100.789 53.8281L101.664 54.5234C101.482 54.7995 101.25 55.0625 100.969 55.3125C100.688 55.5625 100.341 55.7656 99.9297 55.9219C99.5234 56.0781 99.0417 56.1562 98.4844 56.1562ZM108.383 53.7578C108.383 53.5495 108.336 53.3568 108.242 53.1797C108.154 52.9974 107.969 52.8333 107.688 52.6875C107.411 52.5365 106.995 52.4062 106.438 52.2969C105.969 52.1979 105.544 52.0807 105.164 51.9453C104.789 51.8099 104.469 51.6458 104.203 51.4531C103.943 51.2604 103.742 51.0339 103.602 50.7734C103.461 50.513 103.391 50.2083 103.391 49.8594C103.391 49.526 103.464 49.2109 103.609 48.9141C103.76 48.6172 103.971 48.3542 104.242 48.125C104.518 47.8958 104.849 47.7161 105.234 47.5859C105.62 47.4557 106.049 47.3906 106.523 47.3906C107.201 47.3906 107.779 47.5104 108.258 47.75C108.737 47.9896 109.104 48.3099 109.359 48.7109C109.615 49.1068 109.742 49.5469 109.742 50.0312H108.297C108.297 49.7969 108.227 49.5703 108.086 49.3516C107.951 49.1276 107.75 48.9427 107.484 48.7969C107.224 48.651 106.904 48.5781 106.523 48.5781C106.122 48.5781 105.797 48.6406 105.547 48.7656C105.302 48.8854 105.122 49.0391 105.008 49.2266C104.898 49.4141 104.844 49.612 104.844 49.8203C104.844 49.9766 104.87 50.1172 104.922 50.2422C104.979 50.362 105.078 50.474 105.219 50.5781C105.359 50.6771 105.557 50.7708 105.812 50.8594C106.068 50.9479 106.393 51.0365 106.789 51.125C107.482 51.2812 108.052 51.4688 108.5 51.6875C108.948 51.9062 109.281 52.1745 109.5 52.4922C109.719 52.8099 109.828 53.1953 109.828 53.6484C109.828 54.0182 109.75 54.3568 109.594 54.6641C109.443 54.9714 109.221 55.237 108.93 55.4609C108.643 55.6797 108.299 55.8516 107.898 55.9766C107.503 56.0964 107.057 56.1562 106.562 56.1562C105.818 56.1562 105.188 56.0234 104.672 55.7578C104.156 55.4922 103.766 55.1484 103.5 54.7266C103.234 54.3047 103.102 53.8594 103.102 53.3906H104.555C104.576 53.7865 104.69 54.1016 104.898 54.3359C105.107 54.5651 105.362 54.7292 105.664 54.8281C105.966 54.9219 106.266 54.9688 106.562 54.9688C106.958 54.9688 107.289 54.9167 107.555 54.8125C107.826 54.7083 108.031 54.5651 108.172 54.3828C108.312 54.2005 108.383 53.9922 108.383 53.7578ZM111.344 51.8672V51.6875C111.344 51.0781 111.432 50.513 111.609 49.9922C111.786 49.4661 112.042 49.0104 112.375 48.625C112.708 48.2344 113.112 47.9323 113.586 47.7188C114.06 47.5 114.591 47.3906 115.18 47.3906C115.773 47.3906 116.307 47.5 116.781 47.7188C117.26 47.9323 117.667 48.2344 118 48.625C118.339 49.0104 118.596 49.4661 118.773 49.9922C118.951 50.513 119.039 51.0781 119.039 51.6875V51.8672C119.039 52.4766 118.951 53.0417 118.773 53.5625C118.596 54.0833 118.339 54.5391 118 54.9297C117.667 55.3151 117.263 55.6172 116.789 55.8359C116.32 56.0495 115.789 56.1562 115.195 56.1562C114.602 56.1562 114.068 56.0495 113.594 55.8359C113.12 55.6172 112.714 55.3151 112.375 54.9297C112.042 54.5391 111.786 54.0833 111.609 53.5625C111.432 53.0417 111.344 52.4766 111.344 51.8672ZM112.789 51.6875V51.8672C112.789 52.2891 112.839 52.6875 112.938 53.0625C113.036 53.4323 113.185 53.7604 113.383 54.0469C113.586 54.3333 113.839 54.5599 114.141 54.7266C114.443 54.888 114.794 54.9688 115.195 54.9688C115.591 54.9688 115.938 54.888 116.234 54.7266C116.536 54.5599 116.786 54.3333 116.984 54.0469C117.182 53.7604 117.331 53.4323 117.43 53.0625C117.534 52.6875 117.586 52.2891 117.586 51.8672V51.6875C117.586 51.2708 117.534 50.8776 117.43 50.5078C117.331 50.1328 117.18 49.8021 116.977 49.5156C116.779 49.224 116.529 48.9948 116.227 48.8281C115.93 48.6615 115.581 48.5781 115.18 48.5781C114.784 48.5781 114.435 48.6615 114.133 48.8281C113.836 48.9948 113.586 49.224 113.383 49.5156C113.185 49.8021 113.036 50.1328 112.938 50.5078C112.839 50.8776 112.789 51.2708 112.789 51.6875ZM126.023 54.0469V47.5469H127.477V56H126.094L126.023 54.0469ZM126.297 52.2656L126.898 52.25C126.898 52.8125 126.839 53.3333 126.719 53.8125C126.604 54.2865 126.417 54.6979 126.156 55.0469C125.896 55.3958 125.555 55.6693 125.133 55.8672C124.711 56.0599 124.198 56.1562 123.594 56.1562C123.182 56.1562 122.805 56.0964 122.461 55.9766C122.122 55.8568 121.831 55.6719 121.586 55.4219C121.341 55.1719 121.151 54.8464 121.016 54.4453C120.885 54.0443 120.82 53.5625 120.82 53V47.5469H122.266V53.0156C122.266 53.3958 122.307 53.7109 122.391 53.9609C122.479 54.2057 122.596 54.401 122.742 54.5469C122.893 54.6875 123.06 54.7865 123.242 54.8438C123.43 54.901 123.622 54.9297 123.82 54.9297C124.435 54.9297 124.922 54.8125 125.281 54.5781C125.641 54.3385 125.898 54.0182 126.055 53.6172C126.216 53.2109 126.297 52.7604 126.297 52.2656ZM131.125 48.875V56H129.68V47.5469H131.086L131.125 48.875ZM133.766 47.5L133.758 48.8438C133.638 48.8177 133.523 48.8021 133.414 48.7969C133.31 48.7865 133.19 48.7812 133.055 48.7812C132.721 48.7812 132.427 48.8333 132.172 48.9375C131.917 49.0417 131.701 49.1875 131.523 49.375C131.346 49.5625 131.206 49.7865 131.102 50.0469C131.003 50.3021 130.938 50.5833 130.906 50.8906L130.5 51.125C130.5 50.6146 130.549 50.1354 130.648 49.6875C130.753 49.2396 130.911 48.8438 131.125 48.5C131.339 48.151 131.609 47.8802 131.938 47.6875C132.271 47.4896 132.667 47.3906 133.125 47.3906C133.229 47.3906 133.349 47.4036 133.484 47.4297C133.62 47.4505 133.714 47.474 133.766 47.5ZM138.328 54.9688C138.672 54.9688 138.99 54.8984 139.281 54.7578C139.573 54.6172 139.812 54.4245 140 54.1797C140.188 53.9297 140.294 53.6458 140.32 53.3281H141.695C141.669 53.8281 141.5 54.2943 141.188 54.7266C140.88 55.1536 140.477 55.5 139.977 55.7656C139.477 56.026 138.927 56.1562 138.328 56.1562C137.693 56.1562 137.138 56.0443 136.664 55.8203C136.195 55.5964 135.805 55.2891 135.492 54.8984C135.185 54.5078 134.953 54.0599 134.797 53.5547C134.646 53.0443 134.57 52.5052 134.57 51.9375V51.6094C134.57 51.0417 134.646 50.5052 134.797 50C134.953 49.4896 135.185 49.0391 135.492 48.6484C135.805 48.2578 136.195 47.9505 136.664 47.7266C137.138 47.5026 137.693 47.3906 138.328 47.3906C138.99 47.3906 139.568 47.526 140.062 47.7969C140.557 48.0625 140.945 48.4271 141.227 48.8906C141.513 49.349 141.669 49.8698 141.695 50.4531H140.32C140.294 50.1042 140.195 49.7891 140.023 49.5078C139.857 49.2266 139.628 49.0026 139.336 48.8359C139.049 48.6641 138.714 48.5781 138.328 48.5781C137.885 48.5781 137.513 48.6667 137.211 48.8438C136.914 49.0156 136.677 49.25 136.5 49.5469C136.328 49.8385 136.203 50.1641 136.125 50.5234C136.052 50.8776 136.016 51.2396 136.016 51.6094V51.9375C136.016 52.3073 136.052 52.6719 136.125 53.0312C136.198 53.3906 136.32 53.7161 136.492 54.0078C136.669 54.2995 136.906 54.5339 137.203 54.7109C137.505 54.8828 137.88 54.9688 138.328 54.9688ZM146.828 56.1562C146.24 56.1562 145.706 56.0573 145.227 55.8594C144.753 55.6562 144.344 55.3724 144 55.0078C143.661 54.6432 143.401 54.2109 143.219 53.7109C143.036 53.2109 142.945 52.6641 142.945 52.0703V51.7422C142.945 51.0547 143.047 50.4427 143.25 49.9062C143.453 49.3646 143.729 48.9062 144.078 48.5312C144.427 48.1562 144.823 47.8724 145.266 47.6797C145.708 47.487 146.167 47.3906 146.641 47.3906C147.245 47.3906 147.766 47.4948 148.203 47.7031C148.646 47.9115 149.008 48.2031 149.289 48.5781C149.57 48.9479 149.779 49.3854 149.914 49.8906C150.049 50.3906 150.117 50.9375 150.117 51.5312V52.1797H143.805V51H148.672V50.8906C148.651 50.5156 148.573 50.151 148.438 49.7969C148.307 49.4427 148.099 49.151 147.812 48.9219C147.526 48.6927 147.135 48.5781 146.641 48.5781C146.312 48.5781 146.01 48.6484 145.734 48.7891C145.458 48.9245 145.221 49.1276 145.023 49.3984C144.826 49.6693 144.672 50 144.562 50.3906C144.453 50.7812 144.398 51.2318 144.398 51.7422V52.0703C144.398 52.4714 144.453 52.849 144.562 53.2031C144.677 53.5521 144.841 53.8594 145.055 54.125C145.273 54.3906 145.536 54.599 145.844 54.75C146.156 54.901 146.51 54.9766 146.906 54.9766C147.417 54.9766 147.849 54.8724 148.203 54.6641C148.557 54.4557 148.867 54.1771 149.133 53.8281L150.008 54.5234C149.826 54.7995 149.594 55.0625 149.312 55.3125C149.031 55.5625 148.685 55.7656 148.273 55.9219C147.867 56.0781 147.385 56.1562 146.828 56.1562ZM162.859 52.3828H164.359C164.281 53.1016 164.076 53.7448 163.742 54.3125C163.409 54.8802 162.938 55.3307 162.328 55.6641C161.719 55.9922 160.958 56.1562 160.047 56.1562C159.38 56.1562 158.773 56.0312 158.227 55.7812C157.685 55.5312 157.219 55.1771 156.828 54.7188C156.438 54.2552 156.135 53.7005 155.922 53.0547C155.714 52.4036 155.609 51.6797 155.609 50.8828V49.75C155.609 48.9531 155.714 48.2318 155.922 47.5859C156.135 46.9349 156.44 46.3776 156.836 45.9141C157.237 45.4505 157.719 45.0938 158.281 44.8438C158.844 44.5938 159.477 44.4688 160.18 44.4688C161.039 44.4688 161.766 44.6302 162.359 44.9531C162.953 45.276 163.414 45.724 163.742 46.2969C164.076 46.8646 164.281 47.5234 164.359 48.2734H162.859C162.786 47.7422 162.651 47.2865 162.453 46.9062C162.255 46.5208 161.974 46.224 161.609 46.0156C161.245 45.8073 160.768 45.7031 160.18 45.7031C159.674 45.7031 159.229 45.7995 158.844 45.9922C158.464 46.1849 158.143 46.4583 157.883 46.8125C157.628 47.1667 157.435 47.5911 157.305 48.0859C157.174 48.5807 157.109 49.1302 157.109 49.7344V50.8828C157.109 51.4401 157.167 51.9635 157.281 52.4531C157.401 52.9427 157.581 53.3724 157.82 53.7422C158.06 54.112 158.365 54.4036 158.734 54.6172C159.104 54.8255 159.542 54.9297 160.047 54.9297C160.688 54.9297 161.198 54.8281 161.578 54.625C161.958 54.4219 162.245 54.1302 162.438 53.75C162.635 53.3698 162.776 52.9141 162.859 52.3828ZM169.703 56.1562C169.115 56.1562 168.581 56.0573 168.102 55.8594C167.628 55.6562 167.219 55.3724 166.875 55.0078C166.536 54.6432 166.276 54.2109 166.094 53.7109C165.911 53.2109 165.82 52.6641 165.82 52.0703V51.7422C165.82 51.0547 165.922 50.4427 166.125 49.9062C166.328 49.3646 166.604 48.9062 166.953 48.5312C167.302 48.1562 167.698 47.8724 168.141 47.6797C168.583 47.487 169.042 47.3906 169.516 47.3906C170.12 47.3906 170.641 47.4948 171.078 47.7031C171.521 47.9115 171.883 48.2031 172.164 48.5781C172.445 48.9479 172.654 49.3854 172.789 49.8906C172.924 50.3906 172.992 50.9375 172.992 51.5312V52.1797H166.68V51H171.547V50.8906C171.526 50.5156 171.448 50.151 171.312 49.7969C171.182 49.4427 170.974 49.151 170.688 48.9219C170.401 48.6927 170.01 48.5781 169.516 48.5781C169.188 48.5781 168.885 48.6484 168.609 48.7891C168.333 48.9245 168.096 49.1276 167.898 49.3984C167.701 49.6693 167.547 50 167.438 50.3906C167.328 50.7812 167.273 51.2318 167.273 51.7422V52.0703C167.273 52.4714 167.328 52.849 167.438 53.2031C167.552 53.5521 167.716 53.8594 167.93 54.125C168.148 54.3906 168.411 54.599 168.719 54.75C169.031 54.901 169.385 54.9766 169.781 54.9766C170.292 54.9766 170.724 54.8724 171.078 54.6641C171.432 54.4557 171.742 54.1771 172.008 53.8281L172.883 54.5234C172.701 54.7995 172.469 55.0625 172.188 55.3125C171.906 55.5625 171.56 55.7656 171.148 55.9219C170.742 56.0781 170.26 56.1562 169.703 56.1562ZM176.125 49.3516V56H174.68V47.5469H176.047L176.125 49.3516ZM175.781 51.4531L175.18 51.4297C175.185 50.8516 175.271 50.3177 175.438 49.8281C175.604 49.3333 175.839 48.9036 176.141 48.5391C176.443 48.1745 176.802 47.8932 177.219 47.6953C177.641 47.4922 178.107 47.3906 178.617 47.3906C179.034 47.3906 179.409 47.4479 179.742 47.5625C180.076 47.6719 180.359 47.849 180.594 48.0938C180.833 48.3385 181.016 48.6562 181.141 49.0469C181.266 49.4323 181.328 49.9036 181.328 50.4609V56H179.875V50.4453C179.875 50.0026 179.81 49.6484 179.68 49.3828C179.549 49.112 179.359 48.9167 179.109 48.7969C178.859 48.6719 178.552 48.6094 178.188 48.6094C177.828 48.6094 177.5 48.6849 177.203 48.8359C176.911 48.987 176.659 49.1953 176.445 49.4609C176.237 49.7266 176.073 50.0312 175.953 50.375C175.839 50.7135 175.781 51.0729 175.781 51.4531ZM187.062 47.5469V48.6562H182.492V47.5469H187.062ZM184.039 45.4922H185.484V53.9062C185.484 54.1927 185.529 54.4089 185.617 54.5547C185.706 54.7005 185.82 54.7969 185.961 54.8438C186.102 54.8906 186.253 54.9141 186.414 54.9141C186.534 54.9141 186.659 54.9036 186.789 54.8828C186.924 54.8568 187.026 54.8359 187.094 54.8203L187.102 56C186.987 56.0365 186.836 56.0703 186.648 56.1016C186.466 56.138 186.245 56.1562 185.984 56.1562C185.63 56.1562 185.305 56.0859 185.008 55.9453C184.711 55.8047 184.474 55.5703 184.297 55.2422C184.125 54.9089 184.039 54.4609 184.039 53.8984V45.4922ZM190.203 48.875V56H188.758V47.5469H190.164L190.203 48.875ZM192.844 47.5L192.836 48.8438C192.716 48.8177 192.602 48.8021 192.492 48.7969C192.388 48.7865 192.268 48.7812 192.133 48.7812C191.799 48.7812 191.505 48.8333 191.25 48.9375C190.995 49.0417 190.779 49.1875 190.602 49.375C190.424 49.5625 190.284 49.7865 190.18 50.0469C190.081 50.3021 190.016 50.5833 189.984 50.8906L189.578 51.125C189.578 50.6146 189.628 50.1354 189.727 49.6875C189.831 49.2396 189.99 48.8438 190.203 48.5C190.417 48.151 190.688 47.8802 191.016 47.6875C191.349 47.4896 191.745 47.3906 192.203 47.3906C192.307 47.3906 192.427 47.4036 192.562 47.4297C192.698 47.4505 192.792 47.474 192.844 47.5ZM197.531 56.1562C196.943 56.1562 196.409 56.0573 195.93 55.8594C195.456 55.6562 195.047 55.3724 194.703 55.0078C194.365 54.6432 194.104 54.2109 193.922 53.7109C193.74 53.2109 193.648 52.6641 193.648 52.0703V51.7422C193.648 51.0547 193.75 50.4427 193.953 49.9062C194.156 49.3646 194.432 48.9062 194.781 48.5312C195.13 48.1562 195.526 47.8724 195.969 47.6797C196.411 47.487 196.87 47.3906 197.344 47.3906C197.948 47.3906 198.469 47.4948 198.906 47.7031C199.349 47.9115 199.711 48.2031 199.992 48.5781C200.273 48.9479 200.482 49.3854 200.617 49.8906C200.753 50.3906 200.82 50.9375 200.82 51.5312V52.1797H194.508V51H199.375V50.8906C199.354 50.5156 199.276 50.151 199.141 49.7969C199.01 49.4427 198.802 49.151 198.516 48.9219C198.229 48.6927 197.839 48.5781 197.344 48.5781C197.016 48.5781 196.714 48.6484 196.438 48.7891C196.161 48.9245 195.924 49.1276 195.727 49.3984C195.529 49.6693 195.375 50 195.266 50.3906C195.156 50.7812 195.102 51.2318 195.102 51.7422V52.0703C195.102 52.4714 195.156 52.849 195.266 53.2031C195.38 53.5521 195.544 53.8594 195.758 54.125C195.977 54.3906 196.24 54.599 196.547 54.75C196.859 54.901 197.214 54.9766 197.609 54.9766C198.12 54.9766 198.552 54.8724 198.906 54.6641C199.26 54.4557 199.57 54.1771 199.836 53.8281L200.711 54.5234C200.529 54.7995 200.297 55.0625 200.016 55.3125C199.734 55.5625 199.388 55.7656 198.977 55.9219C198.57 56.0781 198.089 56.1562 197.531 56.1562Z" fill="white"/>
</g>
<defs>
<filter id="filter0_bd_3486_100797" x="-4" y="-5" width="230" height="88" filterUnits="userSpaceOnUse" color-interpolation-filters="sRGB">
<feFlood flood-opacity="0" result="BackgroundImageFix"/>
<feGaussianBlur in="BackgroundImageFix" stdDeviation="6"/>
<feComposite in2="SourceAlpha" operator="in" result="effect1_backgroundBlur_3486_100797"/>
<feColorMatrix in="SourceAlpha" type="matrix" values="0 0 0 0 0 0 0 0 0 0 0 0 0 0 0 0 0 0 127 0" result="hardAlpha"/>
<feOffset dy="1"/>
<feGaussianBlur stdDeviation="4"/>
<feComposite in2="hardAlpha" operator="out"/>
<feColorMatrix type="matrix" values="0 0 0 0 0 0 0 0 0 0 0 0 0 0 0 0 0 0 0.5 0"/>
<feBlend mode="normal" in2="effect1_backgroundBlur_3486_100797" result="effect2_dropShadow_3486_100797"/>
<feBlend mode="normal" in="SourceGraphic" in2="effect2_dropShadow_3486_100797" result="shape"/>
</filter>
</defs>
</svg>
