<svg width="206" height="80" viewBox="0 0 206 80" fill="none" xmlns="http://www.w3.org/2000/svg">
<g filter="url(#filter0_bd_3486_100816)">
<rect x="8" y="7" width="190" height="64" rx="12" fill="black" fill-opacity="0.6" shape-rendering="crispEdges"/>
<rect x="8.5" y="7.5" width="189" height="63" rx="11.5" stroke="white" stroke-opacity="0.32" shape-rendering="crispEdges"/>
<path d="M32 27C30.0636 26.9996 28.1811 27.6379 26.6444 28.816C25.1076 29.9941 24.0023 31.6462 23.4999 33.5162C22.9974 35.3863 23.1259 37.3699 23.8652 39.1595C24.6046 40.9492 25.9137 42.445 27.5896 43.4151C28.3213 43.8396 28.7788 44.4902 28.7991 45.1462C28.8047 45.3219 28.868 45.4909 28.9792 45.627C29.0905 45.7631 29.2435 45.8588 29.4145 45.8992C29.79 45.9874 30.1718 46.0567 30.5601 46.1072C30.9046 46.1509 31.2 45.8747 31.2 45.527V40.5555C30.8631 40.5175 30.5292 40.4566 30.2006 40.3731C30.0989 40.3469 30.0033 40.301 29.9193 40.2378C29.8353 40.1747 29.7645 40.0956 29.7111 40.0051C29.6577 39.9147 29.6226 39.8145 29.6078 39.7105C29.5931 39.6065 29.599 39.5005 29.6252 39.3988C29.6514 39.297 29.6974 39.2014 29.7605 39.1174C29.8236 39.0334 29.9027 38.9627 29.9932 38.9093C30.0837 38.8558 30.1838 38.8208 30.2878 38.806C30.3918 38.7913 30.4978 38.7972 30.5995 38.8234C31.5181 39.0602 32.4818 39.0602 33.4004 38.8234C33.5032 38.7937 33.6109 38.785 33.7171 38.7978C33.8233 38.8105 33.9259 38.8444 34.0188 38.8975C34.1116 38.9505 34.1929 39.0217 34.2578 39.1067C34.3227 39.1917 34.3699 39.2889 34.3966 39.3925C34.4233 39.4961 34.4289 39.604 34.4132 39.7098C34.3974 39.8156 34.3606 39.9171 34.3049 40.0085C34.2493 40.0998 34.1758 40.179 34.089 40.2415C34.0021 40.3039 33.9037 40.3483 33.7994 40.3721C33.4708 40.4558 33.1369 40.5171 32.7999 40.5555V45.5259C32.7987 45.6077 32.8148 45.6888 32.8474 45.7639C32.8799 45.8389 32.928 45.9062 32.9886 45.9612C33.0491 46.0162 33.1207 46.0576 33.1985 46.0828C33.2763 46.108 33.3586 46.1163 33.4399 46.1072C33.8282 46.0574 34.21 45.9881 34.5854 45.8992C34.7565 45.8588 34.9095 45.7631 35.0207 45.627C35.132 45.4909 35.1953 45.3219 35.2009 45.1462C35.2222 44.4902 35.6787 43.8396 36.4104 43.4151C38.0863 42.445 39.3953 40.9492 40.1347 39.1595C40.8741 37.3699 41.0025 35.3863 40.5001 33.5162C39.9976 31.6462 38.8924 29.9941 37.3556 28.816C35.8188 27.6379 33.9364 26.9996 32 27Z" fill="white"/>
<path fill-rule="evenodd" clip-rule="evenodd" d="M28.8142 47.4255C28.8337 47.3222 28.8735 47.2239 28.9311 47.136C28.9887 47.0481 29.0631 46.9724 29.1499 46.9133C29.2368 46.8542 29.3345 46.8127 29.4374 46.7914C29.5403 46.77 29.6463 46.7691 29.7496 46.7887C31.2366 47.0714 32.7636 47.0714 34.2507 46.7887C34.3552 46.7657 34.4632 46.7639 34.5684 46.7834C34.6736 46.8029 34.7738 46.8433 34.8631 46.9022C34.9524 46.9611 35.029 47.0374 35.0884 47.1264C35.1477 47.2154 35.1886 47.3155 35.2085 47.4206C35.2285 47.5257 35.2272 47.6337 35.2047 47.7383C35.1822 47.8429 35.1389 47.9419 35.0774 48.0295C35.016 48.1171 34.9376 48.1915 34.8468 48.2482C34.7561 48.3049 34.655 48.3429 34.5493 48.3598C32.8649 48.68 31.1353 48.68 29.4509 48.3598C29.2426 48.3203 29.0586 48.1996 28.9392 48.0244C28.8198 47.8492 28.7748 47.6338 28.8142 47.4255ZM29.6045 50.0323C29.6154 49.9278 29.6468 49.8265 29.6969 49.7341C29.747 49.6417 29.8148 49.5601 29.8964 49.494C29.978 49.4278 30.0718 49.3784 30.1726 49.3485C30.2733 49.3186 30.3789 49.3088 30.4834 49.3198C31.4918 49.425 32.5084 49.425 33.5168 49.3198C33.6213 49.3089 33.7269 49.3186 33.8277 49.3485C33.9284 49.3784 34.0222 49.4278 34.1038 49.494C34.1855 49.5602 34.2532 49.6418 34.3033 49.7341C34.3534 49.8265 34.3848 49.9278 34.3957 50.0323C34.4066 50.1368 34.3969 50.2424 34.367 50.3431C34.3371 50.4438 34.2877 50.5377 34.2215 50.6193C34.1553 50.7009 34.0737 50.7687 33.9814 50.8188C33.889 50.8688 33.7877 50.9002 33.6832 50.9112C32.5643 51.0295 31.436 51.0295 30.317 50.9112C30.2125 50.9002 30.1112 50.8688 30.0188 50.8188C29.9265 50.7687 29.8449 50.7009 29.7787 50.6193C29.7126 50.5377 29.6631 50.4438 29.6332 50.3431C29.6033 50.2424 29.5936 50.1368 29.6045 50.0323Z" fill="white"/>
<path d="M56.528 22.576L55.648 23.152C55.408 22.576 54.88 21.68 54.448 21.024L55.296 20.528C55.76 21.168 56.288 22.016 56.528 22.576ZM58.544 23.328V24.304H52.816V23.328H58.544ZM57.888 26.368H53.44V25.424H57.888V26.368ZM56.928 30.624H54.384V33.264H56.928V30.624ZM57.904 29.632V34.256H54.384V35.008H53.424V29.632H57.904ZM53.44 28.448V27.504H57.904V28.448H53.44ZM62.944 26.64H60.48V28.352H62.944V26.64ZM60.48 31.04H62.944V29.312H60.48V31.04ZM61.2 22.992H67.056C67.056 22.992 67.04 23.456 67.04 23.616C66.816 31.2 66.608 33.728 66.016 34.512C65.68 34.96 65.344 35.12 64.832 35.168C64.32 35.216 63.472 35.2 62.64 35.152C62.64 34.816 62.496 34.304 62.272 33.984C63.2 34.048 64.032 34.064 64.368 34.064C64.656 34.064 64.832 34.016 64.992 33.792C65.488 33.248 65.696 30.784 65.888 24.096H60.688C60.384 24.656 60.064 25.2 59.744 25.664H63.936V32.032H60.48V32.848H59.52V25.984C59.376 26.176 59.216 26.368 59.072 26.544C58.848 26.352 58.352 26 58.064 25.824C59.264 24.576 60.24 22.64 60.784 20.608L61.952 20.88C61.744 21.6 61.472 22.32 61.2 22.992ZM74.128 22.256H70.688V23.6H74.128V22.256ZM70.688 25.936H74.128V24.48H70.688V25.936ZM75.264 26.896H70.688V35.232H69.52V21.296H75.264V26.896ZM77.808 29.328H74.048V31.968H77.808V29.328ZM78.912 32.976H74.048V33.936H72.96V28.32H78.912V32.976ZM77.824 25.952H81.376V24.48H77.824V25.952ZM81.376 22.24H77.824V23.6H81.376V22.24ZM82.576 21.296V33.616C82.576 34.4 82.384 34.8 81.872 35.008C81.312 35.2 80.4 35.216 79.008 35.216C78.944 34.88 78.752 34.32 78.592 34C79.632 34.048 80.672 34.032 80.992 34.016C81.28 34.016 81.376 33.92 81.376 33.616V26.896H76.688V21.296H82.576ZM91.248 29.84H89.36C89.296 29.952 89.232 30.064 89.184 30.176C89.408 30.96 89.728 31.6 90.112 32.112C90.608 31.488 90.976 30.72 91.248 29.84ZM91.792 28.944L92.4 29.104C92.096 30.656 91.52 31.872 90.784 32.816C91.92 33.776 93.456 34 95.312 34C95.808 34 98.768 34 99.424 33.984C99.264 34.224 99.104 34.704 99.056 34.992H95.264C93.088 34.992 91.392 34.704 90.128 33.536C89.28 34.336 88.288 34.896 87.168 35.296C87.056 35.056 86.816 34.656 86.608 34.464C87.696 34.144 88.688 33.584 89.488 32.8C89.152 32.32 88.832 31.744 88.56 31.024C88.24 31.472 87.872 31.856 87.504 32.176C87.376 32.032 87.056 31.712 86.832 31.536C86.608 32.864 86.224 34.192 85.568 35.264C85.376 35.04 84.88 34.656 84.64 34.544C85.888 32.464 86.016 29.552 86.016 27.456V23.552H91.232V20.624H92.4V21.632H97.872V22.528H92.4V23.552H97.984L98.176 23.504L99.008 23.728C98.672 24.64 98.288 25.68 97.904 26.32L96.928 26.016C97.152 25.632 97.36 25.056 97.568 24.496H92.352V25.456L96.416 25.2L96.464 26L92.352 26.272V26.64C92.352 27.088 92.448 27.232 92.992 27.232H96.72C97.184 27.232 98.032 27.2 98.368 27.136C98.4 27.44 98.416 27.76 98.464 28.016C98.176 28.096 97.472 28.096 96.816 28.096H92.88C91.536 28.096 91.232 27.68 91.232 26.64V26.352L88.064 26.56L88.016 25.744L91.232 25.536V24.496H87.152V27.472C87.152 28.608 87.088 30.016 86.864 31.408C87.92 30.512 88.8 29.168 89.28 27.68L90.224 27.92C90.096 28.288 89.968 28.624 89.808 28.976H91.6L91.792 28.944ZM97.888 33.12H96.992C96.192 33.12 95.968 32.912 95.968 32.112V29.872H94.336V30.24C94.336 31.296 94.064 32.56 92.832 33.488C92.688 33.296 92.288 32.928 92.096 32.8C93.168 32.016 93.36 31.04 93.36 30.208V28.96H96.896V32.112C96.896 32.416 96.928 32.464 97.136 32.464H97.76C97.952 32.464 98 32.288 98.048 31.44C98.224 31.568 98.544 31.68 98.784 31.728C98.72 32.816 98.48 33.12 97.888 33.12Z" fill="white"/>
<path d="M54.9375 44.625V56H53.4297V44.625H54.9375ZM58.9062 49.3516V56H57.4609V47.5469H58.8281L58.9062 49.3516ZM58.5625 51.4531L57.9609 51.4297C57.9661 50.8516 58.0521 50.3177 58.2188 49.8281C58.3854 49.3333 58.6198 48.9036 58.9219 48.5391C59.224 48.1745 59.5833 47.8932 60 47.6953C60.4219 47.4922 60.888 47.3906 61.3984 47.3906C61.8151 47.3906 62.1901 47.4479 62.5234 47.5625C62.8568 47.6719 63.1406 47.849 63.375 48.0938C63.6146 48.3385 63.7969 48.6562 63.9219 49.0469C64.0469 49.4323 64.1094 49.9036 64.1094 50.4609V56H62.6562V50.4453C62.6562 50.0026 62.5911 49.6484 62.4609 49.3828C62.3307 49.112 62.1406 48.9167 61.8906 48.7969C61.6406 48.6719 61.3333 48.6094 60.9688 48.6094C60.6094 48.6094 60.2812 48.6849 59.9844 48.8359C59.6927 48.987 59.4401 49.1953 59.2266 49.4609C59.0182 49.7266 58.8542 50.0312 58.7344 50.375C58.6198 50.7135 58.5625 51.0729 58.5625 51.4531ZM68.4609 56H67.0156V46.6562C67.0156 46.0469 67.125 45.5339 67.3438 45.1172C67.5677 44.6953 67.888 44.3776 68.3047 44.1641C68.7214 43.9453 69.2161 43.8359 69.7891 43.8359C69.9557 43.8359 70.1224 43.8464 70.2891 43.8672C70.4609 43.888 70.6276 43.9193 70.7891 43.9609L70.7109 45.1406C70.6016 45.1146 70.4766 45.0964 70.3359 45.0859C70.2005 45.0755 70.0651 45.0703 69.9297 45.0703C69.6224 45.0703 69.3568 45.1328 69.1328 45.2578C68.9141 45.3776 68.7474 45.5547 68.6328 45.7891C68.5182 46.0234 68.4609 46.3125 68.4609 46.6562V56ZM70.2578 47.5469V48.6562H65.6797V47.5469H70.2578ZM71.4844 51.8672V51.6875C71.4844 51.0781 71.5729 50.513 71.75 49.9922C71.9271 49.4661 72.1823 49.0104 72.5156 48.625C72.849 48.2344 73.2526 47.9323 73.7266 47.7188C74.2005 47.5 74.7318 47.3906 75.3203 47.3906C75.9141 47.3906 76.4479 47.5 76.9219 47.7188C77.401 47.9323 77.8073 48.2344 78.1406 48.625C78.4792 49.0104 78.737 49.4661 78.9141 49.9922C79.0911 50.513 79.1797 51.0781 79.1797 51.6875V51.8672C79.1797 52.4766 79.0911 53.0417 78.9141 53.5625C78.737 54.0833 78.4792 54.5391 78.1406 54.9297C77.8073 55.3151 77.4036 55.6172 76.9297 55.8359C76.4609 56.0495 75.9297 56.1562 75.3359 56.1562C74.7422 56.1562 74.2083 56.0495 73.7344 55.8359C73.2604 55.6172 72.8542 55.3151 72.5156 54.9297C72.1823 54.5391 71.9271 54.0833 71.75 53.5625C71.5729 53.0417 71.4844 52.4766 71.4844 51.8672ZM72.9297 51.6875V51.8672C72.9297 52.2891 72.9792 52.6875 73.0781 53.0625C73.1771 53.4323 73.3255 53.7604 73.5234 54.0469C73.7266 54.3333 73.9792 54.5599 74.2812 54.7266C74.5833 54.888 74.9349 54.9688 75.3359 54.9688C75.7318 54.9688 76.0781 54.888 76.375 54.7266C76.6771 54.5599 76.9271 54.3333 77.125 54.0469C77.3229 53.7604 77.4714 53.4323 77.5703 53.0625C77.6745 52.6875 77.7266 52.2891 77.7266 51.8672V51.6875C77.7266 51.2708 77.6745 50.8776 77.5703 50.5078C77.4714 50.1328 77.3203 49.8021 77.1172 49.5156C76.9193 49.224 76.6693 48.9948 76.3672 48.8281C76.0703 48.6615 75.7214 48.5781 75.3203 48.5781C74.9245 48.5781 74.5755 48.6615 74.2734 48.8281C73.9766 48.9948 73.7266 49.224 73.5234 49.5156C73.3255 49.8021 73.1771 50.1328 73.0781 50.5078C72.9792 50.8776 72.9297 51.2708 72.9297 51.6875ZM82.4375 48.875V56H80.9922V47.5469H82.3984L82.4375 48.875ZM85.0781 47.5L85.0703 48.8438C84.9505 48.8177 84.8359 48.8021 84.7266 48.7969C84.6224 48.7865 84.5026 48.7812 84.3672 48.7812C84.0339 48.7812 83.7396 48.8333 83.4844 48.9375C83.2292 49.0417 83.013 49.1875 82.8359 49.375C82.6589 49.5625 82.5182 49.7865 82.4141 50.0469C82.3151 50.3021 82.25 50.5833 82.2188 50.8906L81.8125 51.125C81.8125 50.6146 81.862 50.1354 81.9609 49.6875C82.0651 49.2396 82.224 48.8438 82.4375 48.5C82.651 48.151 82.9219 47.8802 83.25 47.6875C83.5833 47.4896 83.9792 47.3906 84.4375 47.3906C84.5417 47.3906 84.6615 47.4036 84.7969 47.4297C84.9323 47.4505 85.026 47.474 85.0781 47.5ZM87.8516 49.2266V56H86.3984V47.5469H87.7734L87.8516 49.2266ZM87.5547 51.4531L86.8828 51.4297C86.888 50.8516 86.9635 50.3177 87.1094 49.8281C87.2552 49.3333 87.4714 48.9036 87.7578 48.5391C88.0443 48.1745 88.401 47.8932 88.8281 47.6953C89.2552 47.4922 89.75 47.3906 90.3125 47.3906C90.7083 47.3906 91.0729 47.4479 91.4062 47.5625C91.7396 47.6719 92.0286 47.8464 92.2734 48.0859C92.5182 48.3255 92.7083 48.6328 92.8438 49.0078C92.9792 49.3828 93.0469 49.8359 93.0469 50.3672V56H91.6016V50.4375C91.6016 49.9948 91.526 49.6406 91.375 49.375C91.2292 49.1094 91.0208 48.9167 90.75 48.7969C90.4792 48.6719 90.1615 48.6094 89.7969 48.6094C89.3698 48.6094 89.013 48.6849 88.7266 48.8359C88.4401 48.987 88.2109 49.1953 88.0391 49.4609C87.8672 49.7266 87.7422 50.0312 87.6641 50.375C87.5911 50.7135 87.5547 51.0729 87.5547 51.4531ZM93.0312 50.6562L92.0625 50.9531C92.0677 50.4896 92.1432 50.0443 92.2891 49.6172C92.4401 49.1901 92.6562 48.8099 92.9375 48.4766C93.224 48.1432 93.5755 47.8802 93.9922 47.6875C94.4089 47.4896 94.8854 47.3906 95.4219 47.3906C95.875 47.3906 96.276 47.4505 96.625 47.5703C96.9792 47.6901 97.276 47.875 97.5156 48.125C97.7604 48.3698 97.9453 48.6849 98.0703 49.0703C98.1953 49.4557 98.2578 49.9141 98.2578 50.4453V56H96.8047V50.4297C96.8047 49.9557 96.7292 49.5885 96.5781 49.3281C96.4323 49.0625 96.224 48.8776 95.9531 48.7734C95.6875 48.6641 95.3698 48.6094 95 48.6094C94.6823 48.6094 94.401 48.6641 94.1562 48.7734C93.9115 48.8828 93.7057 49.0339 93.5391 49.2266C93.3724 49.4141 93.2448 49.6302 93.1562 49.875C93.0729 50.1198 93.0312 50.3802 93.0312 50.6562ZM105.43 54.5547V50.2031C105.43 49.8698 105.362 49.5807 105.227 49.3359C105.096 49.0859 104.898 48.8932 104.633 48.7578C104.367 48.6224 104.039 48.5547 103.648 48.5547C103.284 48.5547 102.964 48.6172 102.688 48.7422C102.417 48.8672 102.203 49.0312 102.047 49.2344C101.896 49.4375 101.82 49.6562 101.82 49.8906H100.375C100.375 49.5885 100.453 49.2891 100.609 48.9922C100.766 48.6953 100.99 48.4271 101.281 48.1875C101.578 47.9427 101.932 47.75 102.344 47.6094C102.76 47.4635 103.224 47.3906 103.734 47.3906C104.349 47.3906 104.891 47.4948 105.359 47.7031C105.833 47.9115 106.203 48.2266 106.469 48.6484C106.74 49.0651 106.875 49.5885 106.875 50.2188V54.1562C106.875 54.4375 106.898 54.737 106.945 55.0547C106.997 55.3724 107.073 55.6458 107.172 55.875V56H105.664C105.591 55.8333 105.534 55.612 105.492 55.3359C105.451 55.0547 105.43 54.7943 105.43 54.5547ZM105.68 50.875L105.695 51.8906H104.234C103.823 51.8906 103.456 51.9245 103.133 51.9922C102.81 52.0547 102.539 52.151 102.32 52.2812C102.102 52.4115 101.935 52.5755 101.82 52.7734C101.706 52.9661 101.648 53.1927 101.648 53.4531C101.648 53.7188 101.708 53.9609 101.828 54.1797C101.948 54.3984 102.128 54.5729 102.367 54.7031C102.612 54.8281 102.911 54.8906 103.266 54.8906C103.708 54.8906 104.099 54.7969 104.438 54.6094C104.776 54.4219 105.044 54.1927 105.242 53.9219C105.445 53.651 105.555 53.388 105.57 53.1328L106.188 53.8281C106.151 54.0469 106.052 54.2891 105.891 54.5547C105.729 54.8203 105.513 55.0755 105.242 55.3203C104.977 55.5599 104.659 55.7604 104.289 55.9219C103.924 56.0781 103.513 56.1562 103.055 56.1562C102.482 56.1562 101.979 56.0443 101.547 55.8203C101.12 55.5964 100.786 55.2969 100.547 54.9219C100.312 54.5417 100.195 54.1172 100.195 53.6484C100.195 53.1953 100.284 52.7969 100.461 52.4531C100.638 52.1042 100.893 51.8151 101.227 51.5859C101.56 51.3516 101.961 51.1745 102.43 51.0547C102.898 50.9349 103.422 50.875 104 50.875H105.68ZM112.688 47.5469V48.6562H108.117V47.5469H112.688ZM109.664 45.4922H111.109V53.9062C111.109 54.1927 111.154 54.4089 111.242 54.5547C111.331 54.7005 111.445 54.7969 111.586 54.8438C111.727 54.8906 111.878 54.9141 112.039 54.9141C112.159 54.9141 112.284 54.9036 112.414 54.8828C112.549 54.8568 112.651 54.8359 112.719 54.8203L112.727 56C112.612 56.0365 112.461 56.0703 112.273 56.1016C112.091 56.138 111.87 56.1562 111.609 56.1562C111.255 56.1562 110.93 56.0859 110.633 55.9453C110.336 55.8047 110.099 55.5703 109.922 55.2422C109.75 54.9089 109.664 54.4609 109.664 53.8984V45.4922ZM115.953 47.5469V56H114.5V47.5469H115.953ZM114.391 45.3047C114.391 45.0703 114.461 44.8724 114.602 44.7109C114.747 44.5495 114.961 44.4688 115.242 44.4688C115.518 44.4688 115.729 44.5495 115.875 44.7109C116.026 44.8724 116.102 45.0703 116.102 45.3047C116.102 45.5286 116.026 45.7214 115.875 45.8828C115.729 46.0391 115.518 46.1172 115.242 46.1172C114.961 46.1172 114.747 46.0391 114.602 45.8828C114.461 45.7214 114.391 45.5286 114.391 45.3047ZM117.891 51.8672V51.6875C117.891 51.0781 117.979 50.513 118.156 49.9922C118.333 49.4661 118.589 49.0104 118.922 48.625C119.255 48.2344 119.659 47.9323 120.133 47.7188C120.607 47.5 121.138 47.3906 121.727 47.3906C122.32 47.3906 122.854 47.5 123.328 47.7188C123.807 47.9323 124.214 48.2344 124.547 48.625C124.885 49.0104 125.143 49.4661 125.32 49.9922C125.497 50.513 125.586 51.0781 125.586 51.6875V51.8672C125.586 52.4766 125.497 53.0417 125.32 53.5625C125.143 54.0833 124.885 54.5391 124.547 54.9297C124.214 55.3151 123.81 55.6172 123.336 55.8359C122.867 56.0495 122.336 56.1562 121.742 56.1562C121.148 56.1562 120.615 56.0495 120.141 55.8359C119.667 55.6172 119.26 55.3151 118.922 54.9297C118.589 54.5391 118.333 54.0833 118.156 53.5625C117.979 53.0417 117.891 52.4766 117.891 51.8672ZM119.336 51.6875V51.8672C119.336 52.2891 119.385 52.6875 119.484 53.0625C119.583 53.4323 119.732 53.7604 119.93 54.0469C120.133 54.3333 120.385 54.5599 120.688 54.7266C120.99 54.888 121.341 54.9688 121.742 54.9688C122.138 54.9688 122.484 54.888 122.781 54.7266C123.083 54.5599 123.333 54.3333 123.531 54.0469C123.729 53.7604 123.878 53.4323 123.977 53.0625C124.081 52.6875 124.133 52.2891 124.133 51.8672V51.6875C124.133 51.2708 124.081 50.8776 123.977 50.5078C123.878 50.1328 123.727 49.8021 123.523 49.5156C123.326 49.224 123.076 48.9948 122.773 48.8281C122.477 48.6615 122.128 48.5781 121.727 48.5781C121.331 48.5781 120.982 48.6615 120.68 48.8281C120.383 48.9948 120.133 49.224 119.93 49.5156C119.732 49.8021 119.583 50.1328 119.484 50.5078C119.385 50.8776 119.336 51.2708 119.336 51.6875ZM128.844 49.3516V56H127.398V47.5469H128.766L128.844 49.3516ZM128.5 51.4531L127.898 51.4297C127.904 50.8516 127.99 50.3177 128.156 49.8281C128.323 49.3333 128.557 48.9036 128.859 48.5391C129.161 48.1745 129.521 47.8932 129.938 47.6953C130.359 47.4922 130.826 47.3906 131.336 47.3906C131.753 47.3906 132.128 47.4479 132.461 47.5625C132.794 47.6719 133.078 47.849 133.312 48.0938C133.552 48.3385 133.734 48.6562 133.859 49.0469C133.984 49.4323 134.047 49.9036 134.047 50.4609V56H132.594V50.4453C132.594 50.0026 132.529 49.6484 132.398 49.3828C132.268 49.112 132.078 48.9167 131.828 48.7969C131.578 48.6719 131.271 48.6094 130.906 48.6094C130.547 48.6094 130.219 48.6849 129.922 48.8359C129.63 48.987 129.378 49.1953 129.164 49.4609C128.956 49.7266 128.792 50.0312 128.672 50.375C128.557 50.7135 128.5 51.0729 128.5 51.4531ZM147.297 52.3828H148.797C148.719 53.1016 148.513 53.7448 148.18 54.3125C147.846 54.8802 147.375 55.3307 146.766 55.6641C146.156 55.9922 145.396 56.1562 144.484 56.1562C143.818 56.1562 143.211 56.0312 142.664 55.7812C142.122 55.5312 141.656 55.1771 141.266 54.7188C140.875 54.2552 140.573 53.7005 140.359 53.0547C140.151 52.4036 140.047 51.6797 140.047 50.8828V49.75C140.047 48.9531 140.151 48.2318 140.359 47.5859C140.573 46.9349 140.878 46.3776 141.273 45.9141C141.674 45.4505 142.156 45.0938 142.719 44.8438C143.281 44.5938 143.914 44.4688 144.617 44.4688C145.477 44.4688 146.203 44.6302 146.797 44.9531C147.391 45.276 147.852 45.724 148.18 46.2969C148.513 46.8646 148.719 47.5234 148.797 48.2734H147.297C147.224 47.7422 147.089 47.2865 146.891 46.9062C146.693 46.5208 146.411 46.224 146.047 46.0156C145.682 45.8073 145.206 45.7031 144.617 45.7031C144.112 45.7031 143.667 45.7995 143.281 45.9922C142.901 46.1849 142.581 46.4583 142.32 46.8125C142.065 47.1667 141.872 47.5911 141.742 48.0859C141.612 48.5807 141.547 49.1302 141.547 49.7344V50.8828C141.547 51.4401 141.604 51.9635 141.719 52.4531C141.839 52.9427 142.018 53.3724 142.258 53.7422C142.497 54.112 142.802 54.4036 143.172 54.6172C143.542 54.8255 143.979 54.9297 144.484 54.9297C145.125 54.9297 145.635 54.8281 146.016 54.625C146.396 54.4219 146.682 54.1302 146.875 53.75C147.073 53.3698 147.214 52.9141 147.297 52.3828ZM154.141 56.1562C153.552 56.1562 153.018 56.0573 152.539 55.8594C152.065 55.6562 151.656 55.3724 151.312 55.0078C150.974 54.6432 150.714 54.2109 150.531 53.7109C150.349 53.2109 150.258 52.6641 150.258 52.0703V51.7422C150.258 51.0547 150.359 50.4427 150.562 49.9062C150.766 49.3646 151.042 48.9062 151.391 48.5312C151.74 48.1562 152.135 47.8724 152.578 47.6797C153.021 47.487 153.479 47.3906 153.953 47.3906C154.557 47.3906 155.078 47.4948 155.516 47.7031C155.958 47.9115 156.32 48.2031 156.602 48.5781C156.883 48.9479 157.091 49.3854 157.227 49.8906C157.362 50.3906 157.43 50.9375 157.43 51.5312V52.1797H151.117V51H155.984V50.8906C155.964 50.5156 155.885 50.151 155.75 49.7969C155.62 49.4427 155.411 49.151 155.125 48.9219C154.839 48.6927 154.448 48.5781 153.953 48.5781C153.625 48.5781 153.323 48.6484 153.047 48.7891C152.771 48.9245 152.534 49.1276 152.336 49.3984C152.138 49.6693 151.984 50 151.875 50.3906C151.766 50.7812 151.711 51.2318 151.711 51.7422V52.0703C151.711 52.4714 151.766 52.849 151.875 53.2031C151.99 53.5521 152.154 53.8594 152.367 54.125C152.586 54.3906 152.849 54.599 153.156 54.75C153.469 54.901 153.823 54.9766 154.219 54.9766C154.729 54.9766 155.161 54.8724 155.516 54.6641C155.87 54.4557 156.18 54.1771 156.445 53.8281L157.32 54.5234C157.138 54.7995 156.906 55.0625 156.625 55.3125C156.344 55.5625 155.997 55.7656 155.586 55.9219C155.18 56.0781 154.698 56.1562 154.141 56.1562ZM160.562 49.3516V56H159.117V47.5469H160.484L160.562 49.3516ZM160.219 51.4531L159.617 51.4297C159.622 50.8516 159.708 50.3177 159.875 49.8281C160.042 49.3333 160.276 48.9036 160.578 48.5391C160.88 48.1745 161.24 47.8932 161.656 47.6953C162.078 47.4922 162.544 47.3906 163.055 47.3906C163.471 47.3906 163.846 47.4479 164.18 47.5625C164.513 47.6719 164.797 47.849 165.031 48.0938C165.271 48.3385 165.453 48.6562 165.578 49.0469C165.703 49.4323 165.766 49.9036 165.766 50.4609V56H164.312V50.4453C164.312 50.0026 164.247 49.6484 164.117 49.3828C163.987 49.112 163.797 48.9167 163.547 48.7969C163.297 48.6719 162.99 48.6094 162.625 48.6094C162.266 48.6094 161.938 48.6849 161.641 48.8359C161.349 48.987 161.096 49.1953 160.883 49.4609C160.674 49.7266 160.51 50.0312 160.391 50.375C160.276 50.7135 160.219 51.0729 160.219 51.4531ZM171.5 47.5469V48.6562H166.93V47.5469H171.5ZM168.477 45.4922H169.922V53.9062C169.922 54.1927 169.966 54.4089 170.055 54.5547C170.143 54.7005 170.258 54.7969 170.398 54.8438C170.539 54.8906 170.69 54.9141 170.852 54.9141C170.971 54.9141 171.096 54.9036 171.227 54.8828C171.362 54.8568 171.464 54.8359 171.531 54.8203L171.539 56C171.424 56.0365 171.273 56.0703 171.086 56.1016C170.904 56.138 170.682 56.1562 170.422 56.1562C170.068 56.1562 169.742 56.0859 169.445 55.9453C169.148 55.8047 168.911 55.5703 168.734 55.2422C168.562 54.9089 168.477 54.4609 168.477 53.8984V45.4922ZM174.641 48.875V56H173.195V47.5469H174.602L174.641 48.875ZM177.281 47.5L177.273 48.8438C177.154 48.8177 177.039 48.8021 176.93 48.7969C176.826 48.7865 176.706 48.7812 176.57 48.7812C176.237 48.7812 175.943 48.8333 175.688 48.9375C175.432 49.0417 175.216 49.1875 175.039 49.375C174.862 49.5625 174.721 49.7865 174.617 50.0469C174.518 50.3021 174.453 50.5833 174.422 50.8906L174.016 51.125C174.016 50.6146 174.065 50.1354 174.164 49.6875C174.268 49.2396 174.427 48.8438 174.641 48.5C174.854 48.151 175.125 47.8802 175.453 47.6875C175.786 47.4896 176.182 47.3906 176.641 47.3906C176.745 47.3906 176.865 47.4036 177 47.4297C177.135 47.4505 177.229 47.474 177.281 47.5ZM181.969 56.1562C181.38 56.1562 180.846 56.0573 180.367 55.8594C179.893 55.6562 179.484 55.3724 179.141 55.0078C178.802 54.6432 178.542 54.2109 178.359 53.7109C178.177 53.2109 178.086 52.6641 178.086 52.0703V51.7422C178.086 51.0547 178.188 50.4427 178.391 49.9062C178.594 49.3646 178.87 48.9062 179.219 48.5312C179.568 48.1562 179.964 47.8724 180.406 47.6797C180.849 47.487 181.307 47.3906 181.781 47.3906C182.385 47.3906 182.906 47.4948 183.344 47.7031C183.786 47.9115 184.148 48.2031 184.43 48.5781C184.711 48.9479 184.919 49.3854 185.055 49.8906C185.19 50.3906 185.258 50.9375 185.258 51.5312V52.1797H178.945V51H183.812V50.8906C183.792 50.5156 183.714 50.151 183.578 49.7969C183.448 49.4427 183.24 49.151 182.953 48.9219C182.667 48.6927 182.276 48.5781 181.781 48.5781C181.453 48.5781 181.151 48.6484 180.875 48.7891C180.599 48.9245 180.362 49.1276 180.164 49.3984C179.966 49.6693 179.812 50 179.703 50.3906C179.594 50.7812 179.539 51.2318 179.539 51.7422V52.0703C179.539 52.4714 179.594 52.849 179.703 53.2031C179.818 53.5521 179.982 53.8594 180.195 54.125C180.414 54.3906 180.677 54.599 180.984 54.75C181.297 54.901 181.651 54.9766 182.047 54.9766C182.557 54.9766 182.99 54.8724 183.344 54.6641C183.698 54.4557 184.008 54.1771 184.273 53.8281L185.148 54.5234C184.966 54.7995 184.734 55.0625 184.453 55.3125C184.172 55.5625 183.826 55.7656 183.414 55.9219C183.008 56.0781 182.526 56.1562 181.969 56.1562Z" fill="white"/>
</g>
<defs>
<filter id="filter0_bd_3486_100816" x="-4" y="-5" width="214" height="88" filterUnits="userSpaceOnUse" color-interpolation-filters="sRGB">
<feFlood flood-opacity="0" result="BackgroundImageFix"/>
<feGaussianBlur in="BackgroundImageFix" stdDeviation="6"/>
<feComposite in2="SourceAlpha" operator="in" result="effect1_backgroundBlur_3486_100816"/>
<feColorMatrix in="SourceAlpha" type="matrix" values="0 0 0 0 0 0 0 0 0 0 0 0 0 0 0 0 0 0 127 0" result="hardAlpha"/>
<feOffset dy="1"/>
<feGaussianBlur stdDeviation="4"/>
<feComposite in2="hardAlpha" operator="out"/>
<feColorMatrix type="matrix" values="0 0 0 0 0 0 0 0 0 0 0 0 0 0 0 0 0 0 0.5 0"/>
<feBlend mode="normal" in2="effect1_backgroundBlur_3486_100816" result="effect2_dropShadow_3486_100816"/>
<feBlend mode="normal" in="SourceGraphic" in2="effect2_dropShadow_3486_100816" result="shape"/>
</filter>
</defs>
</svg>
