<svg width="108" height="80" viewBox="0 0 108 80" fill="none" xmlns="http://www.w3.org/2000/svg">
<g filter="url(#filter0_bd_3486_100536)">
<rect x="8" y="7" width="92" height="64" rx="12" fill="black" fill-opacity="0.6" shape-rendering="crispEdges"/>
<rect x="8.5" y="7.5" width="91" height="63" rx="11.5" stroke="white" stroke-opacity="0.32" shape-rendering="crispEdges"/>
<path d="M26.6 27C22.964 27 20 29.952 20 33.6V34.2H22.4V33.6C22.4 32.4861 22.8425 31.4178 23.6302 30.6302C24.4178 29.8425 25.4861 29.4 26.6 29.4C28.4 29.4 29.912 30.516 30.512 32.088C30.044 31.896 29.54 31.8 29 31.8C27.332 31.8 25.88 32.784 25.208 34.2L27.296 35.4C27.548 34.704 28.22 34.2 29 34.2C29.4774 34.2 29.9352 34.3896 30.2728 34.7272C30.6104 35.0648 30.8 35.5226 30.8 36V37.8H33.2V36C33.2 35.5226 33.3896 35.0648 33.7272 34.7272C34.0648 34.3896 34.5226 34.2 35 34.2C35.792 34.2 36.452 34.704 36.704 35.4L38.792 34.2C38.12 32.784 36.68 31.8 35 31.8C34.46 31.8 33.956 31.896 33.488 32.088C34.088 30.516 35.6 29.4 37.4 29.4C38.5139 29.4 39.5822 29.8425 40.3699 30.6302C41.1575 31.4178 41.6 32.4861 41.6 33.6V34.2H44V33.6C44 31.8496 43.3046 30.1708 42.0669 28.9331C40.8292 27.6954 39.1504 27 37.4 27C35.168 27 33.2 28.116 32 29.808C30.8 28.116 28.832 27 26.6 27ZM24.8 39V41.4H26.504C27.104 42.78 28.22 43.884 29.6 44.484V47.4H20C20 47.4 20.984 48.876 21.692 49.932C22.136 50.604 22.88 51 23.684 51H40.316C41.12 51 41.864 50.604 42.308 49.932L44 47.4H34.4V44.484C35.78 43.884 36.896 42.78 37.496 41.4H39.2V39H24.8Z" fill="white"/>
<path d="M60.624 33.536H67.104V34.704H52.96V33.536H59.36V29.616H54.432V28.464H59.36V24.96H53.696V23.792H60.72C60.096 23.056 58.96 22.048 58 21.344L58.96 20.672C59.984 21.408 61.264 22.496 61.888 23.248L61.136 23.792H66.304V24.96H60.624V28.464H65.648V29.616H60.624V33.536ZM80.128 26.384V24.928H72.096V26.384H80.128ZM80.128 28.752V27.28H72.096V28.752H80.128ZM80.128 31.136V29.664H72.096V31.136H80.128ZM70.88 23.984H74.96C75.088 23.536 75.216 23.008 75.296 22.528H69.344V21.44H82.608V22.528H76.656C76.512 23.024 76.352 23.536 76.192 23.984H81.392V32.096H70.88V23.984ZM73.776 32.272L74.848 33.056C73.456 33.888 71.312 34.736 69.6 35.216C69.408 34.96 69.056 34.544 68.784 34.288C70.496 33.84 72.672 33.008 73.776 32.272ZM77.168 33.136L78.016 32.352C79.888 32.976 81.92 33.792 83.168 34.416L82.064 35.232C80.928 34.608 79.04 33.776 77.168 33.136Z" fill="white"/>
<path d="M53.7969 44.625H55.2578L58.9844 53.8984L62.7031 44.625H64.1719L59.5469 56H58.4062L53.7969 44.625ZM53.3203 44.625H54.6094L54.8203 51.5625V56H53.3203V44.625ZM63.3516 44.625H64.6406V56H63.1406V51.5625L63.3516 44.625ZM72.0547 54.5547V50.2031C72.0547 49.8698 71.987 49.5807 71.8516 49.3359C71.7214 49.0859 71.5234 48.8932 71.2578 48.7578C70.9922 48.6224 70.6641 48.5547 70.2734 48.5547C69.9089 48.5547 69.5885 48.6172 69.3125 48.7422C69.0417 48.8672 68.8281 49.0312 68.6719 49.2344C68.5208 49.4375 68.4453 49.6562 68.4453 49.8906H67C67 49.5885 67.0781 49.2891 67.2344 48.9922C67.3906 48.6953 67.6146 48.4271 67.9062 48.1875C68.2031 47.9427 68.5573 47.75 68.9688 47.6094C69.3854 47.4635 69.849 47.3906 70.3594 47.3906C70.974 47.3906 71.5156 47.4948 71.9844 47.7031C72.4583 47.9115 72.8281 48.2266 73.0938 48.6484C73.3646 49.0651 73.5 49.5885 73.5 50.2188V54.1562C73.5 54.4375 73.5234 54.737 73.5703 55.0547C73.6224 55.3724 73.6979 55.6458 73.7969 55.875V56H72.2891C72.2161 55.8333 72.1589 55.612 72.1172 55.3359C72.0755 55.0547 72.0547 54.7943 72.0547 54.5547ZM72.3047 50.875L72.3203 51.8906H70.8594C70.4479 51.8906 70.0807 51.9245 69.7578 51.9922C69.4349 52.0547 69.1641 52.151 68.9453 52.2812C68.7266 52.4115 68.5599 52.5755 68.4453 52.7734C68.3307 52.9661 68.2734 53.1927 68.2734 53.4531C68.2734 53.7188 68.3333 53.9609 68.4531 54.1797C68.5729 54.3984 68.7526 54.5729 68.9922 54.7031C69.237 54.8281 69.5365 54.8906 69.8906 54.8906C70.3333 54.8906 70.724 54.7969 71.0625 54.6094C71.401 54.4219 71.6693 54.1927 71.8672 53.9219C72.0703 53.651 72.1797 53.388 72.1953 53.1328L72.8125 53.8281C72.776 54.0469 72.6771 54.2891 72.5156 54.5547C72.3542 54.8203 72.138 55.0755 71.8672 55.3203C71.6016 55.5599 71.2839 55.7604 70.9141 55.9219C70.5495 56.0781 70.138 56.1562 69.6797 56.1562C69.1068 56.1562 68.6042 56.0443 68.1719 55.8203C67.7448 55.5964 67.4115 55.2969 67.1719 54.9219C66.9375 54.5417 66.8203 54.1172 66.8203 53.6484C66.8203 53.1953 66.9089 52.7969 67.0859 52.4531C67.263 52.1042 67.5182 51.8151 67.8516 51.5859C68.1849 51.3516 68.5859 51.1745 69.0547 51.0547C69.5234 50.9349 70.0469 50.875 70.625 50.875H72.3047ZM77.3438 47.5469V56H75.8906V47.5469H77.3438ZM75.7812 45.3047C75.7812 45.0703 75.8516 44.8724 75.9922 44.7109C76.138 44.5495 76.3516 44.4688 76.6328 44.4688C76.9089 44.4688 77.1198 44.5495 77.2656 44.7109C77.4167 44.8724 77.4922 45.0703 77.4922 45.3047C77.4922 45.5286 77.4167 45.7214 77.2656 45.8828C77.1198 46.0391 76.9089 46.1172 76.6328 46.1172C76.3516 46.1172 76.138 46.0391 75.9922 45.8828C75.8516 45.7214 75.7812 45.5286 75.7812 45.3047ZM81.1094 49.3516V56H79.6641V47.5469H81.0312L81.1094 49.3516ZM80.7656 51.4531L80.1641 51.4297C80.1693 50.8516 80.2552 50.3177 80.4219 49.8281C80.5885 49.3333 80.8229 48.9036 81.125 48.5391C81.4271 48.1745 81.7865 47.8932 82.2031 47.6953C82.625 47.4922 83.0911 47.3906 83.6016 47.3906C84.0182 47.3906 84.3932 47.4479 84.7266 47.5625C85.0599 47.6719 85.3438 47.849 85.5781 48.0938C85.8177 48.3385 86 48.6562 86.125 49.0469C86.25 49.4323 86.3125 49.9036 86.3125 50.4609V56H84.8594V50.4453C84.8594 50.0026 84.7943 49.6484 84.6641 49.3828C84.5339 49.112 84.3438 48.9167 84.0938 48.7969C83.8438 48.6719 83.5365 48.6094 83.1719 48.6094C82.8125 48.6094 82.4844 48.6849 82.1875 48.8359C81.8958 48.987 81.6432 49.1953 81.4297 49.4609C81.2214 49.7266 81.0573 50.0312 80.9375 50.375C80.8229 50.7135 80.7656 51.0729 80.7656 51.4531Z" fill="white"/>
</g>
<defs>
<filter id="filter0_bd_3486_100536" x="-4" y="-5" width="116" height="88" filterUnits="userSpaceOnUse" color-interpolation-filters="sRGB">
<feFlood flood-opacity="0" result="BackgroundImageFix"/>
<feGaussianBlur in="BackgroundImageFix" stdDeviation="6"/>
<feComposite in2="SourceAlpha" operator="in" result="effect1_backgroundBlur_3486_100536"/>
<feColorMatrix in="SourceAlpha" type="matrix" values="0 0 0 0 0 0 0 0 0 0 0 0 0 0 0 0 0 0 127 0" result="hardAlpha"/>
<feOffset dy="1"/>
<feGaussianBlur stdDeviation="4"/>
<feComposite in2="hardAlpha" operator="out"/>
<feColorMatrix type="matrix" values="0 0 0 0 0 0 0 0 0 0 0 0 0 0 0 0 0 0 0.5 0"/>
<feBlend mode="normal" in2="effect1_backgroundBlur_3486_100536" result="effect2_dropShadow_3486_100536"/>
<feBlend mode="normal" in="SourceGraphic" in2="effect2_dropShadow_3486_100536" result="shape"/>
</filter>
</defs>
</svg>
