<svg width="41" height="40" viewBox="0 0 41 40" fill="none" xmlns="http://www.w3.org/2000/svg">
<path fill-rule="evenodd" clip-rule="evenodd" d="M40.0449 20C40.0449 31.0437 31.0886 40 20.0449 40C9.00126 40 0.0449219 31.0437 0.0449219 20C0.0449219 8.95634 9.00126 0 20.0449 0C31.0886 0 40.0449 8.95634 40.0449 20Z" fill="#EBF4F4"/>
<path d="M12.5449 22.5C11.8574 22.5 11.2691 22.2554 10.7799 21.7663C10.2908 21.2771 10.0458 20.6883 10.0449 20C10.0441 19.3117 10.2891 18.7233 10.7799 18.235C11.2708 17.7467 11.8591 17.5017 12.5449 17.5C13.2308 17.4983 13.8195 17.7433 14.3112 18.235C14.8028 18.7267 15.0474 19.315 15.0449 20C15.0424 20.685 14.7978 21.2738 14.3112 21.7663C13.8245 22.2588 13.2358 22.5033 12.5449 22.5ZM20.0449 22.5C19.3574 22.5 18.7691 22.2554 18.2799 21.7663C17.7908 21.2771 17.5458 20.6883 17.5449 20C17.5441 19.3117 17.7891 18.7233 18.2799 18.235C18.7708 17.7467 19.3591 17.5017 20.0449 17.5C20.7308 17.4983 21.3195 17.7433 21.8112 18.235C22.3028 18.7267 22.5474 19.315 22.5449 20C22.5424 20.685 22.2978 21.2738 21.8112 21.7663C21.3245 22.2588 20.7358 22.5033 20.0449 22.5ZM27.5449 22.5C26.8574 22.5 26.2691 22.2554 25.7799 21.7663C25.2908 21.2771 25.0458 20.6883 25.0449 20C25.0441 19.3117 25.2891 18.7233 25.7799 18.235C26.2708 17.7467 26.8591 17.5017 27.5449 17.5C28.2308 17.4983 28.8195 17.7433 29.3112 18.235C29.8028 18.7267 30.0474 19.315 30.0449 20C30.0424 20.685 29.7978 21.2738 29.3112 21.7663C28.8245 22.2588 28.2358 22.5033 27.5449 22.5Z" fill="#33B2B3"/>
</svg>
