<svg width="41" height="40" viewBox="0 0 41 40" fill="none" xmlns="http://www.w3.org/2000/svg">
<path fill-rule="evenodd" clip-rule="evenodd" d="M40.0449 20C40.0449 31.0437 31.0886 40 20.0449 40C9.00126 40 0.0449219 31.0437 0.0449219 20C0.0449219 8.95634 9.00126 0 20.0449 0C31.0886 0 40.0449 8.95634 40.0449 20Z" fill="#FAE3F0"/>
<g clip-path="url(#clip0_84_1260)">
<path d="M20.2645 9.00911C20.1912 9.00519 20.1178 9 20.0438 9C19.9698 9 19.8939 9.00519 19.819 9.00927C13.8577 9.13059 9.04492 14.0124 9.04492 20C9.04492 25.9876 13.8551 30.8664 19.8141 30.9903C19.8905 30.9947 19.9671 31 20.044 31C20.1208 31 20.1937 30.9948 20.2682 30.9906C21.2365 30.9712 22.1736 30.8264 23.0652 30.5715L22.8793 29.9211L22.7816 29.5805L22.565 28.8237C21.9558 29.414 21.2783 29.7975 20.5607 29.9228V25.9365C20.9593 25.9411 21.3557 25.9512 21.7477 25.9662L21.4496 24.9245C21.1547 24.9154 20.8586 24.9088 20.5605 24.9052V20.6905H25.456C25.4352 21.2439 25.3898 21.7848 25.3216 22.3102L26.2939 22.8276C26.3973 22.1411 26.4625 21.4264 26.4883 20.6905H29.987C29.8987 21.9712 29.5694 23.1869 29.041 24.2902L29.9523 24.7754C30.6522 23.3305 31.0449 21.7102 31.0449 20C31.0449 14.0099 26.2283 9.12666 20.2645 9.00911ZM27.4778 13.3686C26.8175 13.5098 26.1099 13.6313 25.3639 13.7309C25.1648 13.2385 24.9423 12.7699 24.6943 12.3324C24.322 11.675 23.9086 11.1092 23.4634 10.6385C25.0193 11.2082 26.3937 12.1561 27.4776 13.3686H27.4778ZM15.4252 14.8542C16.7239 14.9966 18.1092 15.0788 19.529 15.0948V19.6593H14.624C14.6578 17.9188 14.9469 16.2745 15.4251 14.8542H15.4252ZM19.5293 10.0794V14.0633C18.2442 14.0487 16.9909 13.9783 15.8088 13.8579C16.7091 11.7821 18.0418 10.351 19.5293 10.0796V10.0794ZM20.5605 10.0775C22.0799 10.3423 23.4175 11.7637 24.3118 13.8551C23.1208 13.9775 21.8566 14.0487 20.5605 14.0635V10.0775ZM16.6258 10.6388C16.1811 11.1092 15.7678 11.6752 15.3954 12.3324C15.1477 12.7694 14.9251 13.2385 14.7256 13.7309C13.98 13.6313 13.2722 13.5098 12.6121 13.3686C13.6959 12.1562 15.0701 11.2086 16.6258 10.6388ZM11.9001 14.2651C12.66 14.4453 13.4889 14.5985 14.3691 14.7225C13.8911 16.224 13.6239 17.9069 13.5928 19.6595H10.0847C10.1528 17.6557 10.8144 15.8013 11.9001 14.2652V14.2651ZM13.6019 20.6905C13.6601 22.3172 13.9228 23.8769 14.3689 25.2784C13.4885 25.4023 12.6586 25.5547 11.8999 25.7348C10.8775 24.2884 10.2312 22.56 10.1027 20.6902H13.6019V20.6905ZM12.6124 26.6314C13.2722 26.4905 13.9802 26.369 14.7258 26.2694C14.9252 26.7619 15.1476 27.2308 15.3954 27.6679C15.7678 28.325 16.1809 28.8905 16.6257 29.361C15.0701 28.7912 13.696 27.8436 12.6124 26.6314ZM19.5293 29.9206C18.0423 29.6495 16.7094 28.2184 15.8088 26.1422C16.9918 26.0214 18.2464 25.9515 19.5293 25.9367V29.9207V29.9206ZM19.5293 24.9054C18.1116 24.9216 16.7256 25.0041 15.4257 25.1466C14.9794 23.8216 14.6981 22.3015 14.6347 20.6902H19.5293V24.9054ZM20.5605 19.6593V15.0946C21.9893 15.0784 23.383 14.9953 24.6888 14.8514C25.1544 16.2636 25.433 17.905 25.4657 19.659H20.5604V19.6593H20.5605ZM26.4969 19.6593C26.4659 17.9067 26.1985 16.2239 25.7208 14.7224C26.6012 14.5987 27.4297 14.4456 28.1898 14.2649C29.2753 15.8011 29.9371 17.6557 30.0049 19.6592H26.4969V19.6593Z" fill="#DB0F82"/>
<path d="M29.7592 25.8407L21.7432 21.573C21.7104 21.5552 21.6815 21.5468 21.6576 21.5468C21.6492 21.5468 21.6414 21.548 21.6345 21.5501C21.5911 21.5618 21.5748 21.6124 21.5972 21.6909L24.0991 30.4357C24.1183 30.503 24.1502 30.5369 24.1851 30.5369C24.1904 30.5369 24.1957 30.5363 24.2012 30.5345C24.2278 30.5273 24.2553 30.5009 24.2798 30.4552L25.5275 28.1391C25.5541 28.0903 25.5904 28.0599 25.6294 28.0489C25.641 28.0454 25.6532 28.0438 25.6653 28.0438C25.7097 28.0438 25.7555 28.0671 25.7939 28.1139L25.8039 28.1262L28.0641 30.9107C28.1113 30.9692 28.1814 30.9997 28.2514 30.9997C28.2739 30.9997 28.2964 30.9964 28.3182 30.9903C28.3482 30.9815 28.3775 30.9667 28.4028 30.9456L29.3738 30.1577C29.4767 30.0744 29.4921 29.922 29.4086 29.8188L27.1313 27.0127C27.1293 27.0101 27.128 27.0078 27.1265 27.0051C27.0506 26.9045 27.0865 26.7947 27.2105 26.7582L29.7408 26.0208C29.8678 25.984 29.876 25.9028 29.7591 25.8404L29.7592 25.8407Z" fill="#DB0F82"/>
</g>
<defs>
<clipPath id="clip0_84_1260">
<rect width="22" height="22" fill="white" transform="translate(9.04492 9)"/>
</clipPath>
</defs>
</svg>
