<svg width="41" height="40" viewBox="0 0 41 40" fill="none" xmlns="http://www.w3.org/2000/svg">
<path fill-rule="evenodd" clip-rule="evenodd" d="M40.0449 20C40.0449 31.0437 31.0886 40 20.0449 40C9.00126 40 0.0449219 31.0437 0.0449219 20C0.0449219 8.95634 9.00126 0 20.0449 0C31.0886 0 40.0449 8.95634 40.0449 20Z" fill="#FAF3E1"/>
<g clip-path="url(#clip0_84_1272)">
<path d="M29.0535 13.8012H28.1539L27.1696 11.4181C27.0593 11.1513 26.8004 10.9899 26.5283 10.9899C26.4401 10.9899 26.3509 11.0066 26.2646 11.0422L19.5843 13.8011H17.4058L25.9473 10.2737C26.7242 9.95301 27.6173 10.3239 27.9381 11.1008L29.0535 13.8012Z" fill="#FFA217"/>
<path d="M9.43413 17.0933V17.9929L9.13333 18.1171C8.92159 18.2046 8.82045 18.4484 8.90766 18.6601L9.43397 19.9344V22.1124L8.13946 18.9774C7.87676 18.3419 8.18046 17.6113 8.81602 17.3486L9.43413 17.0934V17.0933Z" fill="#FFA217"/>
<path d="M20.0849 27.3066L14.2273 29.7257C14.0398 29.803 13.8427 29.8418 13.6456 29.8418C13.4486 29.8418 13.2494 29.8028 13.0609 29.7243C12.6848 29.5683 12.3921 29.2748 12.2365 28.8986L11.5791 27.3066H12.4787L13.005 28.581C13.0757 28.7523 13.2087 28.8856 13.3797 28.9566C13.5505 29.0276 13.739 29.0279 13.9099 28.9572L17.9063 27.3066H20.0849Z" fill="#FFA217"/>
<path d="M31.1027 22.7565L30.7407 22.9058V22.0062L30.7854 21.9878C31.1385 21.842 31.307 21.4359 31.1612 21.0828L30.7407 20.0648V17.8862L31.9297 20.7653C32.2504 21.5423 31.8795 22.4353 31.1026 22.7562L31.1027 22.7565Z" fill="#FFA217"/>
<path d="M29.2161 13.8011H10.6813C9.99375 13.8011 9.43408 14.3608 9.43408 15.0484V25.7823C9.43408 26.6228 10.1181 27.3066 10.9584 27.3066H29.2161C30.0565 27.3066 30.7404 26.6228 30.7404 25.7823V15.3255C30.7404 14.485 30.0564 13.8011 29.2161 13.8011ZM29.909 25.7823C29.909 26.1644 29.598 26.4752 29.2161 26.4752H10.9584C10.5765 26.4752 10.2655 26.1644 10.2655 25.7823V15.0482C10.2655 14.819 10.452 14.6325 10.6812 14.6325H29.2161C29.2826 14.6325 29.3469 14.642 29.4079 14.6599C29.697 14.743 29.909 15.01 29.909 15.3253V25.7821V25.7823Z" fill="#FFA217"/>
<path d="M29.2161 13.7853H10.6813C9.99375 13.7853 9.43408 14.3449 9.43408 15.0325V25.7664C9.43408 26.607 10.1181 27.2907 10.9584 27.2907H29.2161C30.0565 27.2907 30.7404 26.607 30.7404 25.7664V15.3097C30.7404 14.4693 30.0564 13.7854 29.2161 13.7854V13.7853ZM29.909 25.7664C29.909 26.1486 29.598 26.4593 29.2161 26.4593H10.9584C10.5765 26.4593 10.2655 26.1486 10.2655 25.7664V15.0325C10.2655 14.8033 10.452 14.6168 10.6812 14.6168H29.2161C29.2826 14.6168 29.3469 14.6263 29.4079 14.6442C29.697 14.7273 29.909 14.9943 29.909 15.3097V25.7665V25.7664Z" fill="#FFA217"/>
<path d="M17.2264 21.0925C16.7094 21.5878 16.0092 21.8927 15.2383 21.8927C14.4675 21.8927 13.767 21.5878 13.2503 21.0925C12.2728 21.2613 11.5229 22.1188 11.5229 23.1424V24.1355H18.9536V23.1424C18.9536 22.1188 18.2039 21.2613 17.2264 21.0925Z" fill="#FFA217"/>
<path d="M15.2384 21.0611C16.3673 21.0611 17.2825 20.1456 17.2825 19.0168C17.2825 17.888 16.3673 16.9724 15.2384 16.9724C14.1096 16.9724 13.1941 17.8878 13.1941 19.0168C13.1941 20.1457 14.1093 21.0611 15.2384 21.0611Z" fill="#FFA217"/>
<path d="M28.3573 19.0874H21.7621C21.5323 19.0874 21.3464 19.2734 21.3464 19.5031C21.3464 19.7327 21.5325 19.9188 21.7621 19.9188H28.3573C28.5868 19.9188 28.7729 19.7326 28.7729 19.5031C28.7729 19.2736 28.5868 19.0874 28.3573 19.0874Z" fill="#FFA217"/>
<path d="M28.3573 21.1938H21.7621C21.5323 21.1938 21.3464 21.3799 21.3464 21.6095C21.3464 21.8392 21.5325 22.0252 21.7621 22.0252H28.3573C28.5868 22.0252 28.7729 21.839 28.7729 21.6095C28.7729 21.38 28.5868 21.1938 28.3573 21.1938Z" fill="#FFA217"/>
<path d="M21.7621 17.8125H28.3573C28.5868 17.8125 28.7729 17.6263 28.7729 17.3968C28.7729 17.1673 28.5868 16.9811 28.3573 16.9811H21.7621C21.5323 16.9811 21.3464 17.1671 21.3464 17.3968C21.3464 17.6264 21.5325 17.8125 21.7621 17.8125Z" fill="#FFA217"/>
<path d="M28.5636 23.3551C28.5025 23.3202 28.4321 23.3002 28.357 23.3002H21.7619C21.5321 23.3002 21.3462 23.4862 21.3462 23.7159C21.3462 23.9455 21.5322 24.1316 21.7619 24.1316H28.357C28.5857 24.1316 28.7713 23.9467 28.7727 23.7186V23.7159C28.7727 23.5612 28.6884 23.4265 28.5634 23.3549L28.5636 23.3551Z" fill="#FFA217"/>
</g>
<defs>
<clipPath id="clip0_84_1272">
<rect width="24" height="19.6835" fill="white" transform="translate(8.04492 10.1583)"/>
</clipPath>
</defs>
</svg>
